<?xml version="1.0" encoding="utf-8" standalone="no"?>
<!DOCTYPE svg PUBLIC "-//W3C//DTD SVG 1.1//EN"
  "http://www.w3.org/Graphics/SVG/1.1/DTD/svg11.dtd">
<svg xmlns:xlink="http://www.w3.org/1999/xlink" width="576pt" height="288pt" viewBox="0 0 576 288" xmlns="http://www.w3.org/2000/svg" version="1.1">
 <metadata>
  <rdf:RDF xmlns:dc="http://purl.org/dc/elements/1.1/" xmlns:cc="http://creativecommons.org/ns#" xmlns:rdf="http://www.w3.org/1999/02/22-rdf-syntax-ns#">
   <cc:Work>
    <dc:type rdf:resource="http://purl.org/dc/dcmitype/StillImage"/>
    <dc:date>2025-07-07T11:13:00.302021</dc:date>
    <dc:format>image/svg+xml</dc:format>
    <dc:creator>
     <cc:Agent>
      <dc:title>Matplotlib v3.10.3, https://matplotlib.org/</dc:title>
     </cc:Agent>
    </dc:creator>
   </cc:Work>
  </rdf:RDF>
 </metadata>
 <defs>
  <style type="text/css">*{stroke-linejoin: round; stroke-linecap: butt}</style>
 </defs>
 <g id="figure_1">
  <g id="patch_1">
   <path d="M 0 288 
L 576 288 
L 576 0 
L 0 0 
z
" style="fill: #ffffff"/>
  </g>
  <g id="axes_1">
   <g id="patch_2">
    <path d="M 43.94 246.04 
L 565.2 246.04 
L 565.2 26.88 
L 43.94 26.88 
z
" style="fill: #ffffff"/>
   </g>
   <g id="FillBetweenPolyCollection_1">
    <defs>
     <path id="me80fc5a6ae" d="M 67.633636 -41.966184 
L 67.633636 -41.96 
L 69.669413 -41.96 
L 71.705189 -41.96 
L 73.740966 -41.96 
L 75.776742 -41.96 
L 77.812518 -41.96 
L 79.848295 -41.96 
L 81.884071 -41.96 
L 83.919847 -41.96 
L 85.955624 -41.96 
L 87.9914 -41.96 
L 90.027177 -41.96 
L 92.062953 -41.96 
L 94.098729 -41.96 
L 96.134506 -41.96 
L 98.170282 -41.96 
L 100.206058 -41.96 
L 102.241835 -41.96 
L 104.277611 -41.96 
L 106.313388 -41.96 
L 108.349164 -41.96 
L 110.38494 -41.96 
L 112.420717 -41.96 
L 114.456493 -41.96 
L 116.492269 -41.96 
L 118.528046 -41.96 
L 120.563822 -41.96 
L 122.599599 -41.96 
L 124.635375 -41.96 
L 126.671151 -41.96 
L 128.706928 -41.96 
L 130.742704 -41.96 
L 132.77848 -41.96 
L 134.814257 -41.96 
L 136.850033 -41.96 
L 138.88581 -41.96 
L 140.921586 -41.96 
L 142.957362 -41.96 
L 144.993139 -41.96 
L 147.028915 -41.96 
L 149.064692 -41.96 
L 151.100468 -41.96 
L 153.136244 -41.96 
L 155.172021 -41.96 
L 157.207797 -41.96 
L 159.243573 -41.96 
L 161.27935 -41.96 
L 163.315126 -41.96 
L 165.350903 -41.96 
L 167.386679 -41.96 
L 169.422455 -41.96 
L 171.458232 -41.96 
L 173.494008 -41.96 
L 175.529784 -41.96 
L 177.565561 -41.96 
L 179.601337 -41.96 
L 181.637114 -41.96 
L 183.67289 -41.96 
L 185.708666 -41.96 
L 187.744443 -41.96 
L 189.780219 -41.96 
L 191.815995 -41.96 
L 193.851772 -41.96 
L 195.887548 -41.96 
L 197.923325 -41.96 
L 199.959101 -41.96 
L 201.994877 -41.96 
L 204.030654 -41.96 
L 206.06643 -41.96 
L 208.102207 -41.96 
L 210.137983 -41.96 
L 212.173759 -41.96 
L 214.209536 -41.96 
L 216.245312 -41.96 
L 218.281088 -41.96 
L 220.316865 -41.96 
L 222.352641 -41.96 
L 224.388418 -41.96 
L 226.424194 -41.96 
L 228.45997 -41.96 
L 230.495747 -41.96 
L 232.531523 -41.96 
L 234.567299 -41.96 
L 236.603076 -41.96 
L 238.638852 -41.96 
L 240.674629 -41.96 
L 242.710405 -41.96 
L 244.746181 -41.96 
L 246.781958 -41.96 
L 248.817734 -41.96 
L 250.85351 -41.96 
L 252.889287 -41.96 
L 254.925063 -41.96 
L 256.96084 -41.96 
L 258.996616 -41.96 
L 261.032392 -41.96 
L 263.068169 -41.96 
L 265.103945 -41.96 
L 267.139721 -41.96 
L 269.175498 -41.96 
L 271.211274 -41.96 
L 273.247051 -41.96 
L 275.282827 -41.96 
L 277.318603 -41.96 
L 279.35438 -41.96 
L 281.390156 -41.96 
L 283.425933 -41.96 
L 285.461709 -41.96 
L 287.497485 -41.96 
L 289.533262 -41.96 
L 291.569038 -41.96 
L 293.604814 -41.96 
L 295.640591 -41.96 
L 297.676367 -41.96 
L 299.712144 -41.96 
L 301.74792 -41.96 
L 303.783696 -41.96 
L 305.819473 -41.96 
L 307.855249 -41.96 
L 309.891025 -41.96 
L 311.926802 -41.96 
L 313.962578 -41.96 
L 315.998355 -41.96 
L 318.034131 -41.96 
L 320.069907 -41.96 
L 322.105684 -41.96 
L 324.14146 -41.96 
L 326.177236 -41.96 
L 328.213013 -41.96 
L 330.248789 -41.96 
L 332.284566 -41.96 
L 334.320342 -41.96 
L 336.356118 -41.96 
L 338.391895 -41.96 
L 340.427671 -41.96 
L 342.463448 -41.96 
L 344.499224 -41.96 
L 346.535 -41.96 
L 348.570777 -41.96 
L 350.606553 -41.96 
L 352.642329 -41.96 
L 354.678106 -41.96 
L 356.713882 -41.96 
L 358.749659 -41.96 
L 360.785435 -41.96 
L 362.821211 -41.96 
L 364.856988 -41.96 
L 366.892764 -41.96 
L 368.92854 -41.96 
L 370.964317 -41.96 
L 373.000093 -41.96 
L 375.03587 -41.96 
L 377.071646 -41.96 
L 379.107422 -41.96 
L 381.143199 -41.96 
L 383.178975 -41.96 
L 385.214751 -41.96 
L 387.250528 -41.96 
L 389.286304 -41.96 
L 391.322081 -41.96 
L 393.357857 -41.96 
L 395.393633 -41.96 
L 397.42941 -41.96 
L 399.465186 -41.96 
L 401.500962 -41.96 
L 403.536739 -41.96 
L 405.572515 -41.96 
L 407.608292 -41.96 
L 409.644068 -41.96 
L 411.679844 -41.96 
L 413.715621 -41.96 
L 415.751397 -41.96 
L 417.787174 -41.96 
L 419.82295 -41.96 
L 421.858726 -41.96 
L 423.894503 -41.96 
L 425.930279 -41.96 
L 427.966055 -41.96 
L 430.001832 -41.96 
L 432.037608 -41.96 
L 434.073385 -41.96 
L 436.109161 -41.96 
L 438.144937 -41.96 
L 440.180714 -41.96 
L 442.21649 -41.96 
L 444.252266 -41.96 
L 446.288043 -41.96 
L 448.323819 -41.96 
L 450.359596 -41.96 
L 452.395372 -41.96 
L 454.431148 -41.96 
L 456.466925 -41.96 
L 458.502701 -41.96 
L 460.538477 -41.96 
L 462.574254 -41.96 
L 464.61003 -41.96 
L 466.645807 -41.96 
L 468.681583 -41.96 
L 470.717359 -41.96 
L 472.753136 -41.96 
L 472.753136 -41.962059 
L 472.753136 -41.962059 
L 470.717359 -41.963308 
L 468.681583 -41.965176 
L 466.645807 -41.96789 
L 464.61003 -41.971714 
L 462.574254 -41.976943 
L 460.538477 -41.983873 
L 458.502701 -41.992773 
L 456.466925 -42.003837 
L 454.431148 -42.017145 
L 452.395372 -42.032612 
L 450.359596 -42.049965 
L 448.323819 -42.068734 
L 446.288043 -42.088277 
L 444.252266 -42.107839 
L 442.21649 -42.126649 
L 440.180714 -42.144029 
L 438.144937 -42.159527 
L 436.109161 -42.173022 
L 434.073385 -42.18481 
L 432.037608 -42.195641 
L 430.001832 -42.206701 
L 427.966055 -42.219545 
L 425.930279 -42.235996 
L 423.894503 -42.258016 
L 421.858726 -42.287579 
L 419.82295 -42.326559 
L 417.787174 -42.376635 
L 415.751397 -42.439235 
L 413.715621 -42.515476 
L 411.679844 -42.606132 
L 409.644068 -42.711585 
L 407.608292 -42.831779 
L 405.572515 -42.966163 
L 403.536739 -43.113672 
L 401.500962 -43.272739 
L 399.465186 -43.441399 
L 397.42941 -43.617498 
L 395.393633 -43.79902 
L 393.357857 -43.98453 
L 391.322081 -44.173682 
L 389.286304 -44.367725 
L 387.250528 -44.569915 
L 385.214751 -44.785724 
L 383.178975 -45.022767 
L 381.143199 -45.290362 
L 379.107422 -45.598738 
L 377.071646 -45.957917 
L 375.03587 -46.376403 
L 373.000093 -46.859825 
L 370.964317 -47.409751 
L 368.92854 -48.022856 
L 366.892764 -48.690627 
L 364.856988 -49.399717 
L 362.821211 -50.132961 
L 360.785435 -50.871009 
L 358.749659 -51.594382 
L 356.713882 -52.285744 
L 354.678106 -52.932068 
L 352.642329 -53.526425 
L 350.606553 -54.069114 
L 348.570777 -54.567965 
L 346.535 -55.037727 
L 344.499224 -55.498609 
L 342.463448 -55.974129 
L 340.427671 -56.488572 
L 338.391895 -57.06437 
L 336.356118 -57.71976 
L 334.320342 -58.467026 
L 332.284566 -59.311525 
L 330.248789 -60.251596 
L 328.213013 -61.279323 
L 326.177236 -62.381983 
L 324.14146 -63.543942 
L 322.105684 -64.748682 
L 320.069907 -65.980658 
L 318.034131 -67.226727 
L 315.998355 -68.476974 
L 313.962578 -69.724907 
L 311.926802 -70.967103 
L 309.891025 -72.202515 
L 307.855249 -73.431678 
L 305.819473 -74.656063 
L 303.783696 -75.877723 
L 301.74792 -77.099256 
L 299.712144 -78.323957 
L 297.676367 -79.555972 
L 295.640591 -80.800179 
L 293.604814 -82.061639 
L 291.569038 -83.34453 
L 289.533262 -84.650666 
L 287.497485 -85.977847 
L 285.461709 -87.318368 
L 283.425933 -88.658069 
L 281.390156 -89.976216 
L 279.35438 -91.246422 
L 277.318603 -92.438591 
L 275.282827 -93.52173 
L 273.247051 -94.467276 
L 271.211274 -95.252468 
L 269.175498 -95.863255 
L 267.139721 -96.296254 
L 265.103945 -96.559395 
L 263.068169 -96.671106 
L 261.032392 -96.658105 
L 258.996616 -96.552137 
L 256.96084 -96.386154 
L 254.925063 -96.190574 
L 252.889287 -95.990179 
L 250.85351 -95.802133 
L 248.817734 -95.635325 
L 246.781958 -95.491012 
L 244.746181 -95.364486 
L 242.710405 -95.247332 
L 240.674629 -95.129773 
L 238.638852 -95.002667 
L 236.603076 -94.858837 
L 234.567299 -94.6936 
L 232.531523 -94.504535 
L 230.495747 -94.290659 
L 228.45997 -94.051258 
L 226.424194 -93.784637 
L 224.388418 -93.487007 
L 222.352641 -93.1517 
L 220.316865 -92.768806 
L 218.281088 -92.325309 
L 216.245312 -91.805724 
L 214.209536 -91.19322 
L 212.173759 -90.47115 
L 210.137983 -89.62487 
L 208.102207 -88.643652 
L 206.06643 -87.522459 
L 204.030654 -86.263322 
L 201.994877 -84.876056 
L 199.959101 -83.378124 
L 197.923325 -81.79357 
L 195.887548 -80.151068 
L 193.851772 -78.481296 
L 191.815995 -76.813968 
L 189.780219 -75.174932 
L 187.744443 -73.583773 
L 185.708666 -72.052267 
L 183.67289 -70.583939 
L 181.637114 -69.174772 
L 179.601337 -67.814959 
L 177.565561 -66.491413 
L 175.529784 -65.19063 
L 173.494008 -63.901473 
L 171.458232 -62.61745 
L 169.422455 -61.338173 
L 167.386679 -60.069806 
L 165.350903 -58.824484 
L 163.315126 -57.618811 
L 161.27935 -56.471699 
L 159.243573 -55.401847 
L 157.207797 -54.425232 
L 155.172021 -53.552904 
L 153.136244 -52.789399 
L 151.100468 -52.131919 
L 149.064692 -51.570405 
L 147.028915 -51.088468 
L 144.993139 -50.665074 
L 142.957362 -50.276781 
L 140.921586 -49.900244 
L 138.88581 -49.514688 
L 136.850033 -49.104028 
L 134.814257 -48.658375 
L 132.77848 -48.174745 
L 130.742704 -47.656901 
L 128.706928 -47.114397 
L 126.671151 -46.560969 
L 124.635375 -46.012547 
L 122.599599 -45.485178 
L 120.563822 -44.993129 
L 118.528046 -44.547429 
L 116.492269 -44.15498 
L 114.456493 -43.8183 
L 112.420717 -43.535845 
L 110.38494 -43.302798 
L 108.349164 -43.112136 
L 106.313388 -42.95579 
L 104.277611 -42.825724 
L 102.241835 -42.714789 
L 100.206058 -42.617276 
L 98.170282 -42.529152 
L 96.134506 -42.448002 
L 94.098729 -42.372762 
L 92.062953 -42.303334 
L 90.027177 -42.240157 
L 87.9914 -42.183839 
L 85.955624 -42.134863 
L 83.919847 -42.093424 
L 81.884071 -42.059359 
L 79.848295 -42.032173 
L 77.812518 -42.011116 
L 75.776742 -41.995288 
L 73.740966 -41.983741 
L 71.705189 -41.975563 
L 69.669413 -41.96994 
L 67.633636 -41.966184 
z
" style="stroke: #008000; stroke-width: 0.2"/>
    </defs>
    <g clip-path="url(#p216c38637a)">
     <use xlink:href="#me80fc5a6ae" x="0" y="288" style="fill: #008000; fill-opacity: 0.3; stroke: #008000; stroke-width: 0.2"/>
    </g>
   </g>
   <g id="FillBetweenPolyCollection_2">
    <defs>
     <path id="m6d1ede1fa8" d="M 76.923533 -41.960616 
L 76.923533 -41.96 
L 79.167353 -41.96 
L 81.411174 -41.96 
L 83.654994 -41.96 
L 85.898814 -41.96 
L 88.142635 -41.96 
L 90.386455 -41.96 
L 92.630275 -41.96 
L 94.874096 -41.96 
L 97.117916 -41.96 
L 99.361737 -41.96 
L 101.605557 -41.96 
L 103.849377 -41.96 
L 106.093198 -41.96 
L 108.337018 -41.96 
L 110.580838 -41.96 
L 112.824659 -41.96 
L 115.068479 -41.96 
L 117.3123 -41.96 
L 119.55612 -41.96 
L 121.79994 -41.96 
L 124.043761 -41.96 
L 126.287581 -41.96 
L 128.531401 -41.96 
L 130.775222 -41.96 
L 133.019042 -41.96 
L 135.262863 -41.96 
L 137.506683 -41.96 
L 139.750503 -41.96 
L 141.994324 -41.96 
L 144.238144 -41.96 
L 146.481965 -41.96 
L 148.725785 -41.96 
L 150.969605 -41.96 
L 153.213426 -41.96 
L 155.457246 -41.96 
L 157.701066 -41.96 
L 159.944887 -41.96 
L 162.188707 -41.96 
L 164.432528 -41.96 
L 166.676348 -41.96 
L 168.920168 -41.96 
L 171.163989 -41.96 
L 173.407809 -41.96 
L 175.651629 -41.96 
L 177.89545 -41.96 
L 180.13927 -41.96 
L 182.383091 -41.96 
L 184.626911 -41.96 
L 186.870731 -41.96 
L 189.114552 -41.96 
L 191.358372 -41.96 
L 193.602192 -41.96 
L 195.846013 -41.96 
L 198.089833 -41.96 
L 200.333654 -41.96 
L 202.577474 -41.96 
L 204.821294 -41.96 
L 207.065115 -41.96 
L 209.308935 -41.96 
L 211.552756 -41.96 
L 213.796576 -41.96 
L 216.040396 -41.96 
L 218.284217 -41.96 
L 220.528037 -41.96 
L 222.771857 -41.96 
L 225.015678 -41.96 
L 227.259498 -41.96 
L 229.503319 -41.96 
L 231.747139 -41.96 
L 233.990959 -41.96 
L 236.23478 -41.96 
L 238.4786 -41.96 
L 240.72242 -41.96 
L 242.966241 -41.96 
L 245.210061 -41.96 
L 247.453882 -41.96 
L 249.697702 -41.96 
L 251.941522 -41.96 
L 254.185343 -41.96 
L 256.429163 -41.96 
L 258.672983 -41.96 
L 260.916804 -41.96 
L 263.160624 -41.96 
L 265.404445 -41.96 
L 267.648265 -41.96 
L 269.892085 -41.96 
L 272.135906 -41.96 
L 274.379726 -41.96 
L 276.623546 -41.96 
L 278.867367 -41.96 
L 281.111187 -41.96 
L 283.355008 -41.96 
L 285.598828 -41.96 
L 287.842648 -41.96 
L 290.086469 -41.96 
L 292.330289 -41.96 
L 294.57411 -41.96 
L 296.81793 -41.96 
L 299.06175 -41.96 
L 301.305571 -41.96 
L 303.549391 -41.96 
L 305.793211 -41.96 
L 308.037032 -41.96 
L 310.280852 -41.96 
L 312.524673 -41.96 
L 314.768493 -41.96 
L 317.012313 -41.96 
L 319.256134 -41.96 
L 321.499954 -41.96 
L 323.743774 -41.96 
L 325.987595 -41.96 
L 328.231415 -41.96 
L 330.475236 -41.96 
L 332.719056 -41.96 
L 334.962876 -41.96 
L 337.206697 -41.96 
L 339.450517 -41.96 
L 341.694337 -41.96 
L 343.938158 -41.96 
L 346.181978 -41.96 
L 348.425799 -41.96 
L 350.669619 -41.96 
L 352.913439 -41.96 
L 355.15726 -41.96 
L 357.40108 -41.96 
L 359.644901 -41.96 
L 361.888721 -41.96 
L 364.132541 -41.96 
L 366.376362 -41.96 
L 368.620182 -41.96 
L 370.864002 -41.96 
L 373.107823 -41.96 
L 375.351643 -41.96 
L 377.595464 -41.96 
L 379.839284 -41.96 
L 382.083104 -41.96 
L 384.326925 -41.96 
L 386.570745 -41.96 
L 388.814565 -41.96 
L 391.058386 -41.96 
L 393.302206 -41.96 
L 395.546027 -41.96 
L 397.789847 -41.96 
L 400.033667 -41.96 
L 402.277488 -41.96 
L 404.521308 -41.96 
L 406.765128 -41.96 
L 409.008949 -41.96 
L 411.252769 -41.96 
L 413.49659 -41.96 
L 415.74041 -41.96 
L 417.98423 -41.96 
L 420.228051 -41.96 
L 422.471871 -41.96 
L 424.715691 -41.96 
L 426.959512 -41.96 
L 429.203332 -41.96 
L 431.447153 -41.96 
L 433.690973 -41.96 
L 435.934793 -41.96 
L 438.178614 -41.96 
L 440.422434 -41.96 
L 442.666255 -41.96 
L 444.910075 -41.96 
L 447.153895 -41.96 
L 449.397716 -41.96 
L 451.641536 -41.96 
L 453.885356 -41.96 
L 456.129177 -41.96 
L 458.372997 -41.96 
L 460.616818 -41.96 
L 462.860638 -41.96 
L 465.104458 -41.96 
L 467.348279 -41.96 
L 469.592099 -41.96 
L 471.835919 -41.96 
L 474.07974 -41.96 
L 476.32356 -41.96 
L 478.567381 -41.96 
L 480.811201 -41.96 
L 483.055021 -41.96 
L 485.298842 -41.96 
L 487.542662 -41.96 
L 489.786482 -41.96 
L 492.030303 -41.96 
L 494.274123 -41.96 
L 496.517944 -41.96 
L 498.761764 -41.96 
L 501.005584 -41.96 
L 503.249405 -41.96 
L 505.493225 -41.96 
L 507.737046 -41.96 
L 509.980866 -41.96 
L 512.224686 -41.96 
L 514.468507 -41.96 
L 516.712327 -41.96 
L 518.956147 -41.96 
L 521.199968 -41.96 
L 523.443788 -41.96 
L 523.443788 -41.960972 
L 523.443788 -41.960972 
L 521.199968 -41.961995 
L 518.956147 -41.963884 
L 516.712327 -41.967177 
L 514.468507 -41.972594 
L 512.224686 -41.981003 
L 509.980866 -41.993315 
L 507.737046 -42.010301 
L 505.493225 -42.032359 
L 503.249405 -42.059269 
L 501.005584 -42.090023 
L 498.761764 -42.122796 
L 496.517944 -42.155145 
L 494.274123 -42.184408 
L 492.030303 -42.208272 
L 489.786482 -42.225363 
L 487.542662 -42.235702 
L 485.298842 -42.240848 
L 483.055021 -42.243643 
L 480.811201 -42.247554 
L 478.567381 -42.255807 
L 476.32356 -42.270558 
L 474.07974 -42.292432 
L 471.835919 -42.320618 
L 469.592099 -42.353557 
L 467.348279 -42.389966 
L 465.104458 -42.429831 
L 462.860638 -42.474941 
L 460.616818 -42.528689 
L 458.372997 -42.59514 
L 456.129177 -42.677608 
L 453.885356 -42.777187 
L 451.641536 -42.891699 
L 449.397716 -43.015439 
L 447.153895 -43.13987 
L 444.910075 -43.255188 
L 442.666255 -43.352454 
L 440.422434 -43.42578 
L 438.178614 -43.474008 
L 435.934793 -43.501405 
L 433.690973 -43.517113 
L 431.447153 -43.533474 
L 429.203332 -43.563659 
L 426.959512 -43.619273 
L 424.715691 -43.708568 
L 422.471871 -43.835733 
L 420.228051 -44.001327 
L 417.98423 -44.203606 
L 415.74041 -44.440235 
L 413.49659 -44.709805 
L 411.252769 -45.012654 
L 409.008949 -45.350743 
L 406.765128 -45.7266 
L 404.521308 -46.141653 
L 402.277488 -46.594499 
L 400.033667 -47.079702 
L 397.789847 -47.587641 
L 395.546027 -48.105642 
L 393.302206 -48.620276 
L 391.058386 -49.120398 
L 388.814565 -49.600234 
L 386.570745 -50.061744 
L 384.326925 -50.51555 
L 382.083104 -50.979989 
L 379.839284 -51.478292 
L 377.595464 -52.034368 
L 375.351643 -52.668086 
L 373.107823 -53.391091 
L 370.864002 -54.204121 
L 368.620182 -55.096422 
L 366.376362 -56.047451 
L 364.132541 -57.030555 
L 361.888721 -58.017974 
L 359.644901 -58.986275 
L 357.40108 -59.921315 
L 355.15726 -60.821943 
L 352.913439 -61.701808 
L 350.669619 -62.588664 
L 348.425799 -63.520614 
L 346.181978 -64.538998 
L 343.938158 -65.678498 
L 341.694337 -66.956538 
L 339.450517 -68.365582 
L 337.206697 -69.872298 
L 334.962876 -71.425744 
L 332.719056 -72.972732 
L 330.475236 -74.474266 
L 328.231415 -75.915209 
L 325.987595 -77.302186 
L 323.743774 -78.65126 
L 321.499954 -79.973276 
L 319.256134 -81.26634 
L 317.012313 -82.519958 
L 314.768493 -83.72691 
L 312.524673 -84.893133 
L 310.280852 -86.037306 
L 308.037032 -87.179708 
L 305.793211 -88.328502 
L 303.549391 -89.474061 
L 301.305571 -90.596466 
L 299.06175 -91.681721 
L 296.81793 -92.735803 
L 294.57411 -93.786792 
L 292.330289 -94.872934 
L 290.086469 -96.022954 
L 287.842648 -97.238792 
L 285.598828 -98.488521 
L 283.355008 -99.711153 
L 281.111187 -100.829638 
L 278.867367 -101.766356 
L 276.623546 -102.456662 
L 274.379726 -102.858398 
L 272.135906 -102.956994 
L 269.892085 -102.766172 
L 267.648265 -102.3242 
L 265.404445 -101.686003 
L 263.160624 -100.91242 
L 260.916804 -100.058931 
L 258.672983 -99.166489 
L 256.429163 -98.256484 
L 254.185343 -97.330637 
L 251.941522 -96.375418 
L 249.697702 -95.36958 
L 247.453882 -94.292777 
L 245.210061 -93.132885 
L 242.966241 -91.889826 
L 240.72242 -90.574745 
L 238.4786 -89.205101 
L 236.23478 -87.797912 
L 233.990959 -86.36404 
L 231.747139 -84.905696 
L 229.503319 -83.417643 
L 227.259498 -81.891015 
L 225.015678 -80.317877 
L 222.771857 -78.694942 
L 220.528037 -77.025617 
L 218.284217 -75.320293 
L 216.040396 -73.595229 
L 213.796576 -71.870546 
L 211.552756 -70.167924 
L 209.308935 -68.508518 
L 207.065115 -66.911478 
L 204.821294 -65.393105 
L 202.577474 -63.966389 
L 200.333654 -62.640465 
L 198.089833 -61.419722 
L 195.846013 -60.302673 
L 193.602192 -59.281146 
L 191.358372 -58.340503 
L 189.114552 -57.46128 
L 186.870731 -56.622056 
L 184.626911 -55.802745 
L 182.383091 -54.987276 
L 180.13927 -54.164922 
L 177.89545 -53.330179 
L 175.651629 -52.481771 
L 173.407809 -51.621631 
L 171.163989 -50.754495 
L 168.920168 -49.888172 
L 166.676348 -49.03402 
L 164.432528 -48.206883 
L 162.188707 -47.424044 
L 159.944887 -46.703177 
L 157.701066 -46.059835 
L 155.457246 -45.505123 
L 153.213426 -45.04411 
L 150.969605 -44.675157 
L 148.725785 -44.390096 
L 146.481965 -44.175077 
L 144.238144 -44.012022 
L 141.994324 -43.880648 
L 139.750503 -43.760999 
L 137.506683 -43.636173 
L 135.262863 -43.494731 
L 133.019042 -43.332153 
L 130.775222 -43.150921 
L 128.531401 -42.959146 
L 126.287581 -42.768136 
L 124.043761 -42.589591 
L 121.79994 -42.433132 
L 119.55612 -42.304729 
L 117.3123 -42.206197 
L 115.068479 -42.135654 
L 112.824659 -42.088601 
L 110.580838 -42.05923 
L 108.337018 -42.041633 
L 106.093198 -42.030712 
L 103.849377 -42.022691 
L 101.605557 -42.015256 
L 99.361737 -42.007392 
L 97.117916 -41.999031 
L 94.874096 -41.990638 
L 92.630275 -41.982829 
L 90.386455 -41.976114 
L 88.142635 -41.970762 
L 85.898814 -41.966797 
L 83.654994 -41.964059 
L 81.411174 -41.962291 
L 79.167353 -41.961222 
L 76.923533 -41.960616 
z
" style="stroke: #0000ff; stroke-width: 0.2"/>
    </defs>
    <g clip-path="url(#p216c38637a)">
     <use xlink:href="#m6d1ede1fa8" x="0" y="288" style="fill: #0000ff; fill-opacity: 0.3; stroke: #0000ff; stroke-width: 0.2"/>
    </g>
   </g>
   <g id="FillBetweenPolyCollection_3">
    <defs>
     <path id="mdb6cfdf826" d="M 203.359552 -41.960651 
L 203.359552 -41.96 
L 205.058782 -41.96 
L 206.758013 -41.96 
L 208.457243 -41.96 
L 210.156473 -41.96 
L 211.855703 -41.96 
L 213.554933 -41.96 
L 215.254164 -41.96 
L 216.953394 -41.96 
L 218.652624 -41.96 
L 220.351854 -41.96 
L 222.051084 -41.96 
L 223.750315 -41.96 
L 225.449545 -41.96 
L 227.148775 -41.96 
L 228.848005 -41.96 
L 230.547236 -41.96 
L 232.246466 -41.96 
L 233.945696 -41.96 
L 235.644926 -41.96 
L 237.344156 -41.96 
L 239.043387 -41.96 
L 240.742617 -41.96 
L 242.441847 -41.96 
L 244.141077 -41.96 
L 245.840307 -41.96 
L 247.539538 -41.96 
L 249.238768 -41.96 
L 250.937998 -41.96 
L 252.637228 -41.96 
L 254.336458 -41.96 
L 256.035689 -41.96 
L 257.734919 -41.96 
L 259.434149 -41.96 
L 261.133379 -41.96 
L 262.832609 -41.96 
L 264.53184 -41.96 
L 266.23107 -41.96 
L 267.9303 -41.96 
L 269.62953 -41.96 
L 271.328761 -41.96 
L 273.027991 -41.96 
L 274.727221 -41.96 
L 276.426451 -41.96 
L 278.125681 -41.96 
L 279.824912 -41.96 
L 281.524142 -41.96 
L 283.223372 -41.96 
L 284.922602 -41.96 
L 286.621832 -41.96 
L 288.321063 -41.96 
L 290.020293 -41.96 
L 291.719523 -41.96 
L 293.418753 -41.96 
L 295.117983 -41.96 
L 296.817214 -41.96 
L 298.516444 -41.96 
L 300.215674 -41.96 
L 301.914904 -41.96 
L 303.614134 -41.96 
L 305.313365 -41.96 
L 307.012595 -41.96 
L 308.711825 -41.96 
L 310.411055 -41.96 
L 312.110286 -41.96 
L 313.809516 -41.96 
L 315.508746 -41.96 
L 317.207976 -41.96 
L 318.907206 -41.96 
L 320.606437 -41.96 
L 322.305667 -41.96 
L 324.004897 -41.96 
L 325.704127 -41.96 
L 327.403357 -41.96 
L 329.102588 -41.96 
L 330.801818 -41.96 
L 332.501048 -41.96 
L 334.200278 -41.96 
L 335.899508 -41.96 
L 337.598739 -41.96 
L 339.297969 -41.96 
L 340.997199 -41.96 
L 342.696429 -41.96 
L 344.395659 -41.96 
L 346.09489 -41.96 
L 347.79412 -41.96 
L 349.49335 -41.96 
L 351.19258 -41.96 
L 352.891811 -41.96 
L 354.591041 -41.96 
L 356.290271 -41.96 
L 357.989501 -41.96 
L 359.688731 -41.96 
L 361.387962 -41.96 
L 363.087192 -41.96 
L 364.786422 -41.96 
L 366.485652 -41.96 
L 368.184882 -41.96 
L 369.884113 -41.96 
L 371.583343 -41.96 
L 373.282573 -41.96 
L 374.981803 -41.96 
L 376.681033 -41.96 
L 378.380264 -41.96 
L 380.079494 -41.96 
L 381.778724 -41.96 
L 383.477954 -41.96 
L 385.177184 -41.96 
L 386.876415 -41.96 
L 388.575645 -41.96 
L 390.274875 -41.96 
L 391.974105 -41.96 
L 393.673336 -41.96 
L 395.372566 -41.96 
L 397.071796 -41.96 
L 398.771026 -41.96 
L 400.470256 -41.96 
L 402.169487 -41.96 
L 403.868717 -41.96 
L 405.567947 -41.96 
L 407.267177 -41.96 
L 408.966407 -41.96 
L 410.665638 -41.96 
L 412.364868 -41.96 
L 414.064098 -41.96 
L 415.763328 -41.96 
L 417.462558 -41.96 
L 419.161789 -41.96 
L 420.861019 -41.96 
L 422.560249 -41.96 
L 424.259479 -41.96 
L 425.958709 -41.96 
L 427.65794 -41.96 
L 429.35717 -41.96 
L 431.0564 -41.96 
L 432.75563 -41.96 
L 434.454861 -41.96 
L 436.154091 -41.96 
L 437.853321 -41.96 
L 439.552551 -41.96 
L 441.251781 -41.96 
L 442.951012 -41.96 
L 444.650242 -41.96 
L 446.349472 -41.96 
L 448.048702 -41.96 
L 449.747932 -41.96 
L 451.447163 -41.96 
L 453.146393 -41.96 
L 454.845623 -41.96 
L 456.544853 -41.96 
L 458.244083 -41.96 
L 459.943314 -41.96 
L 461.642544 -41.96 
L 463.341774 -41.96 
L 465.041004 -41.96 
L 466.740234 -41.96 
L 468.439465 -41.96 
L 470.138695 -41.96 
L 471.837925 -41.96 
L 473.537155 -41.96 
L 475.236386 -41.96 
L 476.935616 -41.96 
L 478.634846 -41.96 
L 480.334076 -41.96 
L 482.033306 -41.96 
L 483.732537 -41.96 
L 485.431767 -41.96 
L 487.130997 -41.96 
L 488.830227 -41.96 
L 490.529457 -41.96 
L 492.228688 -41.96 
L 493.927918 -41.96 
L 495.627148 -41.96 
L 497.326378 -41.96 
L 499.025608 -41.96 
L 500.724839 -41.96 
L 502.424069 -41.96 
L 504.123299 -41.96 
L 505.822529 -41.96 
L 507.521759 -41.96 
L 509.22099 -41.96 
L 510.92022 -41.96 
L 512.61945 -41.96 
L 514.31868 -41.96 
L 516.017911 -41.96 
L 517.717141 -41.96 
L 519.416371 -41.96 
L 521.115601 -41.96 
L 522.814831 -41.96 
L 524.514062 -41.96 
L 526.213292 -41.96 
L 527.912522 -41.96 
L 529.611752 -41.96 
L 531.310982 -41.96 
L 533.010213 -41.96 
L 534.709443 -41.96 
L 536.408673 -41.96 
L 538.107903 -41.96 
L 539.807133 -41.96 
L 541.506364 -41.96 
L 541.506364 -44.14297 
L 541.506364 -44.14297 
L 539.807133 -47.246222 
L 538.107903 -53.58144 
L 536.408673 -65.154849 
L 534.709443 -83.98816 
L 533.010213 -111.096435 
L 531.310982 -145.210632 
L 529.611752 -181.951395 
L 527.912522 -214.282989 
L 526.213292 -234.556143 
L 524.514062 -237.438237 
L 522.814831 -222.237509 
L 521.115601 -193.284604 
L 519.416371 -158.161648 
L 517.717141 -124.846474 
L 516.017911 -99.310334 
L 514.31868 -84.526319 
L 512.61945 -80.813946 
L 510.92022 -86.773372 
L 509.22099 -100.08548 
L 507.521759 -117.91553 
L 505.822529 -137.09119 
L 504.123299 -154.352784 
L 502.424069 -166.817481 
L 500.724839 -172.55472 
L 499.025608 -171.024289 
L 497.326378 -163.157893 
L 495.627148 -151.026159 
L 493.927918 -137.216899 
L 492.228688 -124.156291 
L 490.529457 -113.593393 
L 488.830227 -106.369379 
L 487.130997 -102.470607 
L 485.431767 -101.274683 
L 483.732537 -101.86489 
L 482.033306 -103.305468 
L 480.334076 -104.818434 
L 478.634846 -105.856923 
L 476.935616 -106.107035 
L 475.236386 -105.457232 
L 473.537155 -103.957892 
L 471.837925 -101.774131 
L 470.138695 -99.129413 
L 468.439465 -96.245599 
L 466.740234 -93.294185 
L 465.041004 -90.373355 
L 463.341774 -87.516178 
L 461.642544 -84.723076 
L 459.943314 -82.001971 
L 458.244083 -79.396024 
L 456.544853 -76.984273 
L 454.845623 -74.854447 
L 453.146393 -73.063031 
L 451.447163 -71.605288 
L 449.747932 -70.411733 
L 448.048702 -69.3717 
L 446.349472 -68.370182 
L 444.650242 -67.320057 
L 442.951012 -66.178601 
L 441.251781 -64.947565 
L 439.552551 -63.662388 
L 437.853321 -62.376533 
L 436.154091 -61.144773 
L 434.454861 -60.008093 
L 432.75563 -58.982851 
L 431.0564 -58.057013 
L 429.35717 -57.195291 
L 427.65794 -56.352329 
L 425.958709 -55.489201 
L 424.259479 -54.586433 
L 422.560249 -53.648968 
L 420.861019 -52.703347 
L 419.161789 -51.79012 
L 417.462558 -50.953705 
L 415.763328 -50.231026 
L 414.064098 -49.641842 
L 412.364868 -49.184969 
L 410.665638 -48.841871 
L 408.966407 -48.584159 
L 407.267177 -48.379936 
L 405.567947 -48.197315 
L 403.868717 -48.007178 
L 402.169487 -47.787037 
L 400.470256 -47.524714 
L 398.771026 -47.219169 
L 397.071796 -46.878146 
L 395.372566 -46.515169 
L 393.673336 -46.148007 
L 391.974105 -45.797491 
L 390.274875 -45.484045 
L 388.575645 -45.222084 
L 386.876415 -45.016376 
L 385.177184 -44.863904 
L 383.477954 -44.759231 
L 381.778724 -44.697137 
L 380.079494 -44.668928 
L 378.380264 -44.656323 
L 376.681033 -44.630846 
L 374.981803 -44.562482 
L 373.282573 -44.432973 
L 371.583343 -44.244683 
L 369.884113 -44.01937 
L 368.184882 -43.788455 
L 366.485652 -43.581151 
L 364.786422 -43.416132 
L 363.087192 -43.298702 
L 361.387962 -43.222388 
L 359.688731 -43.173177 
L 357.989501 -43.135073 
L 356.290271 -43.095782 
L 354.591041 -43.050815 
L 352.891811 -43.004317 
L 351.19258 -42.965965 
L 349.49335 -42.945139 
L 347.79412 -42.945042 
L 346.09489 -42.959691 
L 344.395659 -42.975489 
L 342.696429 -42.976858 
L 340.997199 -42.953141 
L 339.297969 -42.903 
L 337.598739 -42.833829 
L 335.899508 -42.756652 
L 334.200278 -42.679843 
L 332.501048 -42.605625 
L 330.801818 -42.531228 
L 329.102588 -42.453368 
L 327.403357 -42.372651 
L 325.704127 -42.294972 
L 324.004897 -42.229218 
L 322.305667 -42.182933 
L 320.606437 -42.15856 
L 318.907206 -42.152267 
L 317.207976 -42.155806 
L 315.508746 -42.160264 
L 313.809516 -42.159646 
L 312.110286 -42.152488 
L 310.411055 -42.140908 
L 308.711825 -42.128084 
L 307.012595 -42.115988 
L 305.313365 -42.104729 
L 303.614134 -42.093603 
L 301.914904 -42.082739 
L 300.215674 -42.074008 
L 298.516444 -42.070553 
L 296.817214 -42.075289 
L 295.117983 -42.089312 
L 293.418753 -42.111098 
L 291.719523 -42.136844 
L 290.020293 -42.161705 
L 288.321063 -42.181299 
L 286.621832 -42.192846 
L 284.922602 -42.195496 
L 283.223372 -42.189847 
L 281.524142 -42.177032 
L 279.824912 -42.158038 
L 278.125681 -42.133677 
L 276.426451 -42.105121 
L 274.727221 -42.074415 
L 273.027991 -42.044415 
L 271.328761 -42.018111 
L 269.62953 -41.99778 
L 267.9303 -41.984523 
L 266.23107 -41.978336 
L 264.53184 -41.978478 
L 262.832609 -41.98374 
L 261.133379 -41.992466 
L 259.434149 -42.002472 
L 257.734919 -42.011205 
L 256.035689 -42.016276 
L 254.336458 -42.016214 
L 252.637228 -42.010993 
L 250.937998 -42.001999 
L 249.238768 -41.991407 
L 247.539538 -41.981331 
L 245.840307 -41.973184 
L 244.141077 -41.967494 
L 242.441847 -41.964138 
L 240.742617 -41.962759 
L 239.043387 -41.963143 
L 237.344156 -41.96543 
L 235.644926 -41.970114 
L 233.945696 -41.977838 
L 232.246466 -41.989017 
L 230.547236 -42.003413 
L 228.848005 -42.019847 
L 227.148775 -42.036222 
L 225.449545 -42.049923 
L 223.750315 -42.058485 
L 222.051084 -42.060266 
L 220.351854 -42.054917 
L 218.652624 -42.04348 
L 216.953394 -42.028089 
L 215.254164 -42.011377 
L 213.554933 -41.995762 
L 211.855703 -41.9829 
L 210.156473 -41.973454 
L 208.457243 -41.967236 
L 206.758013 -41.963556 
L 205.058782 -41.961595 
L 203.359552 -41.960651 
z
" style="stroke: #ffff00; stroke-width: 0.2"/>
    </defs>
    <g clip-path="url(#p216c38637a)">
     <use xlink:href="#mdb6cfdf826" x="0" y="288" style="fill: #ffff00; fill-opacity: 0.3; stroke: #ffff00; stroke-width: 0.2"/>
    </g>
   </g>
   <g id="FillBetweenPolyCollection_4">
    <defs>
     <path id="m5f700eeeea" d="M 247.220242 -41.96067 
L 247.220242 -41.96 
L 248.694443 -41.96 
L 250.168645 -41.96 
L 251.642846 -41.96 
L 253.117047 -41.96 
L 254.591248 -41.96 
L 256.06545 -41.96 
L 257.539651 -41.96 
L 259.013852 -41.96 
L 260.488054 -41.96 
L 261.962255 -41.96 
L 263.436456 -41.96 
L 264.910657 -41.96 
L 266.384859 -41.96 
L 267.85906 -41.96 
L 269.333261 -41.96 
L 270.807462 -41.96 
L 272.281664 -41.96 
L 273.755865 -41.96 
L 275.230066 -41.96 
L 276.704267 -41.96 
L 278.178469 -41.96 
L 279.65267 -41.96 
L 281.126871 -41.96 
L 282.601073 -41.96 
L 284.075274 -41.96 
L 285.549475 -41.96 
L 287.023676 -41.96 
L 288.497878 -41.96 
L 289.972079 -41.96 
L 291.44628 -41.96 
L 292.920481 -41.96 
L 294.394683 -41.96 
L 295.868884 -41.96 
L 297.343085 -41.96 
L 298.817286 -41.96 
L 300.291488 -41.96 
L 301.765689 -41.96 
L 303.23989 -41.96 
L 304.714091 -41.96 
L 306.188293 -41.96 
L 307.662494 -41.96 
L 309.136695 -41.96 
L 310.610897 -41.96 
L 312.085098 -41.96 
L 313.559299 -41.96 
L 315.0335 -41.96 
L 316.507702 -41.96 
L 317.981903 -41.96 
L 319.456104 -41.96 
L 320.930305 -41.96 
L 322.404507 -41.96 
L 323.878708 -41.96 
L 325.352909 -41.96 
L 326.82711 -41.96 
L 328.301312 -41.96 
L 329.775513 -41.96 
L 331.249714 -41.96 
L 332.723916 -41.96 
L 334.198117 -41.96 
L 335.672318 -41.96 
L 337.146519 -41.96 
L 338.620721 -41.96 
L 340.094922 -41.96 
L 341.569123 -41.96 
L 343.043324 -41.96 
L 344.517526 -41.96 
L 345.991727 -41.96 
L 347.465928 -41.96 
L 348.940129 -41.96 
L 350.414331 -41.96 
L 351.888532 -41.96 
L 353.362733 -41.96 
L 354.836934 -41.96 
L 356.311136 -41.96 
L 357.785337 -41.96 
L 359.259538 -41.96 
L 360.73374 -41.96 
L 362.207941 -41.96 
L 363.682142 -41.96 
L 365.156343 -41.96 
L 366.630545 -41.96 
L 368.104746 -41.96 
L 369.578947 -41.96 
L 371.053148 -41.96 
L 372.52735 -41.96 
L 374.001551 -41.96 
L 375.475752 -41.96 
L 376.949953 -41.96 
L 378.424155 -41.96 
L 379.898356 -41.96 
L 381.372557 -41.96 
L 382.846759 -41.96 
L 384.32096 -41.96 
L 385.795161 -41.96 
L 387.269362 -41.96 
L 388.743564 -41.96 
L 390.217765 -41.96 
L 391.691966 -41.96 
L 393.166167 -41.96 
L 394.640369 -41.96 
L 396.11457 -41.96 
L 397.588771 -41.96 
L 399.062972 -41.96 
L 400.537174 -41.96 
L 402.011375 -41.96 
L 403.485576 -41.96 
L 404.959777 -41.96 
L 406.433979 -41.96 
L 407.90818 -41.96 
L 409.382381 -41.96 
L 410.856583 -41.96 
L 412.330784 -41.96 
L 413.804985 -41.96 
L 415.279186 -41.96 
L 416.753388 -41.96 
L 418.227589 -41.96 
L 419.70179 -41.96 
L 421.175991 -41.96 
L 422.650193 -41.96 
L 424.124394 -41.96 
L 425.598595 -41.96 
L 427.072796 -41.96 
L 428.546998 -41.96 
L 430.021199 -41.96 
L 431.4954 -41.96 
L 432.969602 -41.96 
L 434.443803 -41.96 
L 435.918004 -41.96 
L 437.392205 -41.96 
L 438.866407 -41.96 
L 440.340608 -41.96 
L 441.814809 -41.96 
L 443.28901 -41.96 
L 444.763212 -41.96 
L 446.237413 -41.96 
L 447.711614 -41.96 
L 449.185815 -41.96 
L 450.660017 -41.96 
L 452.134218 -41.96 
L 453.608419 -41.96 
L 455.082621 -41.96 
L 456.556822 -41.96 
L 458.031023 -41.96 
L 459.505224 -41.96 
L 460.979426 -41.96 
L 462.453627 -41.96 
L 463.927828 -41.96 
L 465.402029 -41.96 
L 466.876231 -41.96 
L 468.350432 -41.96 
L 469.824633 -41.96 
L 471.298834 -41.96 
L 472.773036 -41.96 
L 474.247237 -41.96 
L 475.721438 -41.96 
L 477.195639 -41.96 
L 478.669841 -41.96 
L 480.144042 -41.96 
L 481.618243 -41.96 
L 483.092445 -41.96 
L 484.566646 -41.96 
L 486.040847 -41.96 
L 487.515048 -41.96 
L 488.98925 -41.96 
L 490.463451 -41.96 
L 491.937652 -41.96 
L 493.411853 -41.96 
L 494.886055 -41.96 
L 496.360256 -41.96 
L 497.834457 -41.96 
L 499.308658 -41.96 
L 500.78286 -41.96 
L 502.257061 -41.96 
L 503.731262 -41.96 
L 505.205464 -41.96 
L 506.679665 -41.96 
L 508.153866 -41.96 
L 509.628067 -41.96 
L 511.102269 -41.96 
L 512.57647 -41.96 
L 514.050671 -41.96 
L 515.524872 -41.96 
L 516.999074 -41.96 
L 518.473275 -41.96 
L 519.947476 -41.96 
L 521.421677 -41.96 
L 522.895879 -41.96 
L 524.37008 -41.96 
L 525.844281 -41.96 
L 527.318482 -41.96 
L 528.792684 -41.96 
L 530.266885 -41.96 
L 531.741086 -41.96 
L 533.215288 -41.96 
L 534.689489 -41.96 
L 536.16369 -41.96 
L 537.637891 -41.96 
L 539.112093 -41.96 
L 540.586294 -41.96 
L 540.586294 -44.301555 
L 540.586294 -44.301555 
L 539.112093 -47.257946 
L 537.637891 -53.006936 
L 536.16369 -63.187919 
L 534.689489 -79.552772 
L 533.215288 -103.312575 
L 531.741086 -134.236954 
L 530.266885 -169.864809 
L 528.792684 -205.346638 
L 527.318482 -234.308815 
L 525.844281 -250.661065 
L 524.37008 -250.68381 
L 522.895879 -234.431848 
L 521.421677 -205.749764 
L 519.947476 -170.901987 
L 518.473275 -136.524138 
L 516.999074 -107.851375 
L 515.524872 -87.867499 
L 514.050671 -77.426725 
L 512.57647 -75.93511 
L 511.102269 -82.069543 
L 509.628067 -94.208697 
L 508.153866 -110.542887 
L 506.679665 -129.029915 
L 505.205464 -147.40179 
L 503.731262 -163.33971 
L 502.257061 -174.80463 
L 500.78286 -180.411534 
L 499.308658 -179.705455 
L 497.834457 -173.235199 
L 496.360256 -162.397881 
L 494.886055 -149.10551 
L 493.411853 -135.374046 
L 491.937652 -122.943959 
L 490.463451 -113.015724 
L 488.98925 -106.140333 
L 487.515048 -102.26047 
L 486.040847 -100.863831 
L 484.566646 -101.191189 
L 483.092445 -102.43961 
L 481.618243 -103.914833 
L 480.144042 -105.11153 
L 478.669841 -105.72705 
L 477.195639 -105.632398 
L 475.721438 -104.827295 
L 474.247237 -103.396807 
L 472.773036 -101.474644 
L 471.298834 -99.211615 
L 469.824633 -96.748807 
L 468.350432 -94.198919 
L 466.876231 -91.639924 
L 465.402029 -89.121223 
L 463.927828 -86.676914 
L 462.453627 -84.338059 
L 460.979426 -82.137723 
L 459.505224 -80.107574 
L 458.031023 -78.269725 
L 456.556822 -76.629524 
L 455.082621 -75.173367 
L 453.608419 -73.871763 
L 452.134218 -72.684822 
L 450.660017 -71.567247 
L 449.185815 -70.472485 
L 447.711614 -69.357958 
L 446.237413 -68.192757 
L 444.763212 -66.966154 
L 443.28901 -65.69276 
L 441.814809 -64.410654 
L 440.340608 -63.172056 
L 438.866407 -62.029615 
L 437.392205 -61.022797 
L 435.918004 -60.168064 
L 434.443803 -59.454605 
L 432.969602 -58.846072 
L 431.4954 -58.2883 
L 430.021199 -57.722396 
L 428.546998 -57.100622 
L 427.072796 -56.399697 
L 425.598595 -55.625345 
L 424.124394 -54.80543 
L 422.650193 -53.975562 
L 421.175991 -53.165503 
L 419.70179 -52.393066 
L 418.227589 -51.665975 
L 416.753388 -50.986987 
L 415.279186 -50.357509 
L 413.804985 -49.778488 
L 412.330784 -49.250052 
L 410.856583 -48.771002 
L 409.382381 -48.337898 
L 407.90818 -47.943627 
L 406.433979 -47.576852 
L 404.959777 -47.224054 
L 403.485576 -46.873969 
L 402.011375 -46.521685 
L 400.537174 -46.169325 
L 399.062972 -45.822713 
L 397.588771 -45.486664 
L 396.11457 -45.162622 
L 394.640369 -44.850316 
L 393.166167 -44.551653 
L 391.691966 -44.273074 
L 390.217765 -44.023911 
L 388.743564 -43.81175 
L 387.269362 -43.638504 
L 385.795161 -43.500453 
L 384.32096 -43.392214 
L 382.846759 -43.31137 
L 381.372557 -43.259995 
L 379.898356 -43.241979 
L 378.424155 -43.25837 
L 376.949953 -43.304233 
L 375.475752 -43.369003 
L 374.001551 -43.439614 
L 372.52735 -43.504055 
L 371.053148 -43.553436 
L 369.578947 -43.582146 
L 368.104746 -43.58696 
L 366.630545 -43.56613 
L 365.156343 -43.51901 
L 363.682142 -43.446164 
L 362.207941 -43.349717 
L 360.73374 -43.233679 
L 359.259538 -43.104091 
L 357.785337 -42.968856 
L 356.311136 -42.837181 
L 354.836934 -42.718595 
L 353.362733 -42.621648 
L 351.888532 -42.552473 
L 350.414331 -42.513528 
L 348.940129 -42.502902 
L 347.465928 -42.514506 
L 345.991727 -42.539334 
L 344.517526 -42.567661 
L 343.043324 -42.591615 
L 341.569123 -42.607236 
L 340.094922 -42.615056 
L 338.620721 -42.618778 
L 337.146519 -42.622493 
L 335.672318 -42.627743 
L 334.198117 -42.6319 
L 332.723916 -42.628727 
L 331.249714 -42.610833 
L 329.775513 -42.572829 
L 328.301312 -42.51375 
L 326.82711 -42.437764 
L 325.352909 -42.353032 
L 323.878708 -42.26932 
L 322.404507 -42.195298 
L 320.930305 -42.136475 
L 319.456104 -42.094347 
L 317.981903 -42.066882 
L 316.507702 -42.049987 
L 315.0335 -42.03931 
L 313.559299 -42.031679 
L 312.085098 -42.025694 
L 310.610897 -42.021413 
L 309.136695 -42.019433 
L 307.662494 -42.019915 
L 306.188293 -42.02204 
L 304.714091 -42.024122 
L 303.23989 -42.024248 
L 301.765689 -42.021076 
L 300.291488 -42.014354 
L 298.817286 -42.004947 
L 297.343085 -41.994399 
L 295.868884 -41.984316 
L 294.394683 -41.975867 
L 292.920481 -41.969573 
L 291.44628 -41.965399 
L 289.972079 -41.963003 
L 288.497878 -41.96201 
L 287.023676 -41.962209 
L 285.549475 -41.963645 
L 284.075274 -41.966606 
L 282.601073 -41.971489 
L 281.126871 -41.978583 
L 279.65267 -41.987797 
L 278.178469 -41.998459 
L 276.704267 -42.009331 
L 275.230066 -42.018916 
L 273.755865 -42.025987 
L 272.281664 -42.030085 
L 270.807462 -42.031692 
L 269.333261 -42.031923 
L 267.85906 -42.031865 
L 266.384859 -42.031928 
L 264.910657 -42.0316 
L 263.436456 -42.029756 
L 261.962255 -42.025323 
L 260.488054 -42.017921 
L 259.013852 -42.008113 
L 257.539651 -41.997189 
L 256.06545 -41.986638 
L 254.591248 -41.97764 
L 253.117047 -41.970784 
L 251.642846 -41.966082 
L 250.168645 -41.963163 
L 248.694443 -41.961516 
L 247.220242 -41.96067 
z
" style="stroke: #ff0000; stroke-width: 0.2"/>
    </defs>
    <g clip-path="url(#p216c38637a)">
     <use xlink:href="#m5f700eeeea" x="0" y="288" style="fill: #ff0000; fill-opacity: 0.3; stroke: #ff0000; stroke-width: 0.2"/>
    </g>
   </g>
   <g id="matplotlib.axis_1">
    <g id="xtick_1">
     <g id="line2d_1">
      <path d="M 105.246877 246.04 
L 105.246877 26.88 
" clip-path="url(#p216c38637a)" style="fill: none; stroke: #b0b0b0; stroke-width: 0.8; stroke-linecap: square"/>
     </g>
     <g id="line2d_2">
      <defs>
       <path id="me6d8d85a2e" d="M 0 0 
L 0 3.5 
" style="stroke: #000000; stroke-width: 0.8"/>
      </defs>
      <g>
       <use xlink:href="#me6d8d85a2e" x="105.246877" y="246.04" style="stroke: #000000; stroke-width: 0.8"/>
      </g>
     </g>
     <g id="text_1">
      <!-- 0.0 -->
      <g transform="translate(96.216408 260.691562) scale(0.1 -0.1)">
       <defs>
        <path id="DejaVuSansMono-30" d="M 1509 2344 
Q 1509 2516 1629 2641 
Q 1750 2766 1919 2766 
Q 2094 2766 2219 2641 
Q 2344 2516 2344 2344 
Q 2344 2169 2220 2047 
Q 2097 1925 1919 1925 
Q 1744 1925 1626 2044 
Q 1509 2163 1509 2344 
z
M 1925 4250 
Q 1484 4250 1267 3775 
Q 1050 3300 1050 2328 
Q 1050 1359 1267 884 
Q 1484 409 1925 409 
Q 2369 409 2586 884 
Q 2803 1359 2803 2328 
Q 2803 3300 2586 3775 
Q 2369 4250 1925 4250 
z
M 1925 4750 
Q 2672 4750 3055 4137 
Q 3438 3525 3438 2328 
Q 3438 1134 3055 521 
Q 2672 -91 1925 -91 
Q 1178 -91 797 521 
Q 416 1134 416 2328 
Q 416 3525 797 4137 
Q 1178 4750 1925 4750 
z
" transform="scale(0.015625)"/>
        <path id="DejaVuSansMono-2e" d="M 1528 953 
L 2316 953 
L 2316 0 
L 1528 0 
L 1528 953 
z
" transform="scale(0.015625)"/>
       </defs>
       <use xlink:href="#DejaVuSansMono-30"/>
       <use xlink:href="#DejaVuSansMono-2e" transform="translate(60.205078 0)"/>
       <use xlink:href="#DejaVuSansMono-30" transform="translate(120.410156 0)"/>
      </g>
     </g>
    </g>
    <g id="xtick_2">
     <g id="line2d_3">
      <path d="M 189.219645 246.04 
L 189.219645 26.88 
" clip-path="url(#p216c38637a)" style="fill: none; stroke: #b0b0b0; stroke-width: 0.8; stroke-linecap: square"/>
     </g>
     <g id="line2d_4">
      <g>
       <use xlink:href="#me6d8d85a2e" x="189.219645" y="246.04" style="stroke: #000000; stroke-width: 0.8"/>
      </g>
     </g>
     <g id="text_2">
      <!-- 0.2 -->
      <g transform="translate(180.189176 260.691562) scale(0.1 -0.1)">
       <defs>
        <path id="DejaVuSansMono-32" d="M 1166 531 
L 3309 531 
L 3309 0 
L 475 0 
L 475 531 
Q 1059 1147 1496 1619 
Q 1934 2091 2100 2284 
Q 2413 2666 2522 2902 
Q 2631 3138 2631 3384 
Q 2631 3775 2401 3997 
Q 2172 4219 1772 4219 
Q 1488 4219 1175 4116 
Q 863 4013 513 3803 
L 513 4441 
Q 834 4594 1145 4672 
Q 1456 4750 1759 4750 
Q 2444 4750 2861 4386 
Q 3278 4022 3278 3431 
Q 3278 3131 3139 2831 
Q 3000 2531 2688 2169 
Q 2513 1966 2180 1606 
Q 1847 1247 1166 531 
z
" transform="scale(0.015625)"/>
       </defs>
       <use xlink:href="#DejaVuSansMono-30"/>
       <use xlink:href="#DejaVuSansMono-2e" transform="translate(60.205078 0)"/>
       <use xlink:href="#DejaVuSansMono-32" transform="translate(120.410156 0)"/>
      </g>
     </g>
    </g>
    <g id="xtick_3">
     <g id="line2d_5">
      <path d="M 273.192413 246.04 
L 273.192413 26.88 
" clip-path="url(#p216c38637a)" style="fill: none; stroke: #b0b0b0; stroke-width: 0.8; stroke-linecap: square"/>
     </g>
     <g id="line2d_6">
      <g>
       <use xlink:href="#me6d8d85a2e" x="273.192413" y="246.04" style="stroke: #000000; stroke-width: 0.8"/>
      </g>
     </g>
     <g id="text_3">
      <!-- 0.4 -->
      <g transform="translate(264.161945 260.691562) scale(0.1 -0.1)">
       <defs>
        <path id="DejaVuSansMono-34" d="M 2297 4091 
L 825 1625 
L 2297 1625 
L 2297 4091 
z
M 2194 4666 
L 2925 4666 
L 2925 1625 
L 3547 1625 
L 3547 1113 
L 2925 1113 
L 2925 0 
L 2297 0 
L 2297 1113 
L 319 1113 
L 319 1709 
L 2194 4666 
z
" transform="scale(0.015625)"/>
       </defs>
       <use xlink:href="#DejaVuSansMono-30"/>
       <use xlink:href="#DejaVuSansMono-2e" transform="translate(60.205078 0)"/>
       <use xlink:href="#DejaVuSansMono-34" transform="translate(120.410156 0)"/>
      </g>
     </g>
    </g>
    <g id="xtick_4">
     <g id="line2d_7">
      <path d="M 357.165182 246.04 
L 357.165182 26.88 
" clip-path="url(#p216c38637a)" style="fill: none; stroke: #b0b0b0; stroke-width: 0.8; stroke-linecap: square"/>
     </g>
     <g id="line2d_8">
      <g>
       <use xlink:href="#me6d8d85a2e" x="357.165182" y="246.04" style="stroke: #000000; stroke-width: 0.8"/>
      </g>
     </g>
     <g id="text_4">
      <!-- 0.6 -->
      <g transform="translate(348.134713 260.691562) scale(0.1 -0.1)">
       <defs>
        <path id="DejaVuSansMono-36" d="M 3097 4563 
L 3097 3981 
Q 2900 4097 2678 4158 
Q 2456 4219 2216 4219 
Q 1616 4219 1306 3767 
Q 997 3316 997 2438 
Q 1147 2750 1412 2917 
Q 1678 3084 2022 3084 
Q 2697 3084 3067 2670 
Q 3438 2256 3438 1497 
Q 3438 741 3056 325 
Q 2675 -91 1984 -91 
Q 1172 -91 794 492 
Q 416 1075 416 2328 
Q 416 3509 870 4129 
Q 1325 4750 2188 4750 
Q 2419 4750 2650 4701 
Q 2881 4653 3097 4563 
z
M 1972 2591 
Q 1569 2591 1337 2300 
Q 1106 2009 1106 1497 
Q 1106 984 1337 693 
Q 1569 403 1972 403 
Q 2391 403 2603 679 
Q 2816 956 2816 1497 
Q 2816 2041 2603 2316 
Q 2391 2591 1972 2591 
z
" transform="scale(0.015625)"/>
       </defs>
       <use xlink:href="#DejaVuSansMono-30"/>
       <use xlink:href="#DejaVuSansMono-2e" transform="translate(60.205078 0)"/>
       <use xlink:href="#DejaVuSansMono-36" transform="translate(120.410156 0)"/>
      </g>
     </g>
    </g>
    <g id="xtick_5">
     <g id="line2d_9">
      <path d="M 441.13795 246.04 
L 441.13795 26.88 
" clip-path="url(#p216c38637a)" style="fill: none; stroke: #b0b0b0; stroke-width: 0.8; stroke-linecap: square"/>
     </g>
     <g id="line2d_10">
      <g>
       <use xlink:href="#me6d8d85a2e" x="441.13795" y="246.04" style="stroke: #000000; stroke-width: 0.8"/>
      </g>
     </g>
     <g id="text_5">
      <!-- 0.8 -->
      <g transform="translate(432.107481 260.691562) scale(0.1 -0.1)">
       <defs>
        <path id="DejaVuSansMono-38" d="M 1925 2216 
Q 1503 2216 1273 1980 
Q 1044 1744 1044 1313 
Q 1044 881 1276 642 
Q 1509 403 1925 403 
Q 2350 403 2579 639 
Q 2809 875 2809 1313 
Q 2809 1741 2576 1978 
Q 2344 2216 1925 2216 
z
M 1375 2478 
Q 972 2581 745 2862 
Q 519 3144 519 3541 
Q 519 4097 897 4423 
Q 1275 4750 1925 4750 
Q 2578 4750 2956 4423 
Q 3334 4097 3334 3541 
Q 3334 3144 3107 2862 
Q 2881 2581 2478 2478 
Q 2947 2375 3195 2062 
Q 3444 1750 3444 1253 
Q 3444 622 3041 265 
Q 2638 -91 1925 -91 
Q 1213 -91 811 264 
Q 409 619 409 1247 
Q 409 1747 657 2061 
Q 906 2375 1375 2478 
z
M 1147 3481 
Q 1147 3106 1347 2909 
Q 1547 2713 1925 2713 
Q 2306 2713 2506 2909 
Q 2706 3106 2706 3481 
Q 2706 3863 2507 4063 
Q 2309 4263 1925 4263 
Q 1547 4263 1347 4061 
Q 1147 3859 1147 3481 
z
" transform="scale(0.015625)"/>
       </defs>
       <use xlink:href="#DejaVuSansMono-30"/>
       <use xlink:href="#DejaVuSansMono-2e" transform="translate(60.205078 0)"/>
       <use xlink:href="#DejaVuSansMono-38" transform="translate(120.410156 0)"/>
      </g>
     </g>
    </g>
    <g id="xtick_6">
     <g id="line2d_11">
      <path d="M 525.110719 246.04 
L 525.110719 26.88 
" clip-path="url(#p216c38637a)" style="fill: none; stroke: #b0b0b0; stroke-width: 0.8; stroke-linecap: square"/>
     </g>
     <g id="line2d_12">
      <g>
       <use xlink:href="#me6d8d85a2e" x="525.110719" y="246.04" style="stroke: #000000; stroke-width: 0.8"/>
      </g>
     </g>
     <g id="text_6">
      <!-- 1.0 -->
      <g transform="translate(516.08025 260.691562) scale(0.1 -0.1)">
       <defs>
        <path id="DejaVuSansMono-31" d="M 844 531 
L 1825 531 
L 1825 4097 
L 769 3859 
L 769 4434 
L 1819 4666 
L 2450 4666 
L 2450 531 
L 3419 531 
L 3419 0 
L 844 0 
L 844 531 
z
" transform="scale(0.015625)"/>
       </defs>
       <use xlink:href="#DejaVuSansMono-31"/>
       <use xlink:href="#DejaVuSansMono-2e" transform="translate(60.205078 0)"/>
       <use xlink:href="#DejaVuSansMono-30" transform="translate(120.410156 0)"/>
      </g>
     </g>
    </g>
    <g id="text_7">
     <!-- Normalized Edit Distance -->
     <g transform="translate(232.32625 274.422813) scale(0.1 -0.1)">
      <defs>
       <path id="DejaVuSansMono-4e" d="M 434 4666 
L 1234 4666 
L 2809 825 
L 2809 4666 
L 3419 4666 
L 3419 0 
L 2619 0 
L 1044 3841 
L 1044 0 
L 434 0 
L 434 4666 
z
" transform="scale(0.015625)"/>
       <path id="DejaVuSansMono-6f" d="M 1925 3097 
Q 1488 3097 1263 2756 
Q 1038 2416 1038 1747 
Q 1038 1081 1263 739 
Q 1488 397 1925 397 
Q 2366 397 2591 739 
Q 2816 1081 2816 1747 
Q 2816 2416 2591 2756 
Q 2366 3097 1925 3097 
z
M 1925 3584 
Q 2653 3584 3039 3112 
Q 3425 2641 3425 1747 
Q 3425 850 3040 379 
Q 2656 -91 1925 -91 
Q 1197 -91 812 379 
Q 428 850 428 1747 
Q 428 2641 812 3112 
Q 1197 3584 1925 3584 
z
" transform="scale(0.015625)"/>
       <path id="DejaVuSansMono-72" d="M 3609 2778 
Q 3425 2922 3234 2987 
Q 3044 3053 2816 3053 
Q 2278 3053 1993 2715 
Q 1709 2378 1709 1741 
L 1709 0 
L 1131 0 
L 1131 3500 
L 1709 3500 
L 1709 2816 
Q 1853 3188 2151 3386 
Q 2450 3584 2859 3584 
Q 3072 3584 3256 3531 
Q 3441 3478 3609 3366 
L 3609 2778 
z
" transform="scale(0.015625)"/>
       <path id="DejaVuSansMono-6d" d="M 2113 3144 
Q 2219 3369 2383 3476 
Q 2547 3584 2778 3584 
Q 3200 3584 3373 3257 
Q 3547 2931 3547 2028 
L 3547 0 
L 3022 0 
L 3022 2003 
Q 3022 2744 2939 2923 
Q 2856 3103 2638 3103 
Q 2388 3103 2295 2911 
Q 2203 2719 2203 2003 
L 2203 0 
L 1678 0 
L 1678 2003 
Q 1678 2753 1589 2928 
Q 1500 3103 1269 3103 
Q 1041 3103 952 2911 
Q 863 2719 863 2003 
L 863 0 
L 341 0 
L 341 3500 
L 863 3500 
L 863 3200 
Q 966 3388 1120 3486 
Q 1275 3584 1472 3584 
Q 1709 3584 1867 3475 
Q 2025 3366 2113 3144 
z
" transform="scale(0.015625)"/>
       <path id="DejaVuSansMono-61" d="M 2194 1759 
L 2003 1759 
Q 1500 1759 1245 1582 
Q 991 1406 991 1056 
Q 991 741 1181 566 
Q 1372 391 1709 391 
Q 2184 391 2456 720 
Q 2728 1050 2731 1631 
L 2731 1759 
L 2194 1759 
z
M 3309 1997 
L 3309 0 
L 2731 0 
L 2731 519 
Q 2547 206 2267 57 
Q 1988 -91 1588 -91 
Q 1053 -91 734 211 
Q 416 513 416 1019 
Q 416 1603 808 1906 
Q 1200 2209 1959 2209 
L 2731 2209 
L 2731 2300 
Q 2728 2719 2518 2908 
Q 2309 3097 1850 3097 
Q 1556 3097 1256 3012 
Q 956 2928 672 2766 
L 672 3341 
Q 991 3463 1283 3523 
Q 1575 3584 1850 3584 
Q 2284 3584 2592 3456 
Q 2900 3328 3091 3072 
Q 3209 2916 3259 2686 
Q 3309 2456 3309 1997 
z
" transform="scale(0.015625)"/>
       <path id="DejaVuSansMono-6c" d="M 1997 1269 
Q 1997 881 2139 684 
Q 2281 488 2559 488 
L 3231 488 
L 3231 0 
L 2503 0 
Q 1988 0 1705 331 
Q 1422 663 1422 1269 
L 1422 4447 
L 500 4447 
L 500 4897 
L 1997 4897 
L 1997 1269 
z
" transform="scale(0.015625)"/>
       <path id="DejaVuSansMono-69" d="M 800 3500 
L 2272 3500 
L 2272 447 
L 3413 447 
L 3413 0 
L 556 0 
L 556 447 
L 1697 447 
L 1697 3053 
L 800 3053 
L 800 3500 
z
M 1697 4863 
L 2272 4863 
L 2272 4134 
L 1697 4134 
L 1697 4863 
z
" transform="scale(0.015625)"/>
       <path id="DejaVuSansMono-7a" d="M 709 3506 
L 3250 3506 
L 3250 2981 
L 1241 469 
L 3250 469 
L 3250 0 
L 634 0 
L 634 531 
L 2644 3047 
L 709 3047 
L 709 3506 
z
" transform="scale(0.015625)"/>
       <path id="DejaVuSansMono-65" d="M 3475 1894 
L 3475 1613 
L 984 1613 
L 984 1594 
Q 984 1022 1282 709 
Q 1581 397 2125 397 
Q 2400 397 2700 484 
Q 3000 572 3341 750 
L 3341 178 
Q 3013 44 2708 -23 
Q 2403 -91 2119 -91 
Q 1303 -91 843 398 
Q 384 888 384 1747 
Q 384 2584 834 3084 
Q 1284 3584 2034 3584 
Q 2703 3584 3089 3131 
Q 3475 2678 3475 1894 
z
M 2900 2063 
Q 2888 2569 2661 2833 
Q 2434 3097 2009 3097 
Q 1594 3097 1325 2822 
Q 1056 2547 1006 2059 
L 2900 2063 
z
" transform="scale(0.015625)"/>
       <path id="DejaVuSansMono-64" d="M 2681 3053 
L 2681 4863 
L 3256 4863 
L 3256 0 
L 2681 0 
L 2681 441 
Q 2538 181 2298 45 
Q 2059 -91 1747 -91 
Q 1113 -91 748 401 
Q 384 894 384 1759 
Q 384 2613 750 3098 
Q 1116 3584 1747 3584 
Q 2063 3584 2303 3448 
Q 2544 3313 2681 3053 
z
M 991 1747 
Q 991 1078 1203 737 
Q 1416 397 1831 397 
Q 2247 397 2464 740 
Q 2681 1084 2681 1747 
Q 2681 2413 2464 2755 
Q 2247 3097 1831 3097 
Q 1416 3097 1203 2756 
Q 991 2416 991 1747 
z
" transform="scale(0.015625)"/>
       <path id="DejaVuSansMono-20" transform="scale(0.015625)"/>
       <path id="DejaVuSansMono-45" d="M 616 4666 
L 3384 4666 
L 3384 4134 
L 1247 4134 
L 1247 2753 
L 3291 2753 
L 3291 2222 
L 1247 2222 
L 1247 531 
L 3444 531 
L 3444 0 
L 616 0 
L 616 4666 
z
" transform="scale(0.015625)"/>
       <path id="DejaVuSansMono-74" d="M 1919 4494 
L 1919 3500 
L 3225 3500 
L 3225 3053 
L 1919 3053 
L 1919 1153 
Q 1919 766 2066 612 
Q 2213 459 2578 459 
L 3225 459 
L 3225 0 
L 2522 0 
Q 1875 0 1609 259 
Q 1344 519 1344 1153 
L 1344 3053 
L 409 3053 
L 409 3500 
L 1344 3500 
L 1344 4494 
L 1919 4494 
z
" transform="scale(0.015625)"/>
       <path id="DejaVuSansMono-44" d="M 1363 519 
Q 2159 519 2475 911 
Q 2791 1303 2791 2328 
Q 2791 3363 2477 3755 
Q 2163 4147 1363 4147 
L 1063 4147 
L 1063 519 
L 1363 519 
z
M 1375 4666 
Q 2444 4666 2950 4097 
Q 3456 3528 3456 2328 
Q 3456 1134 2950 567 
Q 2444 0 1375 0 
L 428 0 
L 428 4666 
L 1375 4666 
z
" transform="scale(0.015625)"/>
       <path id="DejaVuSansMono-73" d="M 3041 3378 
L 3041 2816 
Q 2794 2959 2544 3031 
Q 2294 3103 2034 3103 
Q 1644 3103 1451 2976 
Q 1259 2850 1259 2591 
Q 1259 2356 1403 2240 
Q 1547 2125 2119 2016 
L 2350 1972 
Q 2778 1891 2998 1647 
Q 3219 1403 3219 1013 
Q 3219 494 2850 201 
Q 2481 -91 1825 -91 
Q 1566 -91 1281 -36 
Q 997 19 666 128 
L 666 722 
Q 988 556 1281 473 
Q 1575 391 1838 391 
Q 2219 391 2428 545 
Q 2638 700 2638 978 
Q 2638 1378 1872 1531 
L 1847 1538 
L 1631 1581 
Q 1134 1678 906 1908 
Q 678 2138 678 2534 
Q 678 3038 1018 3311 
Q 1359 3584 1991 3584 
Q 2272 3584 2531 3532 
Q 2791 3481 3041 3378 
z
" transform="scale(0.015625)"/>
       <path id="DejaVuSansMono-6e" d="M 3284 2169 
L 3284 0 
L 2706 0 
L 2706 2169 
Q 2706 2641 2540 2862 
Q 2375 3084 2022 3084 
Q 1619 3084 1401 2798 
Q 1184 2513 1184 1978 
L 1184 0 
L 609 0 
L 609 3500 
L 1184 3500 
L 1184 2975 
Q 1338 3275 1600 3429 
Q 1863 3584 2222 3584 
Q 2756 3584 3020 3232 
Q 3284 2881 3284 2169 
z
" transform="scale(0.015625)"/>
       <path id="DejaVuSansMono-63" d="M 3316 178 
Q 3084 44 2839 -23 
Q 2594 -91 2338 -91 
Q 1525 -91 1067 396 
Q 609 884 609 1747 
Q 609 2609 1067 3096 
Q 1525 3584 2338 3584 
Q 2591 3584 2831 3518 
Q 3072 3453 3316 3316 
L 3316 2713 
Q 3088 2916 2858 3006 
Q 2628 3097 2338 3097 
Q 1797 3097 1506 2747 
Q 1216 2397 1216 1747 
Q 1216 1100 1508 748 
Q 1800 397 2338 397 
Q 2638 397 2875 489 
Q 3113 581 3316 775 
L 3316 178 
z
" transform="scale(0.015625)"/>
      </defs>
      <use xlink:href="#DejaVuSansMono-4e"/>
      <use xlink:href="#DejaVuSansMono-6f" transform="translate(60.205078 0)"/>
      <use xlink:href="#DejaVuSansMono-72" transform="translate(120.410156 0)"/>
      <use xlink:href="#DejaVuSansMono-6d" transform="translate(180.615234 0)"/>
      <use xlink:href="#DejaVuSansMono-61" transform="translate(240.820312 0)"/>
      <use xlink:href="#DejaVuSansMono-6c" transform="translate(301.025391 0)"/>
      <use xlink:href="#DejaVuSansMono-69" transform="translate(361.230469 0)"/>
      <use xlink:href="#DejaVuSansMono-7a" transform="translate(421.435547 0)"/>
      <use xlink:href="#DejaVuSansMono-65" transform="translate(481.640625 0)"/>
      <use xlink:href="#DejaVuSansMono-64" transform="translate(541.845703 0)"/>
      <use xlink:href="#DejaVuSansMono-20" transform="translate(602.050781 0)"/>
      <use xlink:href="#DejaVuSansMono-45" transform="translate(662.255859 0)"/>
      <use xlink:href="#DejaVuSansMono-64" transform="translate(722.460938 0)"/>
      <use xlink:href="#DejaVuSansMono-69" transform="translate(782.666016 0)"/>
      <use xlink:href="#DejaVuSansMono-74" transform="translate(842.871094 0)"/>
      <use xlink:href="#DejaVuSansMono-20" transform="translate(903.076172 0)"/>
      <use xlink:href="#DejaVuSansMono-44" transform="translate(963.28125 0)"/>
      <use xlink:href="#DejaVuSansMono-69" transform="translate(1023.486328 0)"/>
      <use xlink:href="#DejaVuSansMono-73" transform="translate(1083.691406 0)"/>
      <use xlink:href="#DejaVuSansMono-74" transform="translate(1143.896484 0)"/>
      <use xlink:href="#DejaVuSansMono-61" transform="translate(1204.101562 0)"/>
      <use xlink:href="#DejaVuSansMono-6e" transform="translate(1264.306641 0)"/>
      <use xlink:href="#DejaVuSansMono-63" transform="translate(1324.511719 0)"/>
      <use xlink:href="#DejaVuSansMono-65" transform="translate(1384.716797 0)"/>
     </g>
    </g>
   </g>
   <g id="matplotlib.axis_2">
    <g id="ytick_1">
     <g id="line2d_13">
      <path d="M 43.94 246.04 
L 565.2 246.04 
" clip-path="url(#p216c38637a)" style="fill: none; stroke: #b0b0b0; stroke-width: 0.8; stroke-linecap: square"/>
     </g>
     <g id="line2d_14">
      <defs>
       <path id="m9135e929e9" d="M 0 0 
L -3.5 0 
" style="stroke: #000000; stroke-width: 0.8"/>
      </defs>
      <g>
       <use xlink:href="#m9135e929e9" x="43.94" y="246.04" style="stroke: #000000; stroke-width: 0.8"/>
      </g>
     </g>
     <g id="text_8">
      <!-- 0 -->
      <g transform="translate(30.919688 249.865781) scale(0.1 -0.1)">
       <use xlink:href="#DejaVuSansMono-30"/>
      </g>
     </g>
    </g>
    <g id="ytick_2">
     <g id="line2d_15">
      <path d="M 43.94 208.904002 
L 565.2 208.904002 
" clip-path="url(#p216c38637a)" style="fill: none; stroke: #b0b0b0; stroke-width: 0.8; stroke-linecap: square"/>
     </g>
     <g id="line2d_16">
      <g>
       <use xlink:href="#m9135e929e9" x="43.94" y="208.904002" style="stroke: #000000; stroke-width: 0.8"/>
      </g>
     </g>
     <g id="text_9">
      <!-- 2 -->
      <g transform="translate(30.919688 212.729783) scale(0.1 -0.1)">
       <use xlink:href="#DejaVuSansMono-32"/>
      </g>
     </g>
    </g>
    <g id="ytick_3">
     <g id="line2d_17">
      <path d="M 43.94 171.768003 
L 565.2 171.768003 
" clip-path="url(#p216c38637a)" style="fill: none; stroke: #b0b0b0; stroke-width: 0.8; stroke-linecap: square"/>
     </g>
     <g id="line2d_18">
      <g>
       <use xlink:href="#m9135e929e9" x="43.94" y="171.768003" style="stroke: #000000; stroke-width: 0.8"/>
      </g>
     </g>
     <g id="text_10">
      <!-- 4 -->
      <g transform="translate(30.919688 175.593784) scale(0.1 -0.1)">
       <use xlink:href="#DejaVuSansMono-34"/>
      </g>
     </g>
    </g>
    <g id="ytick_4">
     <g id="line2d_19">
      <path d="M 43.94 134.632005 
L 565.2 134.632005 
" clip-path="url(#p216c38637a)" style="fill: none; stroke: #b0b0b0; stroke-width: 0.8; stroke-linecap: square"/>
     </g>
     <g id="line2d_20">
      <g>
       <use xlink:href="#m9135e929e9" x="43.94" y="134.632005" style="stroke: #000000; stroke-width: 0.8"/>
      </g>
     </g>
     <g id="text_11">
      <!-- 6 -->
      <g transform="translate(30.919688 138.457786) scale(0.1 -0.1)">
       <use xlink:href="#DejaVuSansMono-36"/>
      </g>
     </g>
    </g>
    <g id="ytick_5">
     <g id="line2d_21">
      <path d="M 43.94 97.496006 
L 565.2 97.496006 
" clip-path="url(#p216c38637a)" style="fill: none; stroke: #b0b0b0; stroke-width: 0.8; stroke-linecap: square"/>
     </g>
     <g id="line2d_22">
      <g>
       <use xlink:href="#m9135e929e9" x="43.94" y="97.496006" style="stroke: #000000; stroke-width: 0.8"/>
      </g>
     </g>
     <g id="text_12">
      <!-- 8 -->
      <g transform="translate(30.919688 101.321788) scale(0.1 -0.1)">
       <use xlink:href="#DejaVuSansMono-38"/>
      </g>
     </g>
    </g>
    <g id="ytick_6">
     <g id="line2d_23">
      <path d="M 43.94 60.360008 
L 565.2 60.360008 
" clip-path="url(#p216c38637a)" style="fill: none; stroke: #b0b0b0; stroke-width: 0.8; stroke-linecap: square"/>
     </g>
     <g id="line2d_24">
      <g>
       <use xlink:href="#m9135e929e9" x="43.94" y="60.360008" style="stroke: #000000; stroke-width: 0.8"/>
      </g>
     </g>
     <g id="text_13">
      <!-- 10 -->
      <g transform="translate(24.899375 64.185789) scale(0.1 -0.1)">
       <use xlink:href="#DejaVuSansMono-31"/>
       <use xlink:href="#DejaVuSansMono-30" transform="translate(60.205078 0)"/>
      </g>
     </g>
    </g>
    <g id="text_14">
     <!-- Density -->
     <g transform="translate(18.819688 157.531094) rotate(-90) scale(0.1 -0.1)">
      <defs>
       <path id="DejaVuSansMono-79" d="M 2681 1125 
Q 2538 759 2316 163 
Q 2006 -663 1900 -844 
Q 1756 -1088 1540 -1209 
Q 1325 -1331 1038 -1331 
L 575 -1331 
L 575 -850 
L 916 -850 
Q 1169 -850 1312 -703 
Q 1456 -556 1678 56 
L 325 3500 
L 934 3500 
L 1972 763 
L 2994 3500 
L 3603 3500 
L 2681 1125 
z
" transform="scale(0.015625)"/>
      </defs>
      <use xlink:href="#DejaVuSansMono-44"/>
      <use xlink:href="#DejaVuSansMono-65" transform="translate(60.205078 0)"/>
      <use xlink:href="#DejaVuSansMono-6e" transform="translate(120.410156 0)"/>
      <use xlink:href="#DejaVuSansMono-73" transform="translate(180.615234 0)"/>
      <use xlink:href="#DejaVuSansMono-69" transform="translate(240.820312 0)"/>
      <use xlink:href="#DejaVuSansMono-74" transform="translate(301.025391 0)"/>
      <use xlink:href="#DejaVuSansMono-79" transform="translate(361.230469 0)"/>
     </g>
    </g>
   </g>
   <g id="patch_3">
    <path d="M 43.94 246.04 
L 43.94 26.88 
" style="fill: none; stroke: #000000; stroke-width: 0.8; stroke-linejoin: miter; stroke-linecap: square"/>
   </g>
   <g id="patch_4">
    <path d="M 565.2 246.04 
L 565.2 26.88 
" style="fill: none; stroke: #000000; stroke-width: 0.8; stroke-linejoin: miter; stroke-linecap: square"/>
   </g>
   <g id="patch_5">
    <path d="M 43.94 246.04 
L 565.2 246.04 
" style="fill: none; stroke: #000000; stroke-width: 0.8; stroke-linejoin: miter; stroke-linecap: square"/>
   </g>
   <g id="patch_6">
    <path d="M 43.94 26.88 
L 565.2 26.88 
" style="fill: none; stroke: #000000; stroke-width: 0.8; stroke-linejoin: miter; stroke-linecap: square"/>
   </g>
   <g id="text_15">
    <!-- Estimated Probability Density of Normalized Edit Distances -->
    <g transform="translate(95.063125 20.88) scale(0.12 -0.12)">
     <defs>
      <path id="DejaVuSansMono-50" d="M 1247 4147 
L 1247 2394 
L 1978 2394 
Q 2416 2394 2661 2625 
Q 2906 2856 2906 3272 
Q 2906 3688 2662 3917 
Q 2419 4147 1978 4147 
L 1247 4147 
z
M 616 4666 
L 1978 4666 
Q 2759 4666 3162 4311 
Q 3566 3956 3566 3272 
Q 3566 2581 3164 2228 
Q 2763 1875 1978 1875 
L 1247 1875 
L 1247 0 
L 616 0 
L 616 4666 
z
" transform="scale(0.015625)"/>
      <path id="DejaVuSansMono-62" d="M 2869 1747 
Q 2869 2416 2656 2756 
Q 2444 3097 2028 3097 
Q 1609 3097 1393 2755 
Q 1178 2413 1178 1747 
Q 1178 1084 1393 740 
Q 1609 397 2028 397 
Q 2444 397 2656 737 
Q 2869 1078 2869 1747 
z
M 1178 3053 
Q 1316 3309 1558 3446 
Q 1800 3584 2119 3584 
Q 2750 3584 3112 3098 
Q 3475 2613 3475 1759 
Q 3475 894 3111 401 
Q 2747 -91 2113 -91 
Q 1800 -91 1561 45 
Q 1322 181 1178 441 
L 1178 0 
L 603 0 
L 603 4863 
L 1178 4863 
L 1178 3053 
z
" transform="scale(0.015625)"/>
      <path id="DejaVuSansMono-66" d="M 3322 4863 
L 3322 4384 
L 2669 4384 
Q 2359 4384 2239 4257 
Q 2119 4131 2119 3809 
L 2119 3500 
L 3322 3500 
L 3322 3053 
L 2119 3053 
L 2119 0 
L 1544 0 
L 1544 3053 
L 609 3053 
L 609 3500 
L 1544 3500 
L 1544 3744 
Q 1544 4319 1808 4591 
Q 2072 4863 2631 4863 
L 3322 4863 
z
" transform="scale(0.015625)"/>
     </defs>
     <use xlink:href="#DejaVuSansMono-45"/>
     <use xlink:href="#DejaVuSansMono-73" transform="translate(60.205078 0)"/>
     <use xlink:href="#DejaVuSansMono-74" transform="translate(120.410156 0)"/>
     <use xlink:href="#DejaVuSansMono-69" transform="translate(180.615234 0)"/>
     <use xlink:href="#DejaVuSansMono-6d" transform="translate(240.820312 0)"/>
     <use xlink:href="#DejaVuSansMono-61" transform="translate(301.025391 0)"/>
     <use xlink:href="#DejaVuSansMono-74" transform="translate(361.230469 0)"/>
     <use xlink:href="#DejaVuSansMono-65" transform="translate(421.435547 0)"/>
     <use xlink:href="#DejaVuSansMono-64" transform="translate(481.640625 0)"/>
     <use xlink:href="#DejaVuSansMono-20" transform="translate(541.845703 0)"/>
     <use xlink:href="#DejaVuSansMono-50" transform="translate(602.050781 0)"/>
     <use xlink:href="#DejaVuSansMono-72" transform="translate(662.255859 0)"/>
     <use xlink:href="#DejaVuSansMono-6f" transform="translate(722.460938 0)"/>
     <use xlink:href="#DejaVuSansMono-62" transform="translate(782.666016 0)"/>
     <use xlink:href="#DejaVuSansMono-61" transform="translate(842.871094 0)"/>
     <use xlink:href="#DejaVuSansMono-62" transform="translate(903.076172 0)"/>
     <use xlink:href="#DejaVuSansMono-69" transform="translate(963.28125 0)"/>
     <use xlink:href="#DejaVuSansMono-6c" transform="translate(1023.486328 0)"/>
     <use xlink:href="#DejaVuSansMono-69" transform="translate(1083.691406 0)"/>
     <use xlink:href="#DejaVuSansMono-74" transform="translate(1143.896484 0)"/>
     <use xlink:href="#DejaVuSansMono-79" transform="translate(1204.101562 0)"/>
     <use xlink:href="#DejaVuSansMono-20" transform="translate(1264.306641 0)"/>
     <use xlink:href="#DejaVuSansMono-44" transform="translate(1324.511719 0)"/>
     <use xlink:href="#DejaVuSansMono-65" transform="translate(1384.716797 0)"/>
     <use xlink:href="#DejaVuSansMono-6e" transform="translate(1444.921875 0)"/>
     <use xlink:href="#DejaVuSansMono-73" transform="translate(1505.126953 0)"/>
     <use xlink:href="#DejaVuSansMono-69" transform="translate(1565.332031 0)"/>
     <use xlink:href="#DejaVuSansMono-74" transform="translate(1625.537109 0)"/>
     <use xlink:href="#DejaVuSansMono-79" transform="translate(1685.742188 0)"/>
     <use xlink:href="#DejaVuSansMono-20" transform="translate(1745.947266 0)"/>
     <use xlink:href="#DejaVuSansMono-6f" transform="translate(1806.152344 0)"/>
     <use xlink:href="#DejaVuSansMono-66" transform="translate(1866.357422 0)"/>
     <use xlink:href="#DejaVuSansMono-20" transform="translate(1926.5625 0)"/>
     <use xlink:href="#DejaVuSansMono-4e" transform="translate(1986.767578 0)"/>
     <use xlink:href="#DejaVuSansMono-6f" transform="translate(2046.972656 0)"/>
     <use xlink:href="#DejaVuSansMono-72" transform="translate(2107.177734 0)"/>
     <use xlink:href="#DejaVuSansMono-6d" transform="translate(2167.382812 0)"/>
     <use xlink:href="#DejaVuSansMono-61" transform="translate(2227.587891 0)"/>
     <use xlink:href="#DejaVuSansMono-6c" transform="translate(2287.792969 0)"/>
     <use xlink:href="#DejaVuSansMono-69" transform="translate(2347.998047 0)"/>
     <use xlink:href="#DejaVuSansMono-7a" transform="translate(2408.203125 0)"/>
     <use xlink:href="#DejaVuSansMono-65" transform="translate(2468.408203 0)"/>
     <use xlink:href="#DejaVuSansMono-64" transform="translate(2528.613281 0)"/>
     <use xlink:href="#DejaVuSansMono-20" transform="translate(2588.818359 0)"/>
     <use xlink:href="#DejaVuSansMono-45" transform="translate(2649.023438 0)"/>
     <use xlink:href="#DejaVuSansMono-64" transform="translate(2709.228516 0)"/>
     <use xlink:href="#DejaVuSansMono-69" transform="translate(2769.433594 0)"/>
     <use xlink:href="#DejaVuSansMono-74" transform="translate(2829.638672 0)"/>
     <use xlink:href="#DejaVuSansMono-20" transform="translate(2889.84375 0)"/>
     <use xlink:href="#DejaVuSansMono-44" transform="translate(2950.048828 0)"/>
     <use xlink:href="#DejaVuSansMono-69" transform="translate(3010.253906 0)"/>
     <use xlink:href="#DejaVuSansMono-73" transform="translate(3070.458984 0)"/>
     <use xlink:href="#DejaVuSansMono-74" transform="translate(3130.664062 0)"/>
     <use xlink:href="#DejaVuSansMono-61" transform="translate(3190.869141 0)"/>
     <use xlink:href="#DejaVuSansMono-6e" transform="translate(3251.074219 0)"/>
     <use xlink:href="#DejaVuSansMono-63" transform="translate(3311.279297 0)"/>
     <use xlink:href="#DejaVuSansMono-65" transform="translate(3371.484375 0)"/>
     <use xlink:href="#DejaVuSansMono-73" transform="translate(3431.689453 0)"/>
    </g>
   </g>
   <g id="legend_1">
    <g id="patch_7">
     <path d="M 50.94 108.53625 
L 109.122813 108.53625 
Q 111.122813 108.53625 111.122813 106.53625 
L 111.122813 33.88 
Q 111.122813 31.88 109.122813 31.88 
L 50.94 31.88 
Q 48.94 31.88 48.94 33.88 
L 48.94 106.53625 
Q 48.94 108.53625 50.94 108.53625 
z
" style="fill: #ffffff; opacity: 0.8; stroke: #cccccc; stroke-linejoin: miter"/>
    </g>
    <g id="text_16">
     <!-- Pair Type -->
     <g transform="translate(52.94 43.531563) scale(0.1 -0.1)">
      <defs>
       <path id="DejaVuSansMono-54" d="M 147 4666 
L 3706 4666 
L 3706 4134 
L 2247 4134 
L 2247 0 
L 1613 0 
L 1613 4134 
L 147 4134 
L 147 4666 
z
" transform="scale(0.015625)"/>
       <path id="DejaVuSansMono-70" d="M 1172 441 
L 1172 -1331 
L 594 -1331 
L 594 3500 
L 1172 3500 
L 1172 3053 
Q 1316 3313 1555 3448 
Q 1794 3584 2106 3584 
Q 2741 3584 3102 3093 
Q 3463 2603 3463 1734 
Q 3463 881 3100 395 
Q 2738 -91 2106 -91 
Q 1788 -91 1548 45 
Q 1309 181 1172 441 
z
M 2859 1747 
Q 2859 2416 2648 2756 
Q 2438 3097 2022 3097 
Q 1603 3097 1387 2755 
Q 1172 2413 1172 1747 
Q 1172 1084 1387 740 
Q 1603 397 2022 397 
Q 2438 397 2648 737 
Q 2859 1078 2859 1747 
z
" transform="scale(0.015625)"/>
      </defs>
      <use xlink:href="#DejaVuSansMono-50"/>
      <use xlink:href="#DejaVuSansMono-61" transform="translate(60.205078 0)"/>
      <use xlink:href="#DejaVuSansMono-69" transform="translate(120.410156 0)"/>
      <use xlink:href="#DejaVuSansMono-72" transform="translate(180.615234 0)"/>
      <use xlink:href="#DejaVuSansMono-20" transform="translate(240.820312 0)"/>
      <use xlink:href="#DejaVuSansMono-54" transform="translate(301.025391 0)"/>
      <use xlink:href="#DejaVuSansMono-79" transform="translate(361.230469 0)"/>
      <use xlink:href="#DejaVuSansMono-70" transform="translate(421.435547 0)"/>
      <use xlink:href="#DejaVuSansMono-65" transform="translate(481.640625 0)"/>
     </g>
    </g>
    <g id="patch_8">
     <path d="M 53.990781 58.262813 
L 73.990781 58.262813 
L 73.990781 51.262813 
L 53.990781 51.262813 
z
" style="fill: #008000; fill-opacity: 0.3; stroke: #008000; stroke-width: 0.2; stroke-linejoin: miter"/>
    </g>
    <g id="text_17">
     <!-- SWSP -->
     <g transform="translate(81.990781 58.262813) scale(0.1 -0.1)">
      <defs>
       <path id="DejaVuSansMono-53" d="M 3163 4506 
L 3163 3866 
Q 2875 4050 2586 4144 
Q 2297 4238 2003 4238 
Q 1556 4238 1297 4030 
Q 1038 3822 1038 3469 
Q 1038 3159 1208 2996 
Q 1378 2834 1844 2725 
L 2175 2650 
Q 2831 2497 3131 2169 
Q 3431 1841 3431 1275 
Q 3431 609 3018 259 
Q 2606 -91 1819 -91 
Q 1491 -91 1159 -20 
Q 828 50 494 191 
L 494 863 
Q 853 634 1173 528 
Q 1494 422 1819 422 
Q 2297 422 2562 636 
Q 2828 850 2828 1234 
Q 2828 1584 2645 1768 
Q 2463 1953 2009 2053 
L 1672 2131 
Q 1022 2278 728 2575 
Q 434 2872 434 3372 
Q 434 3997 854 4373 
Q 1275 4750 1972 4750 
Q 2241 4750 2537 4689 
Q 2834 4628 3163 4506 
z
" transform="scale(0.015625)"/>
       <path id="DejaVuSansMono-57" d="M 0 4666 
L 616 4666 
L 1063 878 
L 1594 3384 
L 2253 3384 
L 2791 872 
L 3238 4666 
L 3853 4666 
L 3156 0 
L 2559 0 
L 1925 2772 
L 1294 0 
L 697 0 
L 0 4666 
z
" transform="scale(0.015625)"/>
      </defs>
      <use xlink:href="#DejaVuSansMono-53"/>
      <use xlink:href="#DejaVuSansMono-57" transform="translate(60.205078 0)"/>
      <use xlink:href="#DejaVuSansMono-53" transform="translate(120.410156 0)"/>
      <use xlink:href="#DejaVuSansMono-50" transform="translate(180.615234 0)"/>
     </g>
    </g>
    <g id="patch_9">
     <path d="M 53.990781 72.994063 
L 73.990781 72.994063 
L 73.990781 65.994063 
L 53.990781 65.994063 
z
" style="fill: #0000ff; fill-opacity: 0.3; stroke: #0000ff; stroke-width: 0.2; stroke-linejoin: miter"/>
    </g>
    <g id="text_18">
     <!-- SWDP -->
     <g transform="translate(81.990781 72.994063) scale(0.1 -0.1)">
      <use xlink:href="#DejaVuSansMono-53"/>
      <use xlink:href="#DejaVuSansMono-57" transform="translate(60.205078 0)"/>
      <use xlink:href="#DejaVuSansMono-44" transform="translate(120.410156 0)"/>
      <use xlink:href="#DejaVuSansMono-50" transform="translate(180.615234 0)"/>
     </g>
    </g>
    <g id="patch_10">
     <path d="M 53.990781 87.725313 
L 73.990781 87.725313 
L 73.990781 80.725313 
L 53.990781 80.725313 
z
" style="fill: #ffff00; fill-opacity: 0.3; stroke: #ffff00; stroke-width: 0.2; stroke-linejoin: miter"/>
    </g>
    <g id="text_19">
     <!-- DWSP -->
     <g transform="translate(81.990781 87.725313) scale(0.1 -0.1)">
      <use xlink:href="#DejaVuSansMono-44"/>
      <use xlink:href="#DejaVuSansMono-57" transform="translate(60.205078 0)"/>
      <use xlink:href="#DejaVuSansMono-53" transform="translate(120.410156 0)"/>
      <use xlink:href="#DejaVuSansMono-50" transform="translate(180.615234 0)"/>
     </g>
    </g>
    <g id="patch_11">
     <path d="M 53.990781 102.456563 
L 73.990781 102.456563 
L 73.990781 95.456563 
L 53.990781 95.456563 
z
" style="fill: #ff0000; fill-opacity: 0.3; stroke: #ff0000; stroke-width: 0.2; stroke-linejoin: miter"/>
    </g>
    <g id="text_20">
     <!-- DWDP -->
     <g transform="translate(81.990781 102.456563) scale(0.1 -0.1)">
      <use xlink:href="#DejaVuSansMono-44"/>
      <use xlink:href="#DejaVuSansMono-57" transform="translate(60.205078 0)"/>
      <use xlink:href="#DejaVuSansMono-44" transform="translate(120.410156 0)"/>
      <use xlink:href="#DejaVuSansMono-50" transform="translate(180.615234 0)"/>
     </g>
    </g>
   </g>
  </g>
 </g>
 <defs>
  <clipPath id="p216c38637a">
   <rect x="43.94" y="26.88" width="521.26" height="219.16"/>
  </clipPath>
 </defs>
</svg>
