<?xml version="1.0" encoding="utf-8" standalone="no"?>
<!DOCTYPE svg PUBLIC "-//W3C//DTD SVG 1.1//EN"
  "http://www.w3.org/Graphics/SVG/1.1/DTD/svg11.dtd">
<svg xmlns:xlink="http://www.w3.org/1999/xlink" width="576pt" height="576pt" viewBox="0 0 576 576" xmlns="http://www.w3.org/2000/svg" version="1.1">
 <metadata>
  <rdf:RDF xmlns:dc="http://purl.org/dc/elements/1.1/" xmlns:cc="http://creativecommons.org/ns#" xmlns:rdf="http://www.w3.org/1999/02/22-rdf-syntax-ns#">
   <cc:Work>
    <dc:type rdf:resource="http://purl.org/dc/dcmitype/StillImage"/>
    <dc:date>2025-07-07T11:13:00.390122</dc:date>
    <dc:format>image/svg+xml</dc:format>
    <dc:creator>
     <cc:Agent>
      <dc:title>Matplotlib v3.10.3, https://matplotlib.org/</dc:title>
     </cc:Agent>
    </dc:creator>
   </cc:Work>
  </rdf:RDF>
 </metadata>
 <defs>
  <style type="text/css">*{stroke-linejoin: round; stroke-linecap: butt}</style>
 </defs>
 <g id="figure_1">
  <g id="patch_1">
   <path d="M 0 576 
L 576 576 
L 576 0 
L 0 0 
z
" style="fill: #ffffff"/>
  </g>
  <g id="axes_1">
   <g id="patch_2">
    <path d="M 53.285 534.04 
L 560.445 534.04 
L 560.445 26.88 
L 53.285 26.88 
z
" style="fill: #ffffff"/>
   </g>
   <g id="FillBetweenPolyCollection_1">
    <defs>
     <path id="m0209eee0b2" d="M 537.392273 -65.012727 
L 537.392273 -65.37031 
L 537.392273 -65.561255 
L 537.392273 -65.561333 
L 537.392273 -65.561378 
L 537.392273 -65.561425 
L 537.392273 -65.561472 
L 537.392273 -65.561711 
L 537.392273 -65.562461 
L 537.392273 -65.56271 
L 537.392273 -65.563885 
L 537.392273 -65.565386 
L 537.392273 -65.568204 
L 537.392273 -65.572538 
L 537.392273 -65.581168 
L 537.392273 -65.594921 
L 537.392273 -65.618908 
L 537.392273 -65.6477 
L 537.392273 -65.686167 
L 537.392273 -65.745396 
L 537.392273 -65.809422 
L 537.392273 -65.809582 
L 537.392273 -65.880337 
L 537.392273 -65.88135 
L 537.328932 -65.939297 
L 537.328932 -65.940323 
L 537.265592 -65.987488 
L 537.265592 -65.992602 
L 537.265592 -66.023174 
L 537.265592 -66.037462 
L 537.265592 -66.03778 
L 537.138911 -66.071757 
L 537.138911 -66.072085 
L 537.138911 -66.112217 
L 537.138911 -66.112572 
L 537.075571 -66.18133 
L 537.075571 -66.183242 
L 537.075571 -66.260238 
L 537.075571 -66.264133 
L 537.075571 -66.362108 
L 537.075571 -66.36963 
L 537.075571 -66.512346 
L 537.075571 -66.521216 
L 537.075571 -66.693099 
L 537.075571 -66.693682 
L 537.075571 -66.719614 
L 536.94889 -66.891522 
L 536.94889 -66.949484 
L 536.94889 -66.953662 
L 536.758869 -67.192068 
L 536.758869 -67.19251 
L 536.758869 -67.196314 
L 536.758869 -67.345691 
L 536.695529 -67.492777 
L 536.695529 -67.493855 
L 536.695529 -67.689643 
L 536.695529 -67.705205 
L 536.695529 -67.706317 
L 536.632188 -68.062228 
L 536.632188 -68.069386 
L 536.632188 -68.115524 
L 536.568848 -68.486755 
L 536.568848 -68.498257 
L 536.315486 -68.646486 
L 536.315486 -68.653029 
L 536.252146 -69.079587 
L 536.252146 -69.257156 
L 536.252146 -69.28174 
L 536.252146 -69.283297 
L 535.555402 -70.177523 
L 535.555402 -70.178042 
L 535.555402 -70.189345 
L 535.555402 -70.242066 
L 535.428721 -70.661204 
L 535.048679 -71.203203 
L 535.048679 -71.293496 
L 535.048679 -71.295044 
L 534.858658 -71.893457 
L 534.858658 -71.895628 
L 534.858658 -72.090636 
L 534.731977 -72.663072 
L 534.731977 -72.665668 
L 534.605296 -73.648272 
L 534.605296 -73.997132 
L 534.605296 -74.03587 
L 534.605296 -74.055218 
L 533.971893 -76.515965 
L 533.971893 -76.519899 
L 533.971893 -76.536778 
L 533.971893 -76.677576 
L 533.655191 -77.559895 
L 533.655191 -77.560132 
L 533.338489 -79.367399 
L 533.338489 -79.423366 
L 532.958447 -80.098566 
L 532.958447 -80.124974 
L 532.641745 -81.500377 
L 532.641745 -81.557208 
L 532.641745 -81.558197 
L 531.81832 -84.000106 
L 531.81832 -84.003696 
L 531.81832 -84.133923 
L 531.374938 -86.483815 
L 531.374938 -86.511827 
L 530.994895 -87.91787 
L 530.994895 -88.13875 
L 529.728088 -90.348817 
L 529.728088 -90.386023 
L 528.777983 -93.683636 
L 528.207919 -95.856342 
L 528.017898 -96.571981 
L 528.017898 -96.644549 
L 527.891217 -96.671924 
L 527.891217 -96.67894 
L 527.827877 -96.675108 
L 523.647413 -108.049198 
L 523.647413 -108.050335 
L 523.647413 -108.089623 
L 523.647413 -108.190162 
L 523.584072 -108.496587 
L 522.887328 -110.260087 
L 521.873882 -115.237405 
L 521.873882 -115.242072 
L 520.100352 -121.41581 
L 520.100352 -121.507553 
L 519.086906 -123.975208 
L 519.086906 -123.979523 
L 518.326822 -127.46519 
L 518.326822 -127.499153 
L 516.173249 -135.173202 
L 516.173249 -135.223977 
L 515.729867 -136.471134 
L 512.626188 -143.981861 
L 512.626188 -143.995609 
L 511.042679 -149.367113 
L 510.979339 -149.795563 
L 510.979339 -149.831931 
L 505.025344 -164.706566 
L 505.025344 -164.735241 
L 504.011898 -165.761628 
L 500.84488 -173.93016 
L 500.84488 -174.006998 
L 498.881328 -180.827574 
L 496.664416 -185.448799 
L 496.664416 -185.591192 
L 491.597186 -199.437418 
L 491.090463 -199.794868 
L 487.353381 -212.521994 
L 487.226701 -212.607518 
L 484.123022 -219.376925 
L 484.123022 -219.425106 
L 482.159471 -222.407041 
L 479.879218 -226.869599 
L 479.752537 -227.095655 
L 474.431946 -240.324471 
L 474.431946 -240.398747 
L 468.541292 -258.247447 
L 462.207255 -270.120387 
L 458.786875 -275.384324 
L 457.140025 -276.685879 
L 456.506622 -277.306504 
L 456.443281 -277.466718 
L 456.443281 -277.515671 
L 456.443281 -277.564646 
L 425.976564 -327.792396 
L 425.976564 -327.846672 
L 425.786543 -328.329283 
L 425.27982 -328.711802 
L 423.63297 -329.443906 
L 419.832548 -332.110131 
L 410.078131 -339.726784 
L 410.078131 -339.757853 
L 399.50029 -355.062085 
L 399.50029 -355.097854 
L 392.342828 -370.443763 
L 392.089466 -370.767272 
L 387.338939 -374.779807 
L 383.855218 -375.645508 
L 383.855218 -375.688622 
L 377.711203 -380.018116 
L 377.711203 -380.28975 
L 366.689978 -390.763966 
L 366.119915 -391.281025 
L 351.55163 -405.417485 
L 351.361609 -405.471713 
L 347.371166 -407.165415 
L 347.307826 -407.204147 
L 339.51696 -414.398399 
L 339.390279 -414.485172 
L 329.382501 -418.818511 
L 327.862332 -418.936485 
L 327.798992 -418.915772 
L 306.136586 -430.312114 
L 306.009905 -430.509837 
L 305.503182 -431.305074 
L 297.838997 -434.046315 
L 286.881114 -445.958616 
L 283.587414 -446.63946 
L 283.397393 -446.579135 
L 271.996127 -451.602709 
L 271.806106 -451.647055 
L 266.232153 -452.412258 
L 266.168813 -452.391609 
L 260.848222 -454.528937 
L 249.446956 -462.258021 
L 249.383615 -462.237899 
L 240.769325 -465.849164 
L 237.538966 -467.131925 
L 236.842222 -468.017977 
L 236.272159 -467.976634 
L 236.145478 -468.076005 
L 207.452291 -480.503763 
L 207.388951 -480.664951 
L 207.198929 -480.605524 
L 206.818887 -480.486202 
L 206.122143 -480.997211 
L 202.258381 -481.449091 
L 192.567304 -483.634742 
L 192.503964 -483.613735 
L 184.016354 -490.755654 
L 183.572972 -490.620876 
L 179.139146 -491.389666 
L 179.075806 -491.369895 
L 172.171705 -490.883013 
L 171.918344 -491.05762 
L 160.580418 -492.927972 
L 160.390397 -492.858449 
L 155.82989 -493.940418 
L 155.76655 -493.916585 
L 152.40951 -495.593216 
L 152.34617 -495.569501 
L 143.415178 -495.954266 
L 140.564861 -494.708783 
L 140.438181 -494.651033 
L 127.896788 -499.385875 
L 127.770107 -499.32397 
L 126.62998 -499.268135 
L 122.576197 -497.621748 
L 117.002244 -502.878139 
L 116.558862 -502.635502 
L 113.328503 -503.540178 
L 113.328503 -504.255557 
L 113.201822 -504.18416 
L 108.831337 -503.014545 
L 107.121147 -502.654347 
L 101.357173 -500.698243 
L 101.293833 -500.637406 
L 100.78711 -500.14 
L 97.746772 -500.310036 
L 95.339838 -506.918042 
L 93.249606 -504.661169 
L 93.186265 -504.584444 
L 89.829226 -503.426201 
L 88.625759 -501.327761 
L 86.028804 -511.476939 
L 85.648762 -510.901005 
L 83.62187 -510.569641 
L 82.798445 -508.668988 
L 81.784999 -510.526108 
L 81.341616 -509.199424 
L 80.771553 -507.119826 
L 80.328171 -505.110248 
L 80.20149 -504.455341 
L 79.694767 -509.301653 
L 78.998023 -505.110248 
L 77.984577 -526.067273 
L 77.604535 -526.067273 
L 77.414514 -526.067273 
L 77.034471 -526.067273 
L 76.907791 -526.067273 
L 76.717769 -526.067273 
L 76.591089 -526.067273 
L 76.337727 -526.067273 
L 76.337727 -65.012727 
L 76.337727 -65.012727 
L 76.591089 -65.012727 
L 76.717769 -65.012727 
L 76.907791 -65.012727 
L 77.034471 -65.012727 
L 77.414514 -65.012727 
L 77.604535 -65.012727 
L 77.984577 -65.012727 
L 78.998023 -65.012727 
L 79.694767 -65.012727 
L 80.20149 -65.012727 
L 80.328171 -65.012727 
L 80.771553 -65.012727 
L 81.341616 -65.012727 
L 81.784999 -65.012727 
L 82.798445 -65.012727 
L 83.62187 -65.012727 
L 85.648762 -65.012727 
L 86.028804 -65.012727 
L 88.625759 -65.012727 
L 89.829226 -65.012727 
L 93.186265 -65.012727 
L 93.249606 -65.012727 
L 95.339838 -65.012727 
L 97.746772 -65.012727 
L 100.78711 -65.012727 
L 101.293833 -65.012727 
L 101.357173 -65.012727 
L 107.121147 -65.012727 
L 108.831337 -65.012727 
L 113.201822 -65.012727 
L 113.328503 -65.012727 
L 113.328503 -65.012727 
L 116.558862 -65.012727 
L 117.002244 -65.012727 
L 122.576197 -65.012727 
L 126.62998 -65.012727 
L 127.770107 -65.012727 
L 127.896788 -65.012727 
L 140.438181 -65.012727 
L 140.564861 -65.012727 
L 143.415178 -65.012727 
L 152.34617 -65.012727 
L 152.40951 -65.012727 
L 155.76655 -65.012727 
L 155.82989 -65.012727 
L 160.390397 -65.012727 
L 160.580418 -65.012727 
L 171.918344 -65.012727 
L 172.171705 -65.012727 
L 179.075806 -65.012727 
L 179.139146 -65.012727 
L 183.572972 -65.012727 
L 184.016354 -65.012727 
L 192.503964 -65.012727 
L 192.567304 -65.012727 
L 202.258381 -65.012727 
L 206.122143 -65.012727 
L 206.818887 -65.012727 
L 207.198929 -65.012727 
L 207.388951 -65.012727 
L 207.452291 -65.012727 
L 236.145478 -65.012727 
L 236.272159 -65.012727 
L 236.842222 -65.012727 
L 237.538966 -65.012727 
L 240.769325 -65.012727 
L 249.383615 -65.012727 
L 249.446956 -65.012727 
L 260.848222 -65.012727 
L 266.168813 -65.012727 
L 266.232153 -65.012727 
L 271.806106 -65.012727 
L 271.996127 -65.012727 
L 283.397393 -65.012727 
L 283.587414 -65.012727 
L 286.881114 -65.012727 
L 297.838997 -65.012727 
L 305.503182 -65.012727 
L 306.009905 -65.012727 
L 306.136586 -65.012727 
L 327.798992 -65.012727 
L 327.862332 -65.012727 
L 329.382501 -65.012727 
L 339.390279 -65.012727 
L 339.51696 -65.012727 
L 347.307826 -65.012727 
L 347.371166 -65.012727 
L 351.361609 -65.012727 
L 351.55163 -65.012727 
L 366.119915 -65.012727 
L 366.689978 -65.012727 
L 377.711203 -65.012727 
L 377.711203 -65.012727 
L 383.855218 -65.012727 
L 383.855218 -65.012727 
L 387.338939 -65.012727 
L 392.089466 -65.012727 
L 392.342828 -65.012727 
L 399.50029 -65.012727 
L 399.50029 -65.012727 
L 410.078131 -65.012727 
L 410.078131 -65.012727 
L 419.832548 -65.012727 
L 423.63297 -65.012727 
L 425.27982 -65.012727 
L 425.786543 -65.012727 
L 425.976564 -65.012727 
L 425.976564 -65.012727 
L 456.443281 -65.012727 
L 456.443281 -65.012727 
L 456.443281 -65.012727 
L 456.506622 -65.012727 
L 457.140025 -65.012727 
L 458.786875 -65.012727 
L 462.207255 -65.012727 
L 468.541292 -65.012727 
L 474.431946 -65.012727 
L 474.431946 -65.012727 
L 479.752537 -65.012727 
L 479.879218 -65.012727 
L 482.159471 -65.012727 
L 484.123022 -65.012727 
L 484.123022 -65.012727 
L 487.226701 -65.012727 
L 487.353381 -65.012727 
L 491.090463 -65.012727 
L 491.597186 -65.012727 
L 496.664416 -65.012727 
L 496.664416 -65.012727 
L 498.881328 -65.012727 
L 500.84488 -65.012727 
L 500.84488 -65.012727 
L 504.011898 -65.012727 
L 505.025344 -65.012727 
L 505.025344 -65.012727 
L 510.979339 -65.012727 
L 510.979339 -65.012727 
L 511.042679 -65.012727 
L 512.626188 -65.012727 
L 512.626188 -65.012727 
L 515.729867 -65.012727 
L 516.173249 -65.012727 
L 516.173249 -65.012727 
L 518.326822 -65.012727 
L 518.326822 -65.012727 
L 519.086906 -65.012727 
L 519.086906 -65.012727 
L 520.100352 -65.012727 
L 520.100352 -65.012727 
L 521.873882 -65.012727 
L 521.873882 -65.012727 
L 522.887328 -65.012727 
L 523.584072 -65.012727 
L 523.647413 -65.012727 
L 523.647413 -65.012727 
L 523.647413 -65.012727 
L 523.647413 -65.012727 
L 527.827877 -65.012727 
L 527.891217 -65.012727 
L 527.891217 -65.012727 
L 528.017898 -65.012727 
L 528.017898 -65.012727 
L 528.207919 -65.012727 
L 528.777983 -65.012727 
L 529.728088 -65.012727 
L 529.728088 -65.012727 
L 530.994895 -65.012727 
L 530.994895 -65.012727 
L 531.374938 -65.012727 
L 531.374938 -65.012727 
L 531.81832 -65.012727 
L 531.81832 -65.012727 
L 531.81832 -65.012727 
L 532.641745 -65.012727 
L 532.641745 -65.012727 
L 532.641745 -65.012727 
L 532.958447 -65.012727 
L 532.958447 -65.012727 
L 533.338489 -65.012727 
L 533.338489 -65.012727 
L 533.655191 -65.012727 
L 533.655191 -65.012727 
L 533.971893 -65.012727 
L 533.971893 -65.012727 
L 533.971893 -65.012727 
L 533.971893 -65.012727 
L 534.605296 -65.012727 
L 534.605296 -65.012727 
L 534.605296 -65.012727 
L 534.605296 -65.012727 
L 534.731977 -65.012727 
L 534.731977 -65.012727 
L 534.858658 -65.012727 
L 534.858658 -65.012727 
L 534.858658 -65.012727 
L 535.048679 -65.012727 
L 535.048679 -65.012727 
L 535.048679 -65.012727 
L 535.428721 -65.012727 
L 535.555402 -65.012727 
L 535.555402 -65.012727 
L 535.555402 -65.012727 
L 535.555402 -65.012727 
L 536.252146 -65.012727 
L 536.252146 -65.012727 
L 536.252146 -65.012727 
L 536.252146 -65.012727 
L 536.315486 -65.012727 
L 536.315486 -65.012727 
L 536.568848 -65.012727 
L 536.568848 -65.012727 
L 536.632188 -65.012727 
L 536.632188 -65.012727 
L 536.632188 -65.012727 
L 536.695529 -65.012727 
L 536.695529 -65.012727 
L 536.695529 -65.012727 
L 536.695529 -65.012727 
L 536.695529 -65.012727 
L 536.758869 -65.012727 
L 536.758869 -65.012727 
L 536.758869 -65.012727 
L 536.758869 -65.012727 
L 536.94889 -65.012727 
L 536.94889 -65.012727 
L 536.94889 -65.012727 
L 537.075571 -65.012727 
L 537.075571 -65.012727 
L 537.075571 -65.012727 
L 537.075571 -65.012727 
L 537.075571 -65.012727 
L 537.075571 -65.012727 
L 537.075571 -65.012727 
L 537.075571 -65.012727 
L 537.075571 -65.012727 
L 537.075571 -65.012727 
L 537.075571 -65.012727 
L 537.138911 -65.012727 
L 537.138911 -65.012727 
L 537.138911 -65.012727 
L 537.138911 -65.012727 
L 537.265592 -65.012727 
L 537.265592 -65.012727 
L 537.265592 -65.012727 
L 537.265592 -65.012727 
L 537.265592 -65.012727 
L 537.328932 -65.012727 
L 537.328932 -65.012727 
L 537.392273 -65.012727 
L 537.392273 -65.012727 
L 537.392273 -65.012727 
L 537.392273 -65.012727 
L 537.392273 -65.012727 
L 537.392273 -65.012727 
L 537.392273 -65.012727 
L 537.392273 -65.012727 
L 537.392273 -65.012727 
L 537.392273 -65.012727 
L 537.392273 -65.012727 
L 537.392273 -65.012727 
L 537.392273 -65.012727 
L 537.392273 -65.012727 
L 537.392273 -65.012727 
L 537.392273 -65.012727 
L 537.392273 -65.012727 
L 537.392273 -65.012727 
L 537.392273 -65.012727 
L 537.392273 -65.012727 
L 537.392273 -65.012727 
L 537.392273 -65.012727 
L 537.392273 -65.012727 
z
" style="stroke: #000000; stroke-opacity: 0.2"/>
    </defs>
    <g clip-path="url(#p972c700fa7)">
     <use xlink:href="#m0209eee0b2" x="0" y="576" style="fill-opacity: 0.2; stroke: #000000; stroke-opacity: 0.2"/>
    </g>
   </g>
   <g id="FillBetweenPolyCollection_2">
    <defs>
     <path id="m71630ae5cb" d="M 537.392273 -65.012727 
L 537.392273 -67.478604 
L 537.392273 -68.762185 
L 537.392273 -68.762755 
L 537.392273 -68.762914 
L 537.392273 -68.763119 
L 537.392273 -68.763575 
L 537.392273 -68.764783 
L 537.392273 -68.769144 
L 537.392273 -68.770813 
L 537.392273 -68.778286 
L 537.392273 -68.788881 
L 537.392273 -68.809083 
L 537.392273 -68.836785 
L 537.392273 -68.892711 
L 537.392273 -68.982658 
L 537.392273 -69.138778 
L 537.392273 -69.318493 
L 537.392273 -69.56168 
L 537.392273 -69.935554 
L 537.392273 -70.337206 
L 537.392273 -70.337803 
L 537.392273 -70.782696 
L 537.392273 -70.788796 
L 537.392273 -71.169747 
L 537.392273 -71.176817 
L 537.392273 -71.481482 
L 537.392273 -71.515962 
L 537.392273 -71.730743 
L 537.392273 -71.82008 
L 537.392273 -71.822032 
L 537.392273 -72.046715 
L 537.392273 -72.047517 
L 537.392273 -72.290247 
L 537.392273 -72.29162 
L 537.392273 -72.710864 
L 537.392273 -72.723652 
L 537.392273 -73.18557 
L 537.392273 -73.209987 
L 537.392273 -73.832672 
L 537.392273 -73.881199 
L 537.392273 -74.735725 
L 537.392273 -74.799849 
L 537.392273 -75.846126 
L 537.392273 -75.848788 
L 537.392273 -76.010946 
L 537.392273 -77.087128 
L 537.392273 -77.436297 
L 537.392273 -77.4616 
L 537.392273 -78.88456 
L 537.392273 -78.887366 
L 537.392273 -78.909541 
L 537.392273 -79.767442 
L 537.392273 -80.675598 
L 537.392273 -80.680368 
L 537.392273 -81.798176 
L 537.392273 -81.90473 
L 537.392273 -81.908891 
L 537.392273 -84.014021 
L 537.392273 -84.056223 
L 537.392273 -84.343035 
L 537.392273 -86.412153 
L 537.392273 -86.473898 
L 537.392273 -87.298195 
L 537.392273 -87.338492 
L 537.392273 -89.709772 
L 537.392273 -90.600328 
L 537.392273 -90.719662 
L 537.392273 -90.725015 
L 537.392273 -95.570171 
L 537.392273 -95.647505 
L 537.392273 -95.93754 
L 537.392273 -98.234061 
L 537.047945 -101.202507 
L 537.047945 -101.701854 
L 537.047945 -101.719319 
L 537.047945 -104.930611 
L 537.047945 -104.938362 
L 537.047945 -105.890799 
L 537.047945 -108.869615 
L 537.047945 -108.878971 
L 537.047945 -113.76725 
L 537.047945 -115.498936 
L 537.047945 -115.71054 
L 537.047945 -115.82747 
L 537.047945 -127.7049 
L 537.047945 -127.72402 
L 537.047945 -127.768677 
L 537.047945 -128.452771 
L 537.047945 -132.491505 
L 537.047945 -132.498887 
L 537.047945 -140.510339 
L 537.047945 -140.695586 
L 536.703618 -143.799783 
L 536.703618 -143.971345 
L 536.703618 -149.339667 
L 536.703618 -149.559419 
L 536.703618 -159.74608 
L 536.703618 -159.760641 
L 536.703618 -160.361517 
L 536.703618 -168.649232 
L 536.703618 -168.823763 
L 536.35929 -173.97591 
L 536.35929 -174.713328 
L 535.670635 -182.410468 
L 535.670635 -182.702502 
L 535.670635 -194.523522 
L 535.670635 -200.664859 
L 535.670635 -202.514798 
L 535.670635 -202.699489 
L 535.670635 -202.79202 
L 535.670635 -202.822892 
L 533.260343 -235.104299 
L 533.260343 -235.198925 
L 533.260343 -235.673643 
L 533.260343 -236.534842 
L 533.260343 -240.923993 
L 532.916015 -253.412828 
L 532.571687 -267.296592 
L 532.571687 -267.430644 
L 532.22736 -272.361986 
L 531.883032 -279.1894 
L 531.883032 -279.264629 
L 531.194377 -293.122486 
L 531.194377 -295.54 
L 530.505722 -307.295972 
L 529.128412 -315.131014 
L 529.128412 -316.063132 
L 529.128412 -316.16713 
L 524.652155 -335.658813 
L 522.930517 -335.963224 
L 520.864552 -346.441294 
L 520.864552 -346.57442 
L 520.175897 -352.113843 
L 518.109932 -356.121478 
L 514.322329 -371.099043 
L 512.256364 -371.253574 
L 511.912036 -383.371898 
L 511.567709 -383.467889 
L 509.846071 -388.393046 
L 509.157416 -390.234705 
L 508.813089 -393.291927 
L 508.813089 -393.664549 
L 507.435779 -403.967684 
L 507.435779 -404.166835 
L 503.648176 -414.322062 
L 501.237883 -423.513867 
L 497.794608 -425.838024 
L 495.384316 -426.315613 
L 495.039988 -426.484247 
L 495.039988 -426.717455 
L 474.03601 -446.199556 
L 474.03601 -446.746061 
L 472.6587 -446.792426 
L 469.215424 -447.326126 
L 468.526769 -449.449863 
L 463.017529 -452.85112 
L 463.017529 -453.141854 
L 457.163961 -457.868141 
L 448.555773 -462.460864 
L 448.211446 -462.727511 
L 444.423843 -464.418975 
L 440.980568 -464.56818 
L 434.094018 -465.544226 
L 428.24045 -471.21768 
L 427.551795 -472.17778 
L 416.533314 -477.997216 
L 411.712729 -477.758249 
L 404.826179 -479.18037 
L 397.939628 -481.477858 
L 395.873663 -483.251846 
L 376.93565 -485.598535 
L 376.93565 -486.038479 
L 376.246995 -486.396263 
L 370.393427 -490.218539 
L 359.030619 -491.761072 
L 350.078103 -492.213617 
L 341.814243 -495.367515 
L 341.469915 -495.330303 
L 335.616348 -497.898105 
L 330.107107 -498.981054 
L 320.465937 -500.282598 
L 313.923714 -502.001239 
L 311.169094 -503.561123 
L 309.791784 -504.050623 
L 309.447456 -504.019657 
L 309.103129 -503.988604 
L 279.83529 -505.924113 
L 279.490962 -505.891466 
L 278.45798 -505.792887 
L 276.736342 -507.807687 
L 270.538447 -508.758058 
L 261.585931 -509.54202 
L 252.289089 -512.919329 
L 251.256106 -512.843911 
L 246.779848 -512.506845 
L 239.204643 -511.895514 
L 238.515988 -511.837194 
L 223.709905 -513.493058 
L 217.512009 -514.020717 
L 211.314114 -516.846182 
L 203.050254 -517.460921 
L 196.163703 -516.976056 
L 175.84838 -519.773013 
L 175.504052 -519.751457 
L 171.372122 -521.109697 
L 165.174227 -520.767795 
L 156.221711 -520.18147 
L 155.188729 -520.105361 
L 147.613523 -519.480779 
L 147.613523 -521.655268 
L 140.726973 -521.188389 
L 135.906388 -520.798078 
L 128.67551 -520.079551 
L 126.953872 -519.878621 
L 122.821942 -519.336549 
L 118.345684 -526.067273 
L 115.246737 -526.067273 
L 114.902409 -526.067273 
L 108.015859 -526.067273 
L 105.261239 -526.067273 
L 100.096326 -526.067273 
L 99.407671 -526.067273 
L 95.620068 -526.067273 
L 94.242758 -526.067273 
L 91.488138 -526.067273 
L 90.455155 -526.067273 
L 89.7665 -526.067273 
L 88.044863 -526.067273 
L 86.667553 -526.067273 
L 84.601588 -526.067273 
L 81.158313 -526.067273 
L 80.469657 -526.067273 
L 80.12533 -526.067273 
L 79.092347 -526.067273 
L 78.74802 -526.067273 
L 78.059365 -526.067273 
L 77.37071 -526.067273 
L 76.337727 -526.067273 
L 76.337727 -65.012727 
L 76.337727 -65.012727 
L 77.37071 -65.012727 
L 78.059365 -65.012727 
L 78.74802 -65.012727 
L 79.092347 -65.012727 
L 80.12533 -65.012727 
L 80.469657 -65.012727 
L 81.158313 -65.012727 
L 84.601588 -65.012727 
L 86.667553 -65.012727 
L 88.044863 -65.012727 
L 89.7665 -65.012727 
L 90.455155 -65.012727 
L 91.488138 -65.012727 
L 94.242758 -65.012727 
L 95.620068 -65.012727 
L 99.407671 -65.012727 
L 100.096326 -65.012727 
L 105.261239 -65.012727 
L 108.015859 -65.012727 
L 114.902409 -65.012727 
L 115.246737 -65.012727 
L 118.345684 -65.012727 
L 122.821942 -65.012727 
L 126.953872 -65.012727 
L 128.67551 -65.012727 
L 135.906388 -65.012727 
L 140.726973 -65.012727 
L 147.613523 -65.012727 
L 147.613523 -65.012727 
L 155.188729 -65.012727 
L 156.221711 -65.012727 
L 165.174227 -65.012727 
L 171.372122 -65.012727 
L 175.504052 -65.012727 
L 175.84838 -65.012727 
L 196.163703 -65.012727 
L 203.050254 -65.012727 
L 211.314114 -65.012727 
L 217.512009 -65.012727 
L 223.709905 -65.012727 
L 238.515988 -65.012727 
L 239.204643 -65.012727 
L 246.779848 -65.012727 
L 251.256106 -65.012727 
L 252.289089 -65.012727 
L 261.585931 -65.012727 
L 270.538447 -65.012727 
L 276.736342 -65.012727 
L 278.45798 -65.012727 
L 279.490962 -65.012727 
L 279.83529 -65.012727 
L 309.103129 -65.012727 
L 309.447456 -65.012727 
L 309.791784 -65.012727 
L 311.169094 -65.012727 
L 313.923714 -65.012727 
L 320.465937 -65.012727 
L 330.107107 -65.012727 
L 335.616348 -65.012727 
L 341.469915 -65.012727 
L 341.814243 -65.012727 
L 350.078103 -65.012727 
L 359.030619 -65.012727 
L 370.393427 -65.012727 
L 376.246995 -65.012727 
L 376.93565 -65.012727 
L 376.93565 -65.012727 
L 395.873663 -65.012727 
L 397.939628 -65.012727 
L 404.826179 -65.012727 
L 411.712729 -65.012727 
L 416.533314 -65.012727 
L 427.551795 -65.012727 
L 428.24045 -65.012727 
L 434.094018 -65.012727 
L 440.980568 -65.012727 
L 444.423843 -65.012727 
L 448.211446 -65.012727 
L 448.555773 -65.012727 
L 457.163961 -65.012727 
L 463.017529 -65.012727 
L 463.017529 -65.012727 
L 468.526769 -65.012727 
L 469.215424 -65.012727 
L 472.6587 -65.012727 
L 474.03601 -65.012727 
L 474.03601 -65.012727 
L 495.039988 -65.012727 
L 495.039988 -65.012727 
L 495.384316 -65.012727 
L 497.794608 -65.012727 
L 501.237883 -65.012727 
L 503.648176 -65.012727 
L 507.435779 -65.012727 
L 507.435779 -65.012727 
L 508.813089 -65.012727 
L 508.813089 -65.012727 
L 509.157416 -65.012727 
L 509.846071 -65.012727 
L 511.567709 -65.012727 
L 511.912036 -65.012727 
L 512.256364 -65.012727 
L 514.322329 -65.012727 
L 518.109932 -65.012727 
L 520.175897 -65.012727 
L 520.864552 -65.012727 
L 520.864552 -65.012727 
L 522.930517 -65.012727 
L 524.652155 -65.012727 
L 529.128412 -65.012727 
L 529.128412 -65.012727 
L 529.128412 -65.012727 
L 530.505722 -65.012727 
L 531.194377 -65.012727 
L 531.194377 -65.012727 
L 531.883032 -65.012727 
L 531.883032 -65.012727 
L 532.22736 -65.012727 
L 532.571687 -65.012727 
L 532.571687 -65.012727 
L 532.916015 -65.012727 
L 533.260343 -65.012727 
L 533.260343 -65.012727 
L 533.260343 -65.012727 
L 533.260343 -65.012727 
L 533.260343 -65.012727 
L 535.670635 -65.012727 
L 535.670635 -65.012727 
L 535.670635 -65.012727 
L 535.670635 -65.012727 
L 535.670635 -65.012727 
L 535.670635 -65.012727 
L 535.670635 -65.012727 
L 535.670635 -65.012727 
L 536.35929 -65.012727 
L 536.35929 -65.012727 
L 536.703618 -65.012727 
L 536.703618 -65.012727 
L 536.703618 -65.012727 
L 536.703618 -65.012727 
L 536.703618 -65.012727 
L 536.703618 -65.012727 
L 536.703618 -65.012727 
L 536.703618 -65.012727 
L 536.703618 -65.012727 
L 537.047945 -65.012727 
L 537.047945 -65.012727 
L 537.047945 -65.012727 
L 537.047945 -65.012727 
L 537.047945 -65.012727 
L 537.047945 -65.012727 
L 537.047945 -65.012727 
L 537.047945 -65.012727 
L 537.047945 -65.012727 
L 537.047945 -65.012727 
L 537.047945 -65.012727 
L 537.047945 -65.012727 
L 537.047945 -65.012727 
L 537.047945 -65.012727 
L 537.047945 -65.012727 
L 537.047945 -65.012727 
L 537.047945 -65.012727 
L 537.047945 -65.012727 
L 537.047945 -65.012727 
L 537.047945 -65.012727 
L 537.392273 -65.012727 
L 537.392273 -65.012727 
L 537.392273 -65.012727 
L 537.392273 -65.012727 
L 537.392273 -65.012727 
L 537.392273 -65.012727 
L 537.392273 -65.012727 
L 537.392273 -65.012727 
L 537.392273 -65.012727 
L 537.392273 -65.012727 
L 537.392273 -65.012727 
L 537.392273 -65.012727 
L 537.392273 -65.012727 
L 537.392273 -65.012727 
L 537.392273 -65.012727 
L 537.392273 -65.012727 
L 537.392273 -65.012727 
L 537.392273 -65.012727 
L 537.392273 -65.012727 
L 537.392273 -65.012727 
L 537.392273 -65.012727 
L 537.392273 -65.012727 
L 537.392273 -65.012727 
L 537.392273 -65.012727 
L 537.392273 -65.012727 
L 537.392273 -65.012727 
L 537.392273 -65.012727 
L 537.392273 -65.012727 
L 537.392273 -65.012727 
L 537.392273 -65.012727 
L 537.392273 -65.012727 
L 537.392273 -65.012727 
L 537.392273 -65.012727 
L 537.392273 -65.012727 
L 537.392273 -65.012727 
L 537.392273 -65.012727 
L 537.392273 -65.012727 
L 537.392273 -65.012727 
L 537.392273 -65.012727 
L 537.392273 -65.012727 
L 537.392273 -65.012727 
L 537.392273 -65.012727 
L 537.392273 -65.012727 
L 537.392273 -65.012727 
L 537.392273 -65.012727 
L 537.392273 -65.012727 
L 537.392273 -65.012727 
L 537.392273 -65.012727 
L 537.392273 -65.012727 
L 537.392273 -65.012727 
L 537.392273 -65.012727 
L 537.392273 -65.012727 
L 537.392273 -65.012727 
L 537.392273 -65.012727 
L 537.392273 -65.012727 
L 537.392273 -65.012727 
L 537.392273 -65.012727 
L 537.392273 -65.012727 
L 537.392273 -65.012727 
L 537.392273 -65.012727 
L 537.392273 -65.012727 
L 537.392273 -65.012727 
L 537.392273 -65.012727 
L 537.392273 -65.012727 
L 537.392273 -65.012727 
L 537.392273 -65.012727 
L 537.392273 -65.012727 
L 537.392273 -65.012727 
L 537.392273 -65.012727 
L 537.392273 -65.012727 
L 537.392273 -65.012727 
L 537.392273 -65.012727 
z
" style="stroke: #008000; stroke-opacity: 0.2"/>
    </defs>
    <g clip-path="url(#p972c700fa7)">
     <use xlink:href="#m71630ae5cb" x="0" y="576" style="fill: #008000; fill-opacity: 0.2; stroke: #008000; stroke-opacity: 0.2"/>
    </g>
   </g>
   <g id="FillBetweenPolyCollection_3">
    <defs>
     <path id="m1521776303" d="M 537.392273 -65.012727 
L 537.392273 -65.312529 
L 537.392273 -65.472731 
L 537.392273 -65.472796 
L 537.392273 -65.472834 
L 537.392273 -65.472874 
L 537.392273 -65.472913 
L 537.392273 -65.473115 
L 537.392273 -65.473747 
L 537.392273 -65.473956 
L 537.392273 -65.474942 
L 537.392273 -65.4762 
L 537.392273 -65.47856 
L 537.392273 -65.482201 
L 537.392273 -65.489449 
L 537.392273 -65.500997 
L 537.392273 -65.521139 
L 537.392273 -65.545343 
L 537.392273 -65.57767 
L 537.392273 -65.627449 
L 537.392273 -65.681268 
L 537.392273 -65.681405 
L 537.392273 -65.740877 
L 537.392273 -65.741731 
L 537.314654 -65.790357 
L 537.314654 -65.791218 
L 537.237036 -65.830811 
L 537.237036 -65.835101 
L 537.237036 -65.860716 
L 537.237036 -65.872727 
L 537.237036 -65.872994 
L 537.081798 -65.901465 
L 537.081798 -65.901746 
L 537.081798 -65.93551 
L 537.081798 -65.935812 
L 537.00418 -65.993624 
L 537.00418 -65.995227 
L 537.00418 -66.060023 
L 537.00418 -66.063297 
L 537.00418 -66.145619 
L 537.00418 -66.151937 
L 537.00418 -66.27205 
L 537.00418 -66.279473 
L 537.00418 -66.424073 
L 537.00418 -66.424567 
L 537.00418 -66.446367 
L 536.848942 -66.590791 
L 536.848942 -66.639565 
L 536.848942 -66.643081 
L 536.616087 -66.843604 
L 536.616087 -66.843975 
L 536.616087 -66.847179 
L 536.616087 -66.97304 
L 536.538468 -67.096663 
L 536.538468 -67.097577 
L 536.538468 -67.262572 
L 536.538468 -67.275614 
L 536.538468 -67.276561 
L 536.460849 -67.576138 
L 536.460849 -67.582165 
L 536.460849 -67.620951 
L 536.383231 -67.933945 
L 536.383231 -67.943654 
L 536.072756 -68.068344 
L 536.072756 -68.073845 
L 535.995138 -68.433496 
L 535.995138 -68.583676 
L 535.995138 -68.604486 
L 535.995138 -68.605814 
L 535.141333 -69.359322 
L 535.141333 -69.359773 
L 535.141333 -69.369238 
L 535.141333 -69.413707 
L 534.986096 -69.767036 
L 534.598003 -70.224178 
L 534.598003 -70.300325 
L 534.598003 -70.301589 
L 534.365147 -70.806259 
L 534.365147 -70.80811 
L 534.365147 -70.973164 
L 534.20991 -71.456467 
L 534.20991 -71.458681 
L 534.054672 -72.289626 
L 534.054672 -72.584807 
L 534.054672 -72.617487 
L 534.054672 -72.633752 
L 533.278486 -74.715374 
L 533.278486 -74.718705 
L 533.278486 -74.7332 
L 533.278486 -74.852413 
L 532.890393 -75.599476 
L 532.890393 -75.599642 
L 532.5023 -77.132717 
L 532.5023 -77.180612 
L 532.114207 -77.75314 
L 532.114207 -77.775242 
L 531.726114 -78.946007 
L 531.726114 -78.994476 
L 531.726114 -78.995343 
L 530.717072 -81.068152 
L 530.717072 -81.071209 
L 530.717072 -81.181648 
L 530.173742 -83.188689 
L 530.173742 -83.212126 
L 529.785649 -84.413735 
L 529.785649 -84.603102 
L 528.388514 -86.490916 
L 528.388514 -86.52154 
L 527.224235 -89.334729 
L 526.525667 -91.202338 
L 526.292811 -91.819138 
L 526.292811 -91.881929 
L 526.137574 -91.904018 
L 526.137574 -91.909974 
L 526.059956 -91.905874 
L 521.480458 -101.706934 
L 521.480458 -101.707952 
L 521.480458 -101.742104 
L 521.480458 -101.826993 
L 521.402839 -102.091083 
L 520.549034 -103.612109 
L 519.384755 -107.926 
L 519.384755 -107.930199 
L 517.289053 -113.294739 
L 517.289053 -113.375866 
L 516.124773 -115.527773 
L 516.124773 -115.53168 
L 515.270969 -118.586267 
L 515.270969 -118.616006 
L 512.787173 -125.356978 
L 512.787173 -125.403366 
L 512.243843 -126.492505 
L 508.595768 -133.110135 
L 508.595768 -133.12278 
L 506.965777 -137.915244 
L 506.888159 -138.290558 
L 506.888159 -138.322065 
L 500.601051 -151.668533 
L 500.601051 -151.695359 
L 499.747247 -152.669654 
L 496.332028 -160.033338 
L 496.332028 -160.102152 
L 494.081088 -166.347949 
L 491.830148 -170.610236 
L 491.830148 -170.745954 
L 486.474464 -183.447935 
L 486.319227 -183.847945 
L 481.817348 -195.557386 
L 481.739729 -195.645682 
L 478.32451 -201.97507 
L 478.32451 -202.022223 
L 476.073571 -204.800253 
L 473.356919 -208.95157 
L 473.201682 -209.150415 
L 466.992193 -221.527467 
L 466.992193 -221.590833 
L 460.627467 -238.785646 
L 453.408936 -250.013387 
L 449.993717 -255.218964 
L 448.518964 -256.552889 
L 447.820396 -257.158935 
L 447.742778 -257.302974 
L 447.742778 -257.353268 
L 447.742778 -257.403588 
L 415.142961 -307.834046 
L 415.142961 -307.892656 
L 414.910106 -308.342422 
L 414.599631 -308.797696 
L 413.357733 -309.624022 
L 408.855854 -312.061842 
L 398.144486 -319.612107 
L 386.501694 -335.472792 
L 386.501694 -335.512502 
L 379.671257 -352.060865 
L 379.438401 -352.389902 
L 374.47081 -356.568623 
L 370.977972 -357.4865 
L 370.977972 -357.535384 
L 365.001339 -362.2842 
L 365.001339 -362.59375 
L 352.815217 -373.247767 
L 352.271887 -373.684838 
L 336.903402 -388.676489 
L 336.670546 -388.725716 
L 332.867234 -390.747074 
L 332.789616 -390.787795 
L 324.794899 -398.836659 
L 324.639662 -398.930203 
L 313.928294 -403.288845 
L 312.531159 -403.082361 
L 312.45354 -403.052719 
L 290.176999 -415.704409 
L 290.021762 -415.837261 
L 289.55605 -416.725262 
L 281.483714 -418.938711 
L 270.617109 -433.003648 
L 268.599025 -434.005331 
L 268.366169 -433.916008 
L 256.257666 -438.954098 
L 256.102429 -439.02405 
L 250.591507 -439.223665 
L 250.513889 -439.192257 
L 245.235823 -441.468521 
L 233.437795 -450.462707 
L 233.360176 -450.431465 
L 224.278799 -454.193402 
L 220.941198 -455.264712 
L 220.397868 -456.287184 
L 219.776919 -456.210523 
L 219.699301 -456.358199 
L 191.135652 -471.147136 
L 191.135652 -471.389171 
L 190.902796 -471.29124 
L 190.66994 -471.192958 
L 190.204229 -471.239165 
L 186.866628 -471.540079 
L 177.009065 -473.753497 
L 176.931446 -473.717714 
L 168.626255 -481.890183 
L 168.315781 -481.755394 
L 163.89152 -482.739255 
L 163.813901 -482.704426 
L 157.061082 -481.966403 
L 156.905845 -482.253022 
L 146.349714 -483.815547 
L 146.116858 -483.687511 
L 141.925453 -484.830713 
L 141.847834 -484.786229 
L 139.131183 -485.998198 
L 139.053564 -485.952922 
L 129.972187 -485.31443 
L 128.031722 -483.924497 
L 127.876485 -483.809195 
L 117.087498 -488.924525 
L 117.009879 -488.859362 
L 116.544167 -488.463533 
L 112.973711 -485.9368 
L 108.161358 -493.657543 
L 107.850883 -493.360886 
L 105.599943 -495.254221 
L 105.444706 -495.100923 
L 101.641394 -493.22863 
L 100.632352 -493.232528 
L 95.19905 -489.392479 
L 95.121431 -489.253031 
L 94.888575 -488.828252 
L 92.094305 -488.515319 
L 90.15384 -494.686597 
L 88.290993 -490.176799 
L 85.729579 -487.646061 
L 84.875774 -484.153223 
L 82.857691 -500.165332 
L 82.547216 -498.946417 
L 80.917225 -496.793968 
L 80.218658 -491.915084 
L 79.597709 -495.330303 
L 79.287234 -492.331574 
L 78.743904 -485.385989 
L 78.588667 -482.843409 
L 78.43343 -479.961818 
L 78.122955 -489.182909 
L 77.734862 -479.961818 
L 77.269151 -526.067273 
L 76.958676 -526.067273 
L 76.803439 -526.067273 
L 76.570583 -526.067273 
L 76.492964 -526.067273 
L 76.415346 -526.067273 
L 76.337727 -526.067273 
L 76.337727 -65.012727 
L 76.337727 -65.012727 
L 76.415346 -65.012727 
L 76.492964 -65.012727 
L 76.570583 -65.012727 
L 76.803439 -65.012727 
L 76.958676 -65.012727 
L 77.269151 -65.012727 
L 77.734862 -65.012727 
L 78.122955 -65.012727 
L 78.43343 -65.012727 
L 78.588667 -65.012727 
L 78.743904 -65.012727 
L 79.287234 -65.012727 
L 79.597709 -65.012727 
L 80.218658 -65.012727 
L 80.917225 -65.012727 
L 82.547216 -65.012727 
L 82.857691 -65.012727 
L 84.875774 -65.012727 
L 85.729579 -65.012727 
L 88.290993 -65.012727 
L 90.15384 -65.012727 
L 92.094305 -65.012727 
L 94.888575 -65.012727 
L 95.121431 -65.012727 
L 95.19905 -65.012727 
L 100.632352 -65.012727 
L 101.641394 -65.012727 
L 105.444706 -65.012727 
L 105.599943 -65.012727 
L 107.850883 -65.012727 
L 108.161358 -65.012727 
L 112.973711 -65.012727 
L 116.544167 -65.012727 
L 117.009879 -65.012727 
L 117.087498 -65.012727 
L 127.876485 -65.012727 
L 128.031722 -65.012727 
L 129.972187 -65.012727 
L 139.053564 -65.012727 
L 139.131183 -65.012727 
L 141.847834 -65.012727 
L 141.925453 -65.012727 
L 146.116858 -65.012727 
L 146.349714 -65.012727 
L 156.905845 -65.012727 
L 157.061082 -65.012727 
L 163.813901 -65.012727 
L 163.89152 -65.012727 
L 168.315781 -65.012727 
L 168.626255 -65.012727 
L 176.931446 -65.012727 
L 177.009065 -65.012727 
L 186.866628 -65.012727 
L 190.204229 -65.012727 
L 190.66994 -65.012727 
L 190.902796 -65.012727 
L 191.135652 -65.012727 
L 191.135652 -65.012727 
L 219.699301 -65.012727 
L 219.776919 -65.012727 
L 220.397868 -65.012727 
L 220.941198 -65.012727 
L 224.278799 -65.012727 
L 233.360176 -65.012727 
L 233.437795 -65.012727 
L 245.235823 -65.012727 
L 250.513889 -65.012727 
L 250.591507 -65.012727 
L 256.102429 -65.012727 
L 256.257666 -65.012727 
L 268.366169 -65.012727 
L 268.599025 -65.012727 
L 270.617109 -65.012727 
L 281.483714 -65.012727 
L 289.55605 -65.012727 
L 290.021762 -65.012727 
L 290.176999 -65.012727 
L 312.45354 -65.012727 
L 312.531159 -65.012727 
L 313.928294 -65.012727 
L 324.639662 -65.012727 
L 324.794899 -65.012727 
L 332.789616 -65.012727 
L 332.867234 -65.012727 
L 336.670546 -65.012727 
L 336.903402 -65.012727 
L 352.271887 -65.012727 
L 352.815217 -65.012727 
L 365.001339 -65.012727 
L 365.001339 -65.012727 
L 370.977972 -65.012727 
L 370.977972 -65.012727 
L 374.47081 -65.012727 
L 379.438401 -65.012727 
L 379.671257 -65.012727 
L 386.501694 -65.012727 
L 386.501694 -65.012727 
L 398.144486 -65.012727 
L 408.855854 -65.012727 
L 413.357733 -65.012727 
L 414.599631 -65.012727 
L 414.910106 -65.012727 
L 415.142961 -65.012727 
L 415.142961 -65.012727 
L 447.742778 -65.012727 
L 447.742778 -65.012727 
L 447.742778 -65.012727 
L 447.820396 -65.012727 
L 448.518964 -65.012727 
L 449.993717 -65.012727 
L 453.408936 -65.012727 
L 460.627467 -65.012727 
L 466.992193 -65.012727 
L 466.992193 -65.012727 
L 473.201682 -65.012727 
L 473.356919 -65.012727 
L 476.073571 -65.012727 
L 478.32451 -65.012727 
L 478.32451 -65.012727 
L 481.739729 -65.012727 
L 481.817348 -65.012727 
L 486.319227 -65.012727 
L 486.474464 -65.012727 
L 491.830148 -65.012727 
L 491.830148 -65.012727 
L 494.081088 -65.012727 
L 496.332028 -65.012727 
L 496.332028 -65.012727 
L 499.747247 -65.012727 
L 500.601051 -65.012727 
L 500.601051 -65.012727 
L 506.888159 -65.012727 
L 506.888159 -65.012727 
L 506.965777 -65.012727 
L 508.595768 -65.012727 
L 508.595768 -65.012727 
L 512.243843 -65.012727 
L 512.787173 -65.012727 
L 512.787173 -65.012727 
L 515.270969 -65.012727 
L 515.270969 -65.012727 
L 516.124773 -65.012727 
L 516.124773 -65.012727 
L 517.289053 -65.012727 
L 517.289053 -65.012727 
L 519.384755 -65.012727 
L 519.384755 -65.012727 
L 520.549034 -65.012727 
L 521.402839 -65.012727 
L 521.480458 -65.012727 
L 521.480458 -65.012727 
L 521.480458 -65.012727 
L 521.480458 -65.012727 
L 526.059956 -65.012727 
L 526.137574 -65.012727 
L 526.137574 -65.012727 
L 526.292811 -65.012727 
L 526.292811 -65.012727 
L 526.525667 -65.012727 
L 527.224235 -65.012727 
L 528.388514 -65.012727 
L 528.388514 -65.012727 
L 529.785649 -65.012727 
L 529.785649 -65.012727 
L 530.173742 -65.012727 
L 530.173742 -65.012727 
L 530.717072 -65.012727 
L 530.717072 -65.012727 
L 530.717072 -65.012727 
L 531.726114 -65.012727 
L 531.726114 -65.012727 
L 531.726114 -65.012727 
L 532.114207 -65.012727 
L 532.114207 -65.012727 
L 532.5023 -65.012727 
L 532.5023 -65.012727 
L 532.890393 -65.012727 
L 532.890393 -65.012727 
L 533.278486 -65.012727 
L 533.278486 -65.012727 
L 533.278486 -65.012727 
L 533.278486 -65.012727 
L 534.054672 -65.012727 
L 534.054672 -65.012727 
L 534.054672 -65.012727 
L 534.054672 -65.012727 
L 534.20991 -65.012727 
L 534.20991 -65.012727 
L 534.365147 -65.012727 
L 534.365147 -65.012727 
L 534.365147 -65.012727 
L 534.598003 -65.012727 
L 534.598003 -65.012727 
L 534.598003 -65.012727 
L 534.986096 -65.012727 
L 535.141333 -65.012727 
L 535.141333 -65.012727 
L 535.141333 -65.012727 
L 535.141333 -65.012727 
L 535.995138 -65.012727 
L 535.995138 -65.012727 
L 535.995138 -65.012727 
L 535.995138 -65.012727 
L 536.072756 -65.012727 
L 536.072756 -65.012727 
L 536.383231 -65.012727 
L 536.383231 -65.012727 
L 536.460849 -65.012727 
L 536.460849 -65.012727 
L 536.460849 -65.012727 
L 536.538468 -65.012727 
L 536.538468 -65.012727 
L 536.538468 -65.012727 
L 536.538468 -65.012727 
L 536.538468 -65.012727 
L 536.616087 -65.012727 
L 536.616087 -65.012727 
L 536.616087 -65.012727 
L 536.616087 -65.012727 
L 536.848942 -65.012727 
L 536.848942 -65.012727 
L 536.848942 -65.012727 
L 537.00418 -65.012727 
L 537.00418 -65.012727 
L 537.00418 -65.012727 
L 537.00418 -65.012727 
L 537.00418 -65.012727 
L 537.00418 -65.012727 
L 537.00418 -65.012727 
L 537.00418 -65.012727 
L 537.00418 -65.012727 
L 537.00418 -65.012727 
L 537.00418 -65.012727 
L 537.081798 -65.012727 
L 537.081798 -65.012727 
L 537.081798 -65.012727 
L 537.081798 -65.012727 
L 537.237036 -65.012727 
L 537.237036 -65.012727 
L 537.237036 -65.012727 
L 537.237036 -65.012727 
L 537.237036 -65.012727 
L 537.314654 -65.012727 
L 537.314654 -65.012727 
L 537.392273 -65.012727 
L 537.392273 -65.012727 
L 537.392273 -65.012727 
L 537.392273 -65.012727 
L 537.392273 -65.012727 
L 537.392273 -65.012727 
L 537.392273 -65.012727 
L 537.392273 -65.012727 
L 537.392273 -65.012727 
L 537.392273 -65.012727 
L 537.392273 -65.012727 
L 537.392273 -65.012727 
L 537.392273 -65.012727 
L 537.392273 -65.012727 
L 537.392273 -65.012727 
L 537.392273 -65.012727 
L 537.392273 -65.012727 
L 537.392273 -65.012727 
L 537.392273 -65.012727 
L 537.392273 -65.012727 
L 537.392273 -65.012727 
L 537.392273 -65.012727 
L 537.392273 -65.012727 
z
" style="stroke: #ff0000; stroke-opacity: 0.2"/>
    </defs>
    <g clip-path="url(#p972c700fa7)">
     <use xlink:href="#m1521776303" x="0" y="576" style="fill: #ff0000; fill-opacity: 0.2; stroke: #ff0000; stroke-opacity: 0.2"/>
    </g>
   </g>
   <g id="matplotlib.axis_1">
    <g id="xtick_1">
     <g id="line2d_1">
      <path d="M 76.337727 534.04 
L 76.337727 26.88 
" clip-path="url(#p972c700fa7)" style="fill: none; stroke: #b0b0b0; stroke-width: 0.8; stroke-linecap: square"/>
     </g>
     <g id="line2d_2">
      <defs>
       <path id="m664b3a6d4e" d="M 0 0 
L 0 3.5 
" style="stroke: #000000; stroke-width: 0.8"/>
      </defs>
      <g>
       <use xlink:href="#m664b3a6d4e" x="76.337727" y="534.04" style="stroke: #000000; stroke-width: 0.8"/>
      </g>
     </g>
     <g id="text_1">
      <!-- 0.0 -->
      <g transform="translate(67.307259 548.691562) scale(0.1 -0.1)">
       <defs>
        <path id="DejaVuSansMono-30" d="M 1509 2344 
Q 1509 2516 1629 2641 
Q 1750 2766 1919 2766 
Q 2094 2766 2219 2641 
Q 2344 2516 2344 2344 
Q 2344 2169 2220 2047 
Q 2097 1925 1919 1925 
Q 1744 1925 1626 2044 
Q 1509 2163 1509 2344 
z
M 1925 4250 
Q 1484 4250 1267 3775 
Q 1050 3300 1050 2328 
Q 1050 1359 1267 884 
Q 1484 409 1925 409 
Q 2369 409 2586 884 
Q 2803 1359 2803 2328 
Q 2803 3300 2586 3775 
Q 2369 4250 1925 4250 
z
M 1925 4750 
Q 2672 4750 3055 4137 
Q 3438 3525 3438 2328 
Q 3438 1134 3055 521 
Q 2672 -91 1925 -91 
Q 1178 -91 797 521 
Q 416 1134 416 2328 
Q 416 3525 797 4137 
Q 1178 4750 1925 4750 
z
" transform="scale(0.015625)"/>
        <path id="DejaVuSansMono-2e" d="M 1528 953 
L 2316 953 
L 2316 0 
L 1528 0 
L 1528 953 
z
" transform="scale(0.015625)"/>
       </defs>
       <use xlink:href="#DejaVuSansMono-30"/>
       <use xlink:href="#DejaVuSansMono-2e" transform="translate(60.205078 0)"/>
       <use xlink:href="#DejaVuSansMono-30" transform="translate(120.410156 0)"/>
      </g>
     </g>
    </g>
    <g id="xtick_2">
     <g id="line2d_3">
      <path d="M 168.548636 534.04 
L 168.548636 26.88 
" clip-path="url(#p972c700fa7)" style="fill: none; stroke: #b0b0b0; stroke-width: 0.8; stroke-linecap: square"/>
     </g>
     <g id="line2d_4">
      <g>
       <use xlink:href="#m664b3a6d4e" x="168.548636" y="534.04" style="stroke: #000000; stroke-width: 0.8"/>
      </g>
     </g>
     <g id="text_2">
      <!-- 0.2 -->
      <g transform="translate(159.518168 548.691562) scale(0.1 -0.1)">
       <defs>
        <path id="DejaVuSansMono-32" d="M 1166 531 
L 3309 531 
L 3309 0 
L 475 0 
L 475 531 
Q 1059 1147 1496 1619 
Q 1934 2091 2100 2284 
Q 2413 2666 2522 2902 
Q 2631 3138 2631 3384 
Q 2631 3775 2401 3997 
Q 2172 4219 1772 4219 
Q 1488 4219 1175 4116 
Q 863 4013 513 3803 
L 513 4441 
Q 834 4594 1145 4672 
Q 1456 4750 1759 4750 
Q 2444 4750 2861 4386 
Q 3278 4022 3278 3431 
Q 3278 3131 3139 2831 
Q 3000 2531 2688 2169 
Q 2513 1966 2180 1606 
Q 1847 1247 1166 531 
z
" transform="scale(0.015625)"/>
       </defs>
       <use xlink:href="#DejaVuSansMono-30"/>
       <use xlink:href="#DejaVuSansMono-2e" transform="translate(60.205078 0)"/>
       <use xlink:href="#DejaVuSansMono-32" transform="translate(120.410156 0)"/>
      </g>
     </g>
    </g>
    <g id="xtick_3">
     <g id="line2d_5">
      <path d="M 260.759545 534.04 
L 260.759545 26.88 
" clip-path="url(#p972c700fa7)" style="fill: none; stroke: #b0b0b0; stroke-width: 0.8; stroke-linecap: square"/>
     </g>
     <g id="line2d_6">
      <g>
       <use xlink:href="#m664b3a6d4e" x="260.759545" y="534.04" style="stroke: #000000; stroke-width: 0.8"/>
      </g>
     </g>
     <g id="text_3">
      <!-- 0.4 -->
      <g transform="translate(251.729077 548.691562) scale(0.1 -0.1)">
       <defs>
        <path id="DejaVuSansMono-34" d="M 2297 4091 
L 825 1625 
L 2297 1625 
L 2297 4091 
z
M 2194 4666 
L 2925 4666 
L 2925 1625 
L 3547 1625 
L 3547 1113 
L 2925 1113 
L 2925 0 
L 2297 0 
L 2297 1113 
L 319 1113 
L 319 1709 
L 2194 4666 
z
" transform="scale(0.015625)"/>
       </defs>
       <use xlink:href="#DejaVuSansMono-30"/>
       <use xlink:href="#DejaVuSansMono-2e" transform="translate(60.205078 0)"/>
       <use xlink:href="#DejaVuSansMono-34" transform="translate(120.410156 0)"/>
      </g>
     </g>
    </g>
    <g id="xtick_4">
     <g id="line2d_7">
      <path d="M 352.970455 534.04 
L 352.970455 26.88 
" clip-path="url(#p972c700fa7)" style="fill: none; stroke: #b0b0b0; stroke-width: 0.8; stroke-linecap: square"/>
     </g>
     <g id="line2d_8">
      <g>
       <use xlink:href="#m664b3a6d4e" x="352.970455" y="534.04" style="stroke: #000000; stroke-width: 0.8"/>
      </g>
     </g>
     <g id="text_4">
      <!-- 0.6 -->
      <g transform="translate(343.939986 548.691562) scale(0.1 -0.1)">
       <defs>
        <path id="DejaVuSansMono-36" d="M 3097 4563 
L 3097 3981 
Q 2900 4097 2678 4158 
Q 2456 4219 2216 4219 
Q 1616 4219 1306 3767 
Q 997 3316 997 2438 
Q 1147 2750 1412 2917 
Q 1678 3084 2022 3084 
Q 2697 3084 3067 2670 
Q 3438 2256 3438 1497 
Q 3438 741 3056 325 
Q 2675 -91 1984 -91 
Q 1172 -91 794 492 
Q 416 1075 416 2328 
Q 416 3509 870 4129 
Q 1325 4750 2188 4750 
Q 2419 4750 2650 4701 
Q 2881 4653 3097 4563 
z
M 1972 2591 
Q 1569 2591 1337 2300 
Q 1106 2009 1106 1497 
Q 1106 984 1337 693 
Q 1569 403 1972 403 
Q 2391 403 2603 679 
Q 2816 956 2816 1497 
Q 2816 2041 2603 2316 
Q 2391 2591 1972 2591 
z
" transform="scale(0.015625)"/>
       </defs>
       <use xlink:href="#DejaVuSansMono-30"/>
       <use xlink:href="#DejaVuSansMono-2e" transform="translate(60.205078 0)"/>
       <use xlink:href="#DejaVuSansMono-36" transform="translate(120.410156 0)"/>
      </g>
     </g>
    </g>
    <g id="xtick_5">
     <g id="line2d_9">
      <path d="M 445.181364 534.04 
L 445.181364 26.88 
" clip-path="url(#p972c700fa7)" style="fill: none; stroke: #b0b0b0; stroke-width: 0.8; stroke-linecap: square"/>
     </g>
     <g id="line2d_10">
      <g>
       <use xlink:href="#m664b3a6d4e" x="445.181364" y="534.04" style="stroke: #000000; stroke-width: 0.8"/>
      </g>
     </g>
     <g id="text_5">
      <!-- 0.8 -->
      <g transform="translate(436.150895 548.691562) scale(0.1 -0.1)">
       <defs>
        <path id="DejaVuSansMono-38" d="M 1925 2216 
Q 1503 2216 1273 1980 
Q 1044 1744 1044 1313 
Q 1044 881 1276 642 
Q 1509 403 1925 403 
Q 2350 403 2579 639 
Q 2809 875 2809 1313 
Q 2809 1741 2576 1978 
Q 2344 2216 1925 2216 
z
M 1375 2478 
Q 972 2581 745 2862 
Q 519 3144 519 3541 
Q 519 4097 897 4423 
Q 1275 4750 1925 4750 
Q 2578 4750 2956 4423 
Q 3334 4097 3334 3541 
Q 3334 3144 3107 2862 
Q 2881 2581 2478 2478 
Q 2947 2375 3195 2062 
Q 3444 1750 3444 1253 
Q 3444 622 3041 265 
Q 2638 -91 1925 -91 
Q 1213 -91 811 264 
Q 409 619 409 1247 
Q 409 1747 657 2061 
Q 906 2375 1375 2478 
z
M 1147 3481 
Q 1147 3106 1347 2909 
Q 1547 2713 1925 2713 
Q 2306 2713 2506 2909 
Q 2706 3106 2706 3481 
Q 2706 3863 2507 4063 
Q 2309 4263 1925 4263 
Q 1547 4263 1347 4061 
Q 1147 3859 1147 3481 
z
" transform="scale(0.015625)"/>
       </defs>
       <use xlink:href="#DejaVuSansMono-30"/>
       <use xlink:href="#DejaVuSansMono-2e" transform="translate(60.205078 0)"/>
       <use xlink:href="#DejaVuSansMono-38" transform="translate(120.410156 0)"/>
      </g>
     </g>
    </g>
    <g id="xtick_6">
     <g id="line2d_11">
      <path d="M 537.392273 534.04 
L 537.392273 26.88 
" clip-path="url(#p972c700fa7)" style="fill: none; stroke: #b0b0b0; stroke-width: 0.8; stroke-linecap: square"/>
     </g>
     <g id="line2d_12">
      <g>
       <use xlink:href="#m664b3a6d4e" x="537.392273" y="534.04" style="stroke: #000000; stroke-width: 0.8"/>
      </g>
     </g>
     <g id="text_6">
      <!-- 1.0 -->
      <g transform="translate(528.361804 548.691562) scale(0.1 -0.1)">
       <defs>
        <path id="DejaVuSansMono-31" d="M 844 531 
L 1825 531 
L 1825 4097 
L 769 3859 
L 769 4434 
L 1819 4666 
L 2450 4666 
L 2450 531 
L 3419 531 
L 3419 0 
L 844 0 
L 844 531 
z
" transform="scale(0.015625)"/>
       </defs>
       <use xlink:href="#DejaVuSansMono-31"/>
       <use xlink:href="#DejaVuSansMono-2e" transform="translate(60.205078 0)"/>
       <use xlink:href="#DejaVuSansMono-30" transform="translate(120.410156 0)"/>
      </g>
     </g>
    </g>
    <g id="text_7">
     <!-- Recall -->
     <g transform="translate(288.804062 562.422812) scale(0.1 -0.1)">
      <defs>
       <path id="DejaVuSansMono-52" d="M 2375 2203 
Q 2619 2141 2791 1967 
Q 2963 1794 3219 1275 
L 3853 0 
L 3175 0 
L 2619 1178 
Q 2378 1681 2186 1826 
Q 1994 1972 1684 1972 
L 1081 1972 
L 1081 0 
L 447 0 
L 447 4666 
L 1747 4666 
Q 2516 4666 2925 4319 
Q 3334 3972 3334 3316 
Q 3334 2853 3082 2561 
Q 2831 2269 2375 2203 
z
M 1081 4147 
L 1081 2491 
L 1772 2491 
Q 2225 2491 2447 2694 
Q 2669 2897 2669 3316 
Q 2669 3719 2433 3933 
Q 2197 4147 1747 4147 
L 1081 4147 
z
" transform="scale(0.015625)"/>
       <path id="DejaVuSansMono-65" d="M 3475 1894 
L 3475 1613 
L 984 1613 
L 984 1594 
Q 984 1022 1282 709 
Q 1581 397 2125 397 
Q 2400 397 2700 484 
Q 3000 572 3341 750 
L 3341 178 
Q 3013 44 2708 -23 
Q 2403 -91 2119 -91 
Q 1303 -91 843 398 
Q 384 888 384 1747 
Q 384 2584 834 3084 
Q 1284 3584 2034 3584 
Q 2703 3584 3089 3131 
Q 3475 2678 3475 1894 
z
M 2900 2063 
Q 2888 2569 2661 2833 
Q 2434 3097 2009 3097 
Q 1594 3097 1325 2822 
Q 1056 2547 1006 2059 
L 2900 2063 
z
" transform="scale(0.015625)"/>
       <path id="DejaVuSansMono-63" d="M 3316 178 
Q 3084 44 2839 -23 
Q 2594 -91 2338 -91 
Q 1525 -91 1067 396 
Q 609 884 609 1747 
Q 609 2609 1067 3096 
Q 1525 3584 2338 3584 
Q 2591 3584 2831 3518 
Q 3072 3453 3316 3316 
L 3316 2713 
Q 3088 2916 2858 3006 
Q 2628 3097 2338 3097 
Q 1797 3097 1506 2747 
Q 1216 2397 1216 1747 
Q 1216 1100 1508 748 
Q 1800 397 2338 397 
Q 2638 397 2875 489 
Q 3113 581 3316 775 
L 3316 178 
z
" transform="scale(0.015625)"/>
       <path id="DejaVuSansMono-61" d="M 2194 1759 
L 2003 1759 
Q 1500 1759 1245 1582 
Q 991 1406 991 1056 
Q 991 741 1181 566 
Q 1372 391 1709 391 
Q 2184 391 2456 720 
Q 2728 1050 2731 1631 
L 2731 1759 
L 2194 1759 
z
M 3309 1997 
L 3309 0 
L 2731 0 
L 2731 519 
Q 2547 206 2267 57 
Q 1988 -91 1588 -91 
Q 1053 -91 734 211 
Q 416 513 416 1019 
Q 416 1603 808 1906 
Q 1200 2209 1959 2209 
L 2731 2209 
L 2731 2300 
Q 2728 2719 2518 2908 
Q 2309 3097 1850 3097 
Q 1556 3097 1256 3012 
Q 956 2928 672 2766 
L 672 3341 
Q 991 3463 1283 3523 
Q 1575 3584 1850 3584 
Q 2284 3584 2592 3456 
Q 2900 3328 3091 3072 
Q 3209 2916 3259 2686 
Q 3309 2456 3309 1997 
z
" transform="scale(0.015625)"/>
       <path id="DejaVuSansMono-6c" d="M 1997 1269 
Q 1997 881 2139 684 
Q 2281 488 2559 488 
L 3231 488 
L 3231 0 
L 2503 0 
Q 1988 0 1705 331 
Q 1422 663 1422 1269 
L 1422 4447 
L 500 4447 
L 500 4897 
L 1997 4897 
L 1997 1269 
z
" transform="scale(0.015625)"/>
      </defs>
      <use xlink:href="#DejaVuSansMono-52"/>
      <use xlink:href="#DejaVuSansMono-65" transform="translate(60.205078 0)"/>
      <use xlink:href="#DejaVuSansMono-63" transform="translate(120.410156 0)"/>
      <use xlink:href="#DejaVuSansMono-61" transform="translate(180.615234 0)"/>
      <use xlink:href="#DejaVuSansMono-6c" transform="translate(240.820312 0)"/>
      <use xlink:href="#DejaVuSansMono-6c" transform="translate(301.025391 0)"/>
     </g>
    </g>
   </g>
   <g id="matplotlib.axis_2">
    <g id="ytick_1">
     <g id="line2d_13">
      <path d="M 53.285 510.987273 
L 560.445 510.987273 
" clip-path="url(#p972c700fa7)" style="fill: none; stroke: #b0b0b0; stroke-width: 0.8; stroke-linecap: square"/>
     </g>
     <g id="line2d_14">
      <defs>
       <path id="m63be03a14d" d="M 0 0 
L -3.5 0 
" style="stroke: #000000; stroke-width: 0.8"/>
      </defs>
      <g>
       <use xlink:href="#m63be03a14d" x="53.285" y="510.987273" style="stroke: #000000; stroke-width: 0.8"/>
      </g>
     </g>
     <g id="text_8">
      <!-- 0.0 -->
      <g transform="translate(28.224062 514.813054) scale(0.1 -0.1)">
       <use xlink:href="#DejaVuSansMono-30"/>
       <use xlink:href="#DejaVuSansMono-2e" transform="translate(60.205078 0)"/>
       <use xlink:href="#DejaVuSansMono-30" transform="translate(120.410156 0)"/>
      </g>
     </g>
    </g>
    <g id="ytick_2">
     <g id="line2d_15">
      <path d="M 53.285 418.776364 
L 560.445 418.776364 
" clip-path="url(#p972c700fa7)" style="fill: none; stroke: #b0b0b0; stroke-width: 0.8; stroke-linecap: square"/>
     </g>
     <g id="line2d_16">
      <g>
       <use xlink:href="#m63be03a14d" x="53.285" y="418.776364" style="stroke: #000000; stroke-width: 0.8"/>
      </g>
     </g>
     <g id="text_9">
      <!-- 0.2 -->
      <g transform="translate(28.224062 422.602145) scale(0.1 -0.1)">
       <use xlink:href="#DejaVuSansMono-30"/>
       <use xlink:href="#DejaVuSansMono-2e" transform="translate(60.205078 0)"/>
       <use xlink:href="#DejaVuSansMono-32" transform="translate(120.410156 0)"/>
      </g>
     </g>
    </g>
    <g id="ytick_3">
     <g id="line2d_17">
      <path d="M 53.285 326.565455 
L 560.445 326.565455 
" clip-path="url(#p972c700fa7)" style="fill: none; stroke: #b0b0b0; stroke-width: 0.8; stroke-linecap: square"/>
     </g>
     <g id="line2d_18">
      <g>
       <use xlink:href="#m63be03a14d" x="53.285" y="326.565455" style="stroke: #000000; stroke-width: 0.8"/>
      </g>
     </g>
     <g id="text_10">
      <!-- 0.4 -->
      <g transform="translate(28.224062 330.391236) scale(0.1 -0.1)">
       <use xlink:href="#DejaVuSansMono-30"/>
       <use xlink:href="#DejaVuSansMono-2e" transform="translate(60.205078 0)"/>
       <use xlink:href="#DejaVuSansMono-34" transform="translate(120.410156 0)"/>
      </g>
     </g>
    </g>
    <g id="ytick_4">
     <g id="line2d_19">
      <path d="M 53.285 234.354545 
L 560.445 234.354545 
" clip-path="url(#p972c700fa7)" style="fill: none; stroke: #b0b0b0; stroke-width: 0.8; stroke-linecap: square"/>
     </g>
     <g id="line2d_20">
      <g>
       <use xlink:href="#m63be03a14d" x="53.285" y="234.354545" style="stroke: #000000; stroke-width: 0.8"/>
      </g>
     </g>
     <g id="text_11">
      <!-- 0.6 -->
      <g transform="translate(28.224062 238.180327) scale(0.1 -0.1)">
       <use xlink:href="#DejaVuSansMono-30"/>
       <use xlink:href="#DejaVuSansMono-2e" transform="translate(60.205078 0)"/>
       <use xlink:href="#DejaVuSansMono-36" transform="translate(120.410156 0)"/>
      </g>
     </g>
    </g>
    <g id="ytick_5">
     <g id="line2d_21">
      <path d="M 53.285 142.143636 
L 560.445 142.143636 
" clip-path="url(#p972c700fa7)" style="fill: none; stroke: #b0b0b0; stroke-width: 0.8; stroke-linecap: square"/>
     </g>
     <g id="line2d_22">
      <g>
       <use xlink:href="#m63be03a14d" x="53.285" y="142.143636" style="stroke: #000000; stroke-width: 0.8"/>
      </g>
     </g>
     <g id="text_12">
      <!-- 0.8 -->
      <g transform="translate(28.224062 145.969418) scale(0.1 -0.1)">
       <use xlink:href="#DejaVuSansMono-30"/>
       <use xlink:href="#DejaVuSansMono-2e" transform="translate(60.205078 0)"/>
       <use xlink:href="#DejaVuSansMono-38" transform="translate(120.410156 0)"/>
      </g>
     </g>
    </g>
    <g id="ytick_6">
     <g id="line2d_23">
      <path d="M 53.285 49.932727 
L 560.445 49.932727 
" clip-path="url(#p972c700fa7)" style="fill: none; stroke: #b0b0b0; stroke-width: 0.8; stroke-linecap: square"/>
     </g>
     <g id="line2d_24">
      <g>
       <use xlink:href="#m63be03a14d" x="53.285" y="49.932727" style="stroke: #000000; stroke-width: 0.8"/>
      </g>
     </g>
     <g id="text_13">
      <!-- 1.0 -->
      <g transform="translate(28.224062 53.758509) scale(0.1 -0.1)">
       <use xlink:href="#DejaVuSansMono-31"/>
       <use xlink:href="#DejaVuSansMono-2e" transform="translate(60.205078 0)"/>
       <use xlink:href="#DejaVuSansMono-30" transform="translate(120.410156 0)"/>
      </g>
     </g>
    </g>
    <g id="text_14">
     <!-- Precision -->
     <g transform="translate(22.144375 307.551406) rotate(-90) scale(0.1 -0.1)">
      <defs>
       <path id="DejaVuSansMono-50" d="M 1247 4147 
L 1247 2394 
L 1978 2394 
Q 2416 2394 2661 2625 
Q 2906 2856 2906 3272 
Q 2906 3688 2662 3917 
Q 2419 4147 1978 4147 
L 1247 4147 
z
M 616 4666 
L 1978 4666 
Q 2759 4666 3162 4311 
Q 3566 3956 3566 3272 
Q 3566 2581 3164 2228 
Q 2763 1875 1978 1875 
L 1247 1875 
L 1247 0 
L 616 0 
L 616 4666 
z
" transform="scale(0.015625)"/>
       <path id="DejaVuSansMono-72" d="M 3609 2778 
Q 3425 2922 3234 2987 
Q 3044 3053 2816 3053 
Q 2278 3053 1993 2715 
Q 1709 2378 1709 1741 
L 1709 0 
L 1131 0 
L 1131 3500 
L 1709 3500 
L 1709 2816 
Q 1853 3188 2151 3386 
Q 2450 3584 2859 3584 
Q 3072 3584 3256 3531 
Q 3441 3478 3609 3366 
L 3609 2778 
z
" transform="scale(0.015625)"/>
       <path id="DejaVuSansMono-69" d="M 800 3500 
L 2272 3500 
L 2272 447 
L 3413 447 
L 3413 0 
L 556 0 
L 556 447 
L 1697 447 
L 1697 3053 
L 800 3053 
L 800 3500 
z
M 1697 4863 
L 2272 4863 
L 2272 4134 
L 1697 4134 
L 1697 4863 
z
" transform="scale(0.015625)"/>
       <path id="DejaVuSansMono-73" d="M 3041 3378 
L 3041 2816 
Q 2794 2959 2544 3031 
Q 2294 3103 2034 3103 
Q 1644 3103 1451 2976 
Q 1259 2850 1259 2591 
Q 1259 2356 1403 2240 
Q 1547 2125 2119 2016 
L 2350 1972 
Q 2778 1891 2998 1647 
Q 3219 1403 3219 1013 
Q 3219 494 2850 201 
Q 2481 -91 1825 -91 
Q 1566 -91 1281 -36 
Q 997 19 666 128 
L 666 722 
Q 988 556 1281 473 
Q 1575 391 1838 391 
Q 2219 391 2428 545 
Q 2638 700 2638 978 
Q 2638 1378 1872 1531 
L 1847 1538 
L 1631 1581 
Q 1134 1678 906 1908 
Q 678 2138 678 2534 
Q 678 3038 1018 3311 
Q 1359 3584 1991 3584 
Q 2272 3584 2531 3532 
Q 2791 3481 3041 3378 
z
" transform="scale(0.015625)"/>
       <path id="DejaVuSansMono-6f" d="M 1925 3097 
Q 1488 3097 1263 2756 
Q 1038 2416 1038 1747 
Q 1038 1081 1263 739 
Q 1488 397 1925 397 
Q 2366 397 2591 739 
Q 2816 1081 2816 1747 
Q 2816 2416 2591 2756 
Q 2366 3097 1925 3097 
z
M 1925 3584 
Q 2653 3584 3039 3112 
Q 3425 2641 3425 1747 
Q 3425 850 3040 379 
Q 2656 -91 1925 -91 
Q 1197 -91 812 379 
Q 428 850 428 1747 
Q 428 2641 812 3112 
Q 1197 3584 1925 3584 
z
" transform="scale(0.015625)"/>
       <path id="DejaVuSansMono-6e" d="M 3284 2169 
L 3284 0 
L 2706 0 
L 2706 2169 
Q 2706 2641 2540 2862 
Q 2375 3084 2022 3084 
Q 1619 3084 1401 2798 
Q 1184 2513 1184 1978 
L 1184 0 
L 609 0 
L 609 3500 
L 1184 3500 
L 1184 2975 
Q 1338 3275 1600 3429 
Q 1863 3584 2222 3584 
Q 2756 3584 3020 3232 
Q 3284 2881 3284 2169 
z
" transform="scale(0.015625)"/>
      </defs>
      <use xlink:href="#DejaVuSansMono-50"/>
      <use xlink:href="#DejaVuSansMono-72" transform="translate(60.205078 0)"/>
      <use xlink:href="#DejaVuSansMono-65" transform="translate(120.410156 0)"/>
      <use xlink:href="#DejaVuSansMono-63" transform="translate(180.615234 0)"/>
      <use xlink:href="#DejaVuSansMono-69" transform="translate(240.820312 0)"/>
      <use xlink:href="#DejaVuSansMono-73" transform="translate(301.025391 0)"/>
      <use xlink:href="#DejaVuSansMono-69" transform="translate(361.230469 0)"/>
      <use xlink:href="#DejaVuSansMono-6f" transform="translate(421.435547 0)"/>
      <use xlink:href="#DejaVuSansMono-6e" transform="translate(481.640625 0)"/>
     </g>
    </g>
   </g>
   <g id="line2d_25">
    <path d="M 537.392273 510.62969 
L 537.328932 510.059677 
L 537.075571 509.735867 
L 537.075571 509.280386 
L 536.758869 508.803686 
L 536.695529 508.293683 
L 536.568848 507.501743 
L 536.315486 507.346971 
L 536.252146 506.716703 
L 535.555402 505.757934 
L 535.428721 505.338796 
L 535.048679 504.704956 
L 534.858658 503.909364 
L 534.605296 502.351728 
L 534.605296 501.944782 
L 533.338489 496.632601 
L 533.338489 496.576634 
L 532.958447 495.875026 
L 532.641745 494.441803 
L 531.81832 491.866077 
L 530.994895 487.86125 
L 529.728088 485.613977 
L 527.827877 479.324892 
L 522.887328 465.739913 
L 521.873882 460.757928 
L 520.100352 454.492447 
L 519.086906 452.020477 
L 518.326822 448.500847 
L 515.729867 439.528866 
L 512.626188 432.004391 
L 510.979339 426.168069 
L 505.025344 411.264759 
L 504.011898 410.238372 
L 500.84488 401.993002 
L 498.881328 395.172426 
L 496.664416 390.408808 
L 491.597186 376.562582 
L 491.090463 376.205132 
L 487.226701 363.392482 
L 484.123022 356.574894 
L 482.159471 353.592959 
L 479.752537 348.904345 
L 474.431946 335.601253 
L 468.541292 317.752553 
L 462.207255 305.879613 
L 458.786875 300.615676 
L 456.506622 298.693496 
L 456.443281 298.435354 
L 425.976564 248.153328 
L 425.786543 247.670717 
L 425.27982 247.288198 
L 423.63297 246.556094 
L 419.832548 243.889869 
L 410.078131 236.242147 
L 399.50029 220.902146 
L 392.089466 205.232728 
L 387.338939 201.220193 
L 383.855218 200.311378 
L 377.711203 195.981884 
L 377.711203 195.71025 
L 366.119915 184.718975 
L 351.361609 170.528287 
L 347.307826 168.795853 
L 339.390279 161.514828 
L 329.382501 157.181489 
L 327.798992 157.084228 
L 306.136586 145.687886 
L 305.503182 144.694926 
L 297.838997 141.953685 
L 286.881114 130.041384 
L 283.397393 129.420865 
L 271.806106 124.352945 
L 266.168813 123.608391 
L 260.848222 121.471063 
L 249.383615 113.762101 
L 237.538966 108.868075 
L 236.842222 107.982023 
L 236.145478 107.923995 
L 207.452291 95.496237 
L 207.388951 95.335049 
L 206.818887 95.513798 
L 206.122143 95.002789 
L 202.258381 94.550909 
L 192.503964 92.386265 
L 184.016354 85.244346 
L 183.572972 85.379124 
L 179.075806 84.630105 
L 172.171705 85.116987 
L 171.918344 84.94238 
L 160.390397 83.141551 
L 155.76655 82.083415 
L 152.34617 80.430499 
L 143.415178 80.045734 
L 140.438181 81.348967 
L 127.770107 76.67603 
L 126.62998 76.731865 
L 122.576197 78.378252 
L 117.002244 73.121861 
L 116.558862 73.364498 
L 113.328503 72.459822 
L 113.328503 71.744443 
L 113.201822 71.81584 
L 107.121147 73.345653 
L 101.293833 75.362594 
L 100.78711 75.86 
L 97.746772 75.689964 
L 95.339838 69.081958 
L 93.186265 71.415556 
L 89.829226 72.573799 
L 88.625759 74.672239 
L 86.028804 64.523061 
L 85.648762 65.098995 
L 83.62187 65.430359 
L 82.798445 67.331012 
L 81.784999 65.473892 
L 81.341616 66.800576 
L 80.328171 70.889752 
L 80.20149 71.544659 
L 79.694767 66.698347 
L 78.998023 70.889752 
L 77.984577 49.932727 
L 76.337727 49.932727 
L 76.337727 49.932727 
" clip-path="url(#p972c700fa7)" style="fill: none; stroke: #000000; stroke-width: 1.5; stroke-linecap: square"/>
   </g>
   <g id="line2d_26">
    <path d="M 537.392273 508.521396 
L 537.392273 477.765939 
L 537.047945 474.280681 
L 537.047945 435.304414 
L 536.703618 432.028655 
L 536.703618 407.176237 
L 536.35929 401.286672 
L 535.670635 393.297498 
L 535.670635 373.177108 
L 533.260343 339.465158 
L 533.260343 335.076007 
L 532.571687 308.569356 
L 532.22736 303.638014 
L 531.194377 282.877514 
L 531.194377 280.46 
L 530.505722 268.704028 
L 529.128412 260.868986 
L 529.128412 259.83287 
L 524.652155 240.341187 
L 522.930517 240.036776 
L 520.864552 229.42558 
L 520.175897 223.886157 
L 518.109932 219.878522 
L 514.322329 204.900957 
L 512.256364 204.746426 
L 511.912036 192.628102 
L 511.567709 192.532111 
L 509.157416 185.765295 
L 508.813089 182.335451 
L 507.435779 171.833165 
L 503.648176 161.677938 
L 501.237883 152.486133 
L 497.794608 150.161976 
L 495.039988 149.515753 
L 495.039988 149.282545 
L 474.03601 129.800444 
L 474.03601 129.253939 
L 472.6587 129.207574 
L 469.215424 128.673874 
L 468.526769 126.550137 
L 463.017529 123.14888 
L 463.017529 122.858146 
L 457.163961 118.131859 
L 448.211446 113.272489 
L 444.423843 111.581025 
L 440.980568 111.43182 
L 434.094018 110.455774 
L 428.24045 104.78232 
L 427.551795 103.82222 
L 416.533314 98.002784 
L 411.712729 98.241751 
L 404.826179 96.81963 
L 397.939628 94.522142 
L 395.873663 92.748154 
L 376.93565 90.401465 
L 376.93565 89.961521 
L 376.246995 89.603737 
L 370.393427 85.781461 
L 359.030619 84.238928 
L 350.078103 83.786383 
L 341.814243 80.632485 
L 341.469915 80.669697 
L 335.616348 78.101895 
L 330.107107 77.018946 
L 320.465937 75.717402 
L 313.923714 73.998761 
L 311.169094 72.438877 
L 309.791784 71.949377 
L 309.103129 72.011396 
L 279.490962 70.108534 
L 278.45798 70.207113 
L 276.736342 68.192313 
L 270.538447 67.241942 
L 261.585931 66.45798 
L 252.289089 63.080671 
L 238.515988 64.162806 
L 223.709905 62.506942 
L 217.512009 61.979283 
L 211.314114 59.153818 
L 203.050254 58.539079 
L 196.163703 59.023944 
L 175.504052 56.248543 
L 171.372122 54.890303 
L 156.221711 55.81853 
L 147.613523 56.519221 
L 147.613523 54.344732 
L 135.906388 55.201922 
L 126.953872 56.121379 
L 122.821942 56.663451 
L 118.345684 49.932727 
L 76.337727 49.932727 
L 76.337727 49.932727 
" clip-path="url(#p972c700fa7)" style="fill: none; stroke: #008000; stroke-width: 1.5; stroke-linecap: square"/>
   </g>
   <g id="line2d_27">
    <path d="M 537.392273 510.687471 
L 537.314654 510.208782 
L 537.00418 509.936703 
L 537.00418 509.553633 
L 536.616087 509.152821 
L 536.538468 508.723439 
L 536.383231 508.056346 
L 536.072756 507.926155 
L 535.995138 507.394186 
L 535.141333 506.586293 
L 534.986096 506.232964 
L 534.598003 505.698411 
L 534.365147 505.026836 
L 534.054672 503.710374 
L 534.054672 503.366248 
L 532.890393 500.400358 
L 532.5023 498.819388 
L 532.114207 498.224758 
L 531.726114 497.004657 
L 530.717072 494.818352 
L 529.785649 491.396898 
L 528.388514 489.47846 
L 526.292811 484.180862 
L 526.292811 484.118071 
L 526.059956 484.094126 
L 520.549034 472.387891 
L 519.384755 468.069801 
L 517.289053 462.624134 
L 516.124773 460.46832 
L 515.270969 457.383994 
L 512.787173 450.596634 
L 512.243843 449.507495 
L 508.595768 442.87722 
L 506.888159 437.677935 
L 500.601051 424.304641 
L 499.747247 423.330346 
L 496.332028 415.897848 
L 494.081088 409.652051 
L 491.830148 405.254046 
L 486.319227 392.152055 
L 481.739729 380.354318 
L 478.32451 373.977777 
L 476.073571 371.199747 
L 473.201682 366.849585 
L 466.992193 354.409167 
L 460.627467 337.214354 
L 449.993717 320.781036 
L 447.742778 318.596412 
L 414.599631 267.202304 
L 413.357733 266.375978 
L 408.855854 263.938158 
L 398.144486 256.387893 
L 386.501694 240.487498 
L 379.438401 223.610098 
L 374.47081 219.431377 
L 370.977972 218.464616 
L 365.001339 213.7158 
L 365.001339 213.40625 
L 352.271887 202.315162 
L 336.903402 187.323511 
L 336.670546 187.274284 
L 332.789616 185.212205 
L 324.639662 177.069797 
L 313.928294 172.711155 
L 312.45354 172.947281 
L 290.021762 160.162739 
L 289.55605 159.274738 
L 281.483714 157.061289 
L 270.617109 142.996352 
L 268.599025 141.994669 
L 268.366169 142.083992 
L 256.102429 136.97595 
L 250.513889 136.807743 
L 245.235823 134.531479 
L 233.360176 125.568535 
L 224.278799 121.806598 
L 220.941198 120.735288 
L 220.397868 119.712816 
L 219.776919 119.789477 
L 219.699301 119.641801 
L 191.135652 104.852864 
L 191.135652 104.610829 
L 190.66994 104.807042 
L 186.866628 104.459921 
L 176.931446 102.282286 
L 168.626255 94.109817 
L 168.315781 94.244606 
L 163.813901 93.295574 
L 157.061082 94.033597 
L 156.905845 93.746978 
L 146.349714 92.184453 
L 146.116858 92.312489 
L 141.847834 91.213771 
L 139.053564 90.047078 
L 129.972187 90.68557 
L 127.876485 92.190805 
L 117.009879 87.140638 
L 116.544167 87.536467 
L 112.973711 90.0632 
L 108.161358 82.342457 
L 107.850883 82.639114 
L 105.599943 80.745779 
L 105.444706 80.899077 
L 101.641394 82.77137 
L 100.632352 82.767472 
L 95.121431 86.746969 
L 94.888575 87.171748 
L 92.094305 87.484681 
L 90.15384 81.313403 
L 88.290993 85.823201 
L 85.729579 88.353939 
L 84.875774 91.846777 
L 82.857691 75.834668 
L 82.547216 77.053583 
L 80.917225 79.206032 
L 80.218658 84.084916 
L 79.597709 80.669697 
L 79.287234 83.668426 
L 78.588667 93.156591 
L 78.43343 96.038182 
L 78.122955 86.817091 
L 77.734862 96.038182 
L 77.269151 49.932727 
L 76.337727 49.932727 
L 76.337727 49.932727 
" clip-path="url(#p972c700fa7)" style="fill: none; stroke: #ff0000; stroke-width: 1.5; stroke-linecap: square"/>
   </g>
   <g id="patch_3">
    <path d="M 53.285 534.04 
L 53.285 26.88 
" style="fill: none; stroke: #000000; stroke-width: 0.8; stroke-linejoin: miter; stroke-linecap: square"/>
   </g>
   <g id="patch_4">
    <path d="M 560.445 534.04 
L 560.445 26.88 
" style="fill: none; stroke: #000000; stroke-width: 0.8; stroke-linejoin: miter; stroke-linecap: square"/>
   </g>
   <g id="patch_5">
    <path d="M 53.285 534.04 
L 560.445 534.04 
" style="fill: none; stroke: #000000; stroke-width: 0.8; stroke-linejoin: miter; stroke-linecap: square"/>
   </g>
   <g id="patch_6">
    <path d="M 53.285 26.88 
L 560.445 26.88 
" style="fill: none; stroke: #000000; stroke-width: 0.8; stroke-linejoin: miter; stroke-linecap: square"/>
   </g>
   <g id="text_15">
    <!-- Precision-Recall Curves -->
    <g transform="translate(223.784688 20.88) scale(0.12 -0.12)">
     <defs>
      <path id="DejaVuSansMono-2d" d="M 1113 2009 
L 2741 2009 
L 2741 1497 
L 1113 1497 
L 1113 2009 
z
" transform="scale(0.015625)"/>
      <path id="DejaVuSansMono-20" transform="scale(0.015625)"/>
      <path id="DejaVuSansMono-43" d="M 3353 166 
Q 3113 38 2859 -26 
Q 2606 -91 2322 -91 
Q 1425 -91 929 543 
Q 434 1178 434 2328 
Q 434 3472 932 4111 
Q 1431 4750 2322 4750 
Q 2606 4750 2859 4686 
Q 3113 4622 3353 4494 
L 3353 3847 
Q 3122 4038 2856 4138 
Q 2591 4238 2322 4238 
Q 1706 4238 1400 3763 
Q 1094 3288 1094 2328 
Q 1094 1372 1400 897 
Q 1706 422 2322 422 
Q 2597 422 2861 522 
Q 3125 622 3353 813 
L 3353 166 
z
" transform="scale(0.015625)"/>
      <path id="DejaVuSansMono-75" d="M 609 1325 
L 609 3494 
L 1184 3494 
L 1184 1325 
Q 1184 853 1351 631 
Q 1519 409 1869 409 
Q 2275 409 2490 695 
Q 2706 981 2706 1516 
L 2706 3494 
L 3284 3494 
L 3284 0 
L 2706 0 
L 2706 525 
Q 2553 222 2289 65 
Q 2025 -91 1672 -91 
Q 1134 -91 871 261 
Q 609 613 609 1325 
z
" transform="scale(0.015625)"/>
      <path id="DejaVuSansMono-76" d="M 313 3500 
L 909 3500 
L 1925 563 
L 2944 3500 
L 3541 3500 
L 2297 0 
L 1556 0 
L 313 3500 
z
" transform="scale(0.015625)"/>
     </defs>
     <use xlink:href="#DejaVuSansMono-50"/>
     <use xlink:href="#DejaVuSansMono-72" transform="translate(60.205078 0)"/>
     <use xlink:href="#DejaVuSansMono-65" transform="translate(120.410156 0)"/>
     <use xlink:href="#DejaVuSansMono-63" transform="translate(180.615234 0)"/>
     <use xlink:href="#DejaVuSansMono-69" transform="translate(240.820312 0)"/>
     <use xlink:href="#DejaVuSansMono-73" transform="translate(301.025391 0)"/>
     <use xlink:href="#DejaVuSansMono-69" transform="translate(361.230469 0)"/>
     <use xlink:href="#DejaVuSansMono-6f" transform="translate(421.435547 0)"/>
     <use xlink:href="#DejaVuSansMono-6e" transform="translate(481.640625 0)"/>
     <use xlink:href="#DejaVuSansMono-2d" transform="translate(541.845703 0)"/>
     <use xlink:href="#DejaVuSansMono-52" transform="translate(602.050781 0)"/>
     <use xlink:href="#DejaVuSansMono-65" transform="translate(662.255859 0)"/>
     <use xlink:href="#DejaVuSansMono-63" transform="translate(722.460938 0)"/>
     <use xlink:href="#DejaVuSansMono-61" transform="translate(782.666016 0)"/>
     <use xlink:href="#DejaVuSansMono-6c" transform="translate(842.871094 0)"/>
     <use xlink:href="#DejaVuSansMono-6c" transform="translate(903.076172 0)"/>
     <use xlink:href="#DejaVuSansMono-20" transform="translate(963.28125 0)"/>
     <use xlink:href="#DejaVuSansMono-43" transform="translate(1023.486328 0)"/>
     <use xlink:href="#DejaVuSansMono-75" transform="translate(1083.691406 0)"/>
     <use xlink:href="#DejaVuSansMono-72" transform="translate(1143.896484 0)"/>
     <use xlink:href="#DejaVuSansMono-76" transform="translate(1204.101562 0)"/>
     <use xlink:href="#DejaVuSansMono-65" transform="translate(1264.306641 0)"/>
     <use xlink:href="#DejaVuSansMono-73" transform="translate(1324.511719 0)"/>
    </g>
   </g>
   <g id="legend_1">
    <g id="patch_7">
     <path d="M 495.262187 93.805 
L 553.445 93.805 
Q 555.445 93.805 555.445 91.805 
L 555.445 33.88 
Q 555.445 31.88 553.445 31.88 
L 495.262187 31.88 
Q 493.262187 31.88 493.262187 33.88 
L 493.262187 91.805 
Q 493.262187 93.805 495.262187 93.805 
z
" style="fill: #ffffff; opacity: 0.8; stroke: #cccccc; stroke-linejoin: miter"/>
    </g>
    <g id="text_16">
     <!-- Task type -->
     <g transform="translate(497.262187 43.531563) scale(0.1 -0.1)">
      <defs>
       <path id="DejaVuSansMono-54" d="M 147 4666 
L 3706 4666 
L 3706 4134 
L 2247 4134 
L 2247 0 
L 1613 0 
L 1613 4134 
L 147 4134 
L 147 4666 
z
" transform="scale(0.015625)"/>
       <path id="DejaVuSansMono-6b" d="M 738 4863 
L 1331 4863 
L 1331 2047 
L 2841 3500 
L 3541 3500 
L 2163 2181 
L 3756 0 
L 3053 0 
L 1759 1806 
L 1331 1403 
L 1331 0 
L 738 0 
L 738 4863 
z
" transform="scale(0.015625)"/>
       <path id="DejaVuSansMono-74" d="M 1919 4494 
L 1919 3500 
L 3225 3500 
L 3225 3053 
L 1919 3053 
L 1919 1153 
Q 1919 766 2066 612 
Q 2213 459 2578 459 
L 3225 459 
L 3225 0 
L 2522 0 
Q 1875 0 1609 259 
Q 1344 519 1344 1153 
L 1344 3053 
L 409 3053 
L 409 3500 
L 1344 3500 
L 1344 4494 
L 1919 4494 
z
" transform="scale(0.015625)"/>
       <path id="DejaVuSansMono-79" d="M 2681 1125 
Q 2538 759 2316 163 
Q 2006 -663 1900 -844 
Q 1756 -1088 1540 -1209 
Q 1325 -1331 1038 -1331 
L 575 -1331 
L 575 -850 
L 916 -850 
Q 1169 -850 1312 -703 
Q 1456 -556 1678 56 
L 325 3500 
L 934 3500 
L 1972 763 
L 2994 3500 
L 3603 3500 
L 2681 1125 
z
" transform="scale(0.015625)"/>
       <path id="DejaVuSansMono-70" d="M 1172 441 
L 1172 -1331 
L 594 -1331 
L 594 3500 
L 1172 3500 
L 1172 3053 
Q 1316 3313 1555 3448 
Q 1794 3584 2106 3584 
Q 2741 3584 3102 3093 
Q 3463 2603 3463 1734 
Q 3463 881 3100 395 
Q 2738 -91 2106 -91 
Q 1788 -91 1548 45 
Q 1309 181 1172 441 
z
M 2859 1747 
Q 2859 2416 2648 2756 
Q 2438 3097 2022 3097 
Q 1603 3097 1387 2755 
Q 1172 2413 1172 1747 
Q 1172 1084 1387 740 
Q 1603 397 2022 397 
Q 2438 397 2648 737 
Q 2859 1078 2859 1747 
z
" transform="scale(0.015625)"/>
      </defs>
      <use xlink:href="#DejaVuSansMono-54"/>
      <use xlink:href="#DejaVuSansMono-61" transform="translate(60.205078 0)"/>
      <use xlink:href="#DejaVuSansMono-73" transform="translate(120.410156 0)"/>
      <use xlink:href="#DejaVuSansMono-6b" transform="translate(180.615234 0)"/>
      <use xlink:href="#DejaVuSansMono-20" transform="translate(240.820312 0)"/>
      <use xlink:href="#DejaVuSansMono-74" transform="translate(301.025391 0)"/>
      <use xlink:href="#DejaVuSansMono-79" transform="translate(361.230469 0)"/>
      <use xlink:href="#DejaVuSansMono-70" transform="translate(421.435547 0)"/>
      <use xlink:href="#DejaVuSansMono-65" transform="translate(481.640625 0)"/>
     </g>
    </g>
    <g id="line2d_28">
     <path d="M 498.312969 54.762813 
L 508.312969 54.762813 
L 518.312969 54.762813 
" style="fill: none; stroke: #000000; stroke-width: 1.5; stroke-linecap: square"/>
    </g>
    <g id="text_17">
     <!-- SW -->
     <g transform="translate(526.312969 58.262813) scale(0.1 -0.1)">
      <defs>
       <path id="DejaVuSansMono-53" d="M 3163 4506 
L 3163 3866 
Q 2875 4050 2586 4144 
Q 2297 4238 2003 4238 
Q 1556 4238 1297 4030 
Q 1038 3822 1038 3469 
Q 1038 3159 1208 2996 
Q 1378 2834 1844 2725 
L 2175 2650 
Q 2831 2497 3131 2169 
Q 3431 1841 3431 1275 
Q 3431 609 3018 259 
Q 2606 -91 1819 -91 
Q 1491 -91 1159 -20 
Q 828 50 494 191 
L 494 863 
Q 853 634 1173 528 
Q 1494 422 1819 422 
Q 2297 422 2562 636 
Q 2828 850 2828 1234 
Q 2828 1584 2645 1768 
Q 2463 1953 2009 2053 
L 1672 2131 
Q 1022 2278 728 2575 
Q 434 2872 434 3372 
Q 434 3997 854 4373 
Q 1275 4750 1972 4750 
Q 2241 4750 2537 4689 
Q 2834 4628 3163 4506 
z
" transform="scale(0.015625)"/>
       <path id="DejaVuSansMono-57" d="M 0 4666 
L 616 4666 
L 1063 878 
L 1594 3384 
L 2253 3384 
L 2791 872 
L 3238 4666 
L 3853 4666 
L 3156 0 
L 2559 0 
L 1925 2772 
L 1294 0 
L 697 0 
L 0 4666 
z
" transform="scale(0.015625)"/>
      </defs>
      <use xlink:href="#DejaVuSansMono-53"/>
      <use xlink:href="#DejaVuSansMono-57" transform="translate(60.205078 0)"/>
     </g>
    </g>
    <g id="line2d_29">
     <path d="M 498.312969 69.494063 
L 508.312969 69.494063 
L 518.312969 69.494063 
" style="fill: none; stroke: #008000; stroke-width: 1.5; stroke-linecap: square"/>
    </g>
    <g id="text_18">
     <!-- SWSP -->
     <g transform="translate(526.312969 72.994063) scale(0.1 -0.1)">
      <use xlink:href="#DejaVuSansMono-53"/>
      <use xlink:href="#DejaVuSansMono-57" transform="translate(60.205078 0)"/>
      <use xlink:href="#DejaVuSansMono-53" transform="translate(120.410156 0)"/>
      <use xlink:href="#DejaVuSansMono-50" transform="translate(180.615234 0)"/>
     </g>
    </g>
    <g id="line2d_30">
     <path d="M 498.312969 84.225313 
L 508.312969 84.225313 
L 518.312969 84.225313 
" style="fill: none; stroke: #ff0000; stroke-width: 1.5; stroke-linecap: square"/>
    </g>
    <g id="text_19">
     <!-- SWDP -->
     <g transform="translate(526.312969 87.725313) scale(0.1 -0.1)">
      <defs>
       <path id="DejaVuSansMono-44" d="M 1363 519 
Q 2159 519 2475 911 
Q 2791 1303 2791 2328 
Q 2791 3363 2477 3755 
Q 2163 4147 1363 4147 
L 1063 4147 
L 1063 519 
L 1363 519 
z
M 1375 4666 
Q 2444 4666 2950 4097 
Q 3456 3528 3456 2328 
Q 3456 1134 2950 567 
Q 2444 0 1375 0 
L 428 0 
L 428 4666 
L 1375 4666 
z
" transform="scale(0.015625)"/>
      </defs>
      <use xlink:href="#DejaVuSansMono-53"/>
      <use xlink:href="#DejaVuSansMono-57" transform="translate(60.205078 0)"/>
      <use xlink:href="#DejaVuSansMono-44" transform="translate(120.410156 0)"/>
      <use xlink:href="#DejaVuSansMono-50" transform="translate(180.615234 0)"/>
     </g>
    </g>
   </g>
  </g>
 </g>
 <defs>
  <clipPath id="p972c700fa7">
   <rect x="53.285" y="26.88" width="507.16" height="507.16"/>
  </clipPath>
 </defs>
</svg>
